<?xml version="1.0" encoding="utf-8"?>
<!-- Generator: Adobe Illustrator 18.1.1, SVG Export Plug-In . SVG Version: 6.00 Build 0)  -->
<!DOCTYPE svg PUBLIC "-//W3C//DTD SVG 1.1//EN" "http://www.w3.org/Graphics/SVG/1.1/DTD/svg11.dtd">
<svg version="1.1" id="Layer_1" xmlns="http://www.w3.org/2000/svg" xmlns:xlink="http://www.w3.org/1999/xlink" x="0px" y="0px"
	 width="97px" height="127px" viewBox="0 0 97 127" style="enable-background:new 0 0 97 127;" xml:space="preserve">
<style type="text/css">
	.st0{fill:none;stroke:#FFFFFF;stroke-width:1.26;stroke-miterlimit:2.4142001;}
	.st1{fill:url(#SVGID_1_);stroke:#000000;stroke-width:0.576;stroke-linecap:round;stroke-linejoin:round;}
	.st2{fill:url(#SVGID_2_);}
	.st3{fill:none;stroke:#000000;stroke-width:0.599826;stroke-miterlimit:2.4142001;}
	.st4{fill:#262626;stroke:#000000;stroke-width:0.629576;stroke-miterlimit:10;}
	.st5{fill:#2E2E2E;stroke:#000000;stroke-width:0.629576;stroke-miterlimit:10;}
	.st6{fill:none;stroke:#4C4C4C;stroke-width:1.79612;stroke-miterlimit:1;}
	.st7{fill:none;stroke:#666666;stroke-width:1.79612;stroke-miterlimit:1;}
	.st8{fill:none;stroke:#454545;stroke-width:1.79612;stroke-miterlimit:1;}
	.st9{fill:none;stroke:#525252;stroke-width:1.79612;stroke-miterlimit:1;}
	.st10{fill:none;stroke:#000000;stroke-width:0.576;stroke-miterlimit:2.4142001;}
	.st11{fill:url(#SVGID_3_);}
	.st12{fill:url(#SVGID_4_);stroke:#000000;stroke-width:0.576;stroke-linecap:round;stroke-linejoin:round;}
	.st13{fill:url(#SVGID_5_);}
	.st14{fill:url(#SVGID_6_);}
	.st15{fill:#FFFFFF;}
	.st16{font-family:'Futura Md BT', sans-serif;}
	.st17{font-size:12px;}
	.st18{fill:url(#SVGID_7_);stroke:#000000;stroke-width:0.576;stroke-linecap:round;stroke-linejoin:round;}
	.st19{fill:url(#SVGID_8_);}
	.st20{fill:url(#SVGID_9_);}
</style>
<g id="Maintenance_3_">
	<g>
		<circle class="st0" cx="43.0424194" cy="81.9309235" r="39.5"/>
		<line class="st0" x1="43.2712097" y1="36.0559158" x2="43.2712097" y2="42.4309158"/>
		<line class="st0" x1="10.6049376" y1="49.4919128" x2="15.1127377" y2="53.9997253"/>
		<line class="st0" x1="75.4809341" y1="49.4934273" x2="70.9731369" y2="54.0012245"/>
	</g>
	<g>
		<text transform="matrix(1 0 0 1 8.859848 10.3234186)" class="st15 st16 st17">DATA UPLOAD</text>
		<text transform="matrix(1 0 0 1 30.8759575 32.8234253)" class="st15 st16 st17">OFF</text>
		<text transform="matrix(1 0 0 1 76.7436371 47.8234177)" class="st15 st16 st17">B</text>
		<text transform="matrix(1 0 0 1 0.2280312 49.8234177)" class="st15 st16 st17">A</text>
	</g>
	<g id="Off_2_">
		
			<linearGradient id="SVGID_1_" gradientUnits="userSpaceOnUse" x1="-9129.3417969" y1="-269.2278748" x2="-9078.3808594" y2="-218.2671509" gradientTransform="matrix(-0.7071048 -0.7071056 -0.7071071 0.7071065 -6565.7045898 -6182.9912109)">
			<stop  offset="0" style="stop-color:#404040"/>
			<stop  offset="1" style="stop-color:#191919"/>
		</linearGradient>
		<circle class="st1" cx="43.6254272" cy="82.0473785" r="35.8823853"/>
		
			<linearGradient id="SVGID_2_" gradientUnits="userSpaceOnUse" x1="-9103.5751953" y1="-279.3363037" x2="-9103.5751953" y2="-198.7667542" gradientTransform="matrix(-0.7071048 -0.7071056 -0.7071071 0.7071065 -6565.7045898 -6182.9912109)">
			<stop  offset="0" style="stop-color:#2B2B2B"/>
			<stop  offset="0.0694208" style="stop-color:#393939"/>
			<stop  offset="0.1615544" style="stop-color:#444444"/>
			<stop  offset="0.265" style="stop-color:#474747"/>
			<stop  offset="0.531792" style="stop-color:#2E2E2E"/>
		</linearGradient>
		<path class="st2" d="M74.4571915,63.7125931c-1.4826584-2.5126762-3.3018951-4.8780022-5.459549-7.0356598
			c-2.1548309-2.1548309-4.5201492-3.9740677-7.0299492-5.4560814l-0.0040512-0.0040512
			c1.8130188,1.1465416-0.1444817,3.0294533-1.5484962,3.593853c0,0-28.3806839,11.653801-30.3990307,13.1180801
			L3.9881096,93.9567184c-1.7234581,1.7234573-1.7234628,4.6830215-0.5241847,7.7073059
			c1.3317742,3.3483582,4.4225936,7.5885468,8.6903133,11.8562698c4.2694359,4.2694397,8.5085011,7.3591461,11.856802,8.6908646
			c3.0231647,1.1981659,5.9832573,1.1986923,7.7067146-0.524765l26.0280075-26.0279846
			c1.4648705-2.0177612,13.1181602-30.3989639,13.1181602-30.3989639c0.5638199-1.4046021,2.4467316-3.3621025,3.5943832-1.547966
			L74.4571915,63.7125931z"/>
		<path class="st3" d="M74.4571915,63.7125931"/>
		<path class="st4" d="M5.9313388,91.9114151c-0.1554565-0.8046722-0.2948251-2.0589828,0.4370203-2.7908249l19.7660599-19.7660446
			c0.7909279-0.7909317,2.5356445-1.0512848,3.382719-1.0529861"/>
		<path class="st5" d="M33.680481,119.6605911c0.8040886,0.1548691,2.0578117,0.2936554,2.7896576-0.4381943l19.7660561-19.7660446
			c0.7909317-0.7909241,1.0513382-2.5355911,1.0518761-3.3838348"/>
		<path class="st6" d="M70.9516678,63.7814255c0.5608826-0.8087234,1.286438-1.4459496,2.1972351-1.41259"/>
		<path class="st7" d="M57.0632515,95.5206833c1.4263992-1.9631958,12.7700005-29.5379639,12.7700005-29.5379639
			c0.2575378-0.6406937,0.6234283-1.4872437,1.1184158-2.2012939"/>
		<line class="st6" x1="31.7188721" y1="120.8650436" x2="57.0632515" y2="95.5206833"/>
		<path class="st8" d="M24.2319279,121.3812332c2.9347763,1.1614609,5.811058,1.1596985,7.4869442-0.5161896"/>
		<path class="st8" d="M4.2933216,101.4426117c1.2903695,3.251976,4.2895098,7.3637238,8.4321909,11.5064087
			c4.1426954,4.1427002,8.2543745,7.1417847,11.5064154,8.4322128"/>
		<path class="st8" d="M4.8111629,93.9573059c-1.6758859,1.6758881-1.679297,4.5505219-0.5178413,7.4853058"/>
		<line class="st8" x1="30.1555405" y1="68.6129456" x2="4.8111629" y2="93.9573059"/>
		<path class="st9" d="M63.2460861,52.4258308c0.5661087,1.5755692-2.1880798,2.8682976-3.5525131,3.4171982
			c0,0-27.5765343,11.3418159-29.5380325,12.7699165"/>
		<path class="st10" d="M61.9676933,51.2208519l-0.0040512-0.0040512c1.8130188,1.1465416-0.1444817,3.0294533-1.5484962,3.593853
			c0,0-28.3806839,11.653801-30.3990307,13.1180801L3.9881096,93.9567184
			c-1.7234581,1.7234573-1.7234628,4.6830215-0.5241847,7.7073059c1.3317742,3.3483582,4.4225936,7.5885468,8.6903133,11.8562698
			c4.2694359,4.2694397,8.5085011,7.3591461,11.856802,8.6908646c3.0231647,1.1981659,5.9832573,1.1986923,7.7067146-0.524765
			l26.0280075-26.0279846c1.4648705-2.0177612,13.1181602-30.3989639,13.1181602-30.3989639
			c0.5638199-1.4046021,2.4467316-3.3621025,3.5943832-1.547966"/>
		<g>
			<path d="M41.5822449,79.7907639L66.7459106,54.627121c0.7724838,0.6486816,1.5273514,1.3254356,2.2517319,2.0498123
				c0.7260895,0.7260971,1.4027786,1.480896,2.0504074,2.2523346L45.884388,84.0929108L41.5822449,79.7907639z"/>
		</g>
		<g>
			
				<linearGradient id="SVGID_3_" gradientUnits="userSpaceOnUse" x1="-9103.5761719" y1="-243.6067505" x2="-9103.5761719" y2="-279.3363037" gradientTransform="matrix(-0.7071048 -0.7071056 -0.7071071 0.7071065 -6565.7045898 -6182.9912109)">
				<stop  offset="0.05" style="stop-color:#D9D9D9"/>
				<stop  offset="0.5" style="stop-color:#FFFFFF"/>
				<stop  offset="1" style="stop-color:#F2F2F2"/>
			</linearGradient>
			<path class="st11" d="M42.4534569,80.6619797l25.163662-25.1636467
				c-0.0780563-0.2018661,0.6670074,0.4650879,1.3805237,1.1786003c0.7146378,0.7146454,1.383873,1.4619942,1.1797256,1.381649
				L45.0137062,83.222229L42.4534569,80.6619797z"/>
		</g>
		<path class="st10" d="M38.622097,117.5821075c10.7705193,1.5066681,22.0940628-1.8801117,30.3759956-10.1620407
			c14.0128403-14.012825,14.0128784-36.7297897-0.0004501-50.7431335
			c-14.0139656-14.0139771-36.7320404-14.0150757-50.7448769-0.0022469
			C9.9937353,64.9337082,6.604125,76.2141418,8.0787144,86.9583435"/>
	</g>
</g>
</svg>
