<?xml version="1.0" encoding="utf-8"?>
<!-- Generator: Adobe Illustrator 18.1.1, SVG Export Plug-In . SVG Version: 6.00 Build 0)  -->
<!DOCTYPE svg PUBLIC "-//W3C//DTD SVG 1.1//EN" "http://www.w3.org/Graphics/SVG/1.1/DTD/svg11.dtd">
<svg version="1.1" id="Layer_1" xmlns="http://www.w3.org/2000/svg" xmlns:xlink="http://www.w3.org/1999/xlink" x="0px" y="0px"
	 width="15.039px" height="15.508px" viewBox="0 0 15.039 15.508" style="enable-background:new 0 0 15.039 15.508;"
	 xml:space="preserve">
<style type="text/css">
	.st0{fill-rule:evenodd;clip-rule:evenodd;fill:#06CAFF;}
	.st1{fill-rule:evenodd;clip-rule:evenodd;fill:none;stroke:#000000;stroke-miterlimit:8;}
	.st2{fill-rule:evenodd;clip-rule:evenodd;fill:#808080;}
	.st3{fill:none;stroke:#000000;stroke-miterlimit:8;}
	.st4{fill-rule:evenodd;clip-rule:evenodd;fill:#FFFFFF;}
</style>
<symbol  id="dsk_x5F_OkActive" viewBox="-7.519 -7.754 15.039 15.508">
	<path class="st0" d="M0.017,2.83c-3.917,0-7.037-1.016-7.037-2.249v-5.585c0-1.233,3.119-2.25,7.037-2.25
		c3.845,0,6.964,1.017,6.964,2.25v5.585C6.981,1.815,3.862,2.83,0.017,2.83z"/>
	<path class="st1" d="M6.984,0.581c0-1.243-3.135-2.25-7.002-2.25c-3.867,0-7.002,1.007-7.002,2.25c0,1.243,3.135,2.25,7.002,2.25
		C3.85,2.831,6.984,1.824,6.984,0.581z"/>
	<path class="st2" d="M0.089,7.255c-2.394,0-4.279-0.797-4.279-1.668V1.451c0-0.87,1.885-1.668,4.279-1.668
		c2.322,0,4.208,0.798,4.208,1.668v4.136C4.297,6.458,2.412,7.255,0.089,7.255z"/>
	<path class="st1" d="M4.297,5.587c0-0.921-1.9-1.667-4.244-1.667c-2.344,0-4.245,0.746-4.245,1.667s1.9,1.667,4.245,1.667
		C2.397,7.254,4.297,6.508,4.297,5.587z"/>
	<path class="st1" d="M4.297,1.451c0-0.92-1.9-1.666-4.244-1.666c-2.344,0-4.245,0.746-4.245,1.666"/>
	<line class="st3" x1="4.297" y1="1.451" x2="4.297" y2="5.587"/>
	<line class="st3" x1="-4.191" y1="1.451" x2="-4.191" y2="5.587"/>
	<path class="st1" d="M7.019-5.004c0-1.242-3.135-2.25-7.002-2.25s-7.002,1.008-7.002,2.25"/>
	<line class="st3" x1="-6.985" y1="-5.004" x2="-6.985" y2="0.581"/>
	<line class="st3" x1="7.019" y1="-5.004" x2="7.019" y2="0.611"/>
</symbol>
<use xlink:href="#dsk_x5F_OkActive"  width="15.039" height="15.508" x="-7.519" y="-7.754" transform="matrix(1 0 0 -1 7.5194 7.7541)" style="overflow:visible;"/>
</svg>
