<?xml version="1.0" encoding="utf-8"?>
<!-- Generator: Adobe Illustrator 18.1.1, SVG Export Plug-In . SVG Version: 6.00 Build 0)  -->
<!DOCTYPE svg PUBLIC "-//W3C//DTD SVG 1.1//EN" "http://www.w3.org/Graphics/SVG/1.1/DTD/svg11.dtd">
<svg version="1.1" id="Layer_1" xmlns="http://www.w3.org/2000/svg" xmlns:xlink="http://www.w3.org/1999/xlink" x="0px" y="0px"
	 width="327.6px" height="255.4px" viewBox="0 0 327.6 255.4" style="enable-background:new 0 0 327.6 255.4;" xml:space="preserve"
	>
<style type="text/css">
	.st0{fill:#FFFFFF;}
	.st1{fill-rule:evenodd;clip-rule:evenodd;fill:#FFFFFF;stroke:#000000;stroke-width:0.5;stroke-miterlimit:2.4142;}
	.st2{fill:#FFFFFF;stroke:#000000;stroke-width:0.5;stroke-miterlimit:10;}
	.st3{fill:#FFFFFF;stroke:#000000;stroke-width:0.5;stroke-linecap:round;}
	.st4{fill:#FFFFFF;stroke:#000000;stroke-width:0.5;stroke-miterlimit:2.4142;}
	.st5{fill:#FFFFFF;stroke:#000000;stroke-width:0.5;stroke-linecap:round;stroke-linejoin:round;}
	.st6{fill-rule:evenodd;clip-rule:evenodd;fill:#FFFFFF;stroke:#000000;stroke-width:0.5;stroke-linecap:round;}
	.st7{fill:#FFFFFF;stroke:#000000;stroke-width:0.5;stroke-linecap:round;stroke-linejoin:round;stroke-miterlimit:10;}
	.st8{fill:#FFFFFF;stroke:#000000;stroke-width:0.5;}
	.st9{fill:#ED1C24;stroke:#000000;stroke-width:0.5;}
	.st10{fill:none;stroke:#000000;stroke-linecap:round;}
</style>
<g>
	<g>
		<g>
			<g>
				<path class="st0" d="M264,61.8c-0.1,0-0.2,0-0.3-0.1c-0.1-0.1-0.2-0.2-0.2-0.3l-9.3-41.3c0-0.2,0-0.3,0.1-0.4
					c0.1-0.1,0.2-0.2,0.4-0.2c0,0,46.7,3.5,46.7,3.5c0.1,0,2.2,0.4,3.2,1l3.3,1.9c0.2,0.1,0.3,0.3,0.3,0.4v34.1
					c0,0.3-0.2,0.5-0.5,0.5h-40l-3.5,0.9C264.1,61.8,264.1,61.8,264,61.8z"/>
				<path d="M254.8,20.1l46.7,3.5c0,0,2.1,0.4,3,0.9c0.9,0.5,3.3,1.9,3.3,1.9v34.1h-40.1l-3.6,0.9L254.8,20.1 M254.8,19.1
					c-0.3,0-0.6,0.1-0.8,0.3c-0.2,0.2-0.3,0.6-0.2,0.9l9.3,41.3c0.1,0.3,0.2,0.5,0.5,0.6c0.2,0.1,0.3,0.1,0.5,0.1c0.1,0,0.2,0,0.2,0
					l3.5-0.9h40c0.6,0,1-0.4,1-1V26.3c0-0.4-0.2-0.7-0.5-0.9c0,0-2.4-1.3-3.3-1.9c-1-0.6-3.1-1-3.3-1c0,0-0.1,0-0.1,0L254.8,19.1
					C254.8,19.1,254.8,19.1,254.8,19.1L254.8,19.1z"/>
			</g>
			<g>
				<path class="st0" d="M64.1,61.8c0,0-0.1,0-0.1,0l-3.5-0.9h-40c-0.3,0-0.5-0.2-0.5-0.5V26.3c0-0.2,0.1-0.3,0.3-0.4l3.3-1.9
					c1-0.5,3-0.9,3.1-0.9c0,0,46.7-3.5,46.8-3.5c0.1,0,0.3,0.1,0.4,0.2c0.1,0.1,0.1,0.3,0.1,0.4l-9.3,41.3c0,0.1-0.1,0.2-0.2,0.3
					C64.2,61.8,64.1,61.8,64.1,61.8z"/>
				<path d="M73.3,20.1l-9.3,41.3l-3.6-0.9H20.3V26.3c0,0,2.4-1.3,3.3-1.9c0.9-0.5,3-0.9,3-0.9L73.3,20.1 M73.3,19.1
					C73.3,19.1,73.3,19.1,73.3,19.1l-46.7,3.5c0,0-0.1,0-0.1,0c-0.2,0-2.3,0.4-3.3,1c-0.9,0.5-3.3,1.9-3.3,1.9
					c-0.3,0.2-0.5,0.5-0.5,0.9v34.1c0,0.6,0.4,1,1,1h40l3.5,0.9c0.1,0,0.2,0,0.2,0c0.2,0,0.4-0.1,0.5-0.1c0.2-0.1,0.4-0.4,0.5-0.6
					l9.3-41.3c0.1-0.3,0-0.6-0.2-0.9C73.9,19.2,73.6,19.1,73.3,19.1L73.3,19.1z"/>
			</g>
			<ellipse class="st1" cx="60.2" cy="28.8" rx="4.6" ry="4.5"/>
			<ellipse class="st1" cx="267.9" cy="28.8" rx="4.6" ry="4.5"/>
		</g>
		<g>
			<g>
				<path class="st0" d="M275.8,254.9c-0.3,0-0.5-0.2-0.5-0.5v-19.4h-14.4c-0.7,0-1.3-0.6-1.3-1.4v-41.3c0-0.2,2.2-18.9,3.1-32.5
					c0.4-5.8,0.3-11,0.2-14.2l0-1.2c0-4.9-0.1-6.8-0.1-6.8c0-0.2,0-0.3,0.1-0.4c-2.1-0.2-3.7-2-3.7-4.1V61.1c0-0.2,0.1-0.4,0.3-0.5
					c0.1-0.1,0.2-0.1,0.3-0.1h1c0.3,0,6.3,2.3,6.4,2.3l0.2,0.1l0.5,0.2l0,0c0.1,0,0.1,0,0.2,0c0.1,0.1,12.7,5.1,24.3,17l1,0.9
					c4.1,4,6.5,7.6,8.7,12.6c2.3,5.2,8.7,28.9,12.1,45.3c2.2,10.3,3.7,19,4.4,23.4c0.3,1.5,0.5,2.9,0.7,4.1l0.3,1.5
					c0.3,1.5,0.5,3,0.7,4.5c1.2,7.8,2.3,15.7,3.4,23.7c0.4,3.3,0.9,7,1.4,11.4c0.5,4.4,1,8.5,1.4,12.5l0.7,10.9l0,23.3
					c0,0.3-0.2,0.5-0.5,0.5H275.8z"/>
				<path d="M260.8,61c0.1,0,5.1,1.8,6.2,2.3c0.2,0.1,0.3,0.1,0.3,0.1s0.2,0.1,0.6,0.2l0.1,0c0,0,12.5,5,24.2,16.9
					c0.6,0.6,1,0.9,1,0.9c3.9,3.8,6.3,7.3,8.6,12.5c2.3,5.1,8.7,28.9,12.1,45.2c1.8,8.7,3.4,17.1,4.4,23.3c0.3,1.5,0.5,2.9,0.7,4.1
					c0.3,2,0.7,4,1,6c1.2,7.9,2.3,15.7,3.4,23.6c0.5,3.8,0.9,7.6,1.4,11.4c0.5,4.2,1,8.3,1.4,12.5l0.7,10.9v8.9v14.4h-50.8v-19.9
					h-14.9c-0.5,0-0.8-0.4-0.8-0.9v-41.3c0,0,2.2-18.7,3.1-32.5c0.4-6.7,0.3-12.7,0.2-15.5c0-4.9-0.1-6.8-0.1-6.8
					c0-0.5,0.4-0.8,0.8-0.9l-0.8-0.1c-2,0-3.6-1.6-3.6-3.6V61.1c0,0,0.1,0,0.1,0V61C259.8,61,260.7,61,260.8,61 M260.8,60h-1
					c-0.2,0-0.5,0.1-0.6,0.2c-0.3,0.2-0.4,0.5-0.4,0.8V133c0,2.2,1.6,4.1,3.6,4.5c0,0,0,0,0,0c0,0,0,1.9,0.1,6.8c0,0.4,0,0.8,0,1.2
					c0,3.1,0.1,8.4-0.2,14.1c-0.8,13.6-3,32.2-3,32.4c0,0,0,0.1,0,0.1v41.3c0,1.1,0.8,1.9,1.8,1.9h13.9v18.9c0,0.6,0.4,1,1,1h50.8
					c0.6,0,1-0.4,1-1V240v-8.9c0,0,0,0,0-0.1l-0.7-10.9c-0.4-4-0.9-8.1-1.4-12.6c-0.5-4.5-0.9-8.1-1.4-11.5
					c-1-7.9-2.2-15.9-3.4-23.7c-0.2-1.5-0.5-3-0.7-4.5l-0.3-1.6c-0.2-1.2-0.4-2.6-0.7-4.1c-0.7-4.3-2.2-13.1-4.4-23.4
					c-3.4-16.4-9.8-40.2-12.1-45.4c-2.2-5.1-4.6-8.7-8.8-12.8l-1-0.9c-11.7-11.9-24-16.9-24.5-17.1c-0.1,0-0.2-0.1-0.3-0.1
					c-0.3-0.1-0.4-0.2-0.4-0.2c0,0,0,0-0.1,0l-0.3-0.1C267.3,62.3,261.4,60,260.8,60L260.8,60z"/>
			</g>
			<path class="st2" d="M326.2,254.9h-49.9c-0.5,0-1-0.4-1-1v-34.2c0.1-7.9,0.7-16.5,1.9-24.3c1.2-8.1,2.4-14.6,3.4-22.2
				c1.7-11.7,2-12,3.4-34.2l-21.2-1.8c-2,0-3.6-1.6-3.6-3.6V61.6"/>
			<polygon class="st3" points="286.8,155.3 286.5,159.4 307.2,161.3 307.6,157.2 			"/>
			
				<rect x="292.9" y="141.1" transform="matrix(9.062970e-002 -0.9959 0.9959 9.062970e-002 119.7818 434.1932)" class="st3" width="9.5" height="20.8"/>
			<circle class="st4" cx="274.7" cy="78.8" r="6.2"/>
			<path class="st2" d="M284.4,189.5c1.2-8.6,3.7-24.5,3.8-25.5c0.1-1,0.8-1.7,1.8-1.7h0l14.8,1.3c1,0,1.8,0.8,1.8,1.8v50.1
				c0,1-0.8,1.8-1.8,1.8h-21.3c-1,0-1.8-0.9-1.8-1.9C281.7,215.4,282.2,205.4,284.4,189.5z"/>
			<path class="st5" d="M321.9,215.4c0,0.1,0,0.2,0,0.3c0,1-0.8,1.8-1.8,1.8h-9.9c-1,0-1.8-0.8-1.8-1.8v-42.8c0-1,0.8-1.8,1.8-1.8
				h3.9c0.9,0,1.7,0.7,1.8,1.6v0L321.9,215.4"/>
			<polyline class="st6" points="307.6,118.7 305,147.4 287.7,145.8 290.3,117.1 307.6,118.7 			"/>
			<polygon class="st3" points="291,108.9 290.3,117.1 302.2,118.2 303,109.9 			"/>
			<g>
				<path class="st0" d="M271.6,126.4c-0.6,0-1.2,0-1.9-0.1c-1.1-0.1-2.2-0.3-3.3-0.6c-3.1-0.8-5.3-3.6-5.2-6.8l0,0
					c0.1-2.2,0.2-4.4,0.4-6.5c0.2-2.1,0.4-4.1,0.7-6.2c0-0.1,0.1-2.3,1.7-4.2c0.7-0.9,2.1-1.9,4.5-1.9l0.2,0c0.5,0,1,0,1.5,0
					c0.6,0,1.2,0,1.9,0.1c1.1,0.1,2.2,0.3,3.3,0.6c3.1,0.8,5.3,3.6,5.2,6.8l0,0c0,1.1-0.1,2.2-0.1,3.3c-0.1,1.1-0.1,2.2-0.2,3.3
					c-0.1,1.1-0.2,2.2-0.3,3.3c-0.1,1.1-0.3,2.2-0.4,3.3l0,0c-0.5,3.2-3,5.6-6.2,5.8l-0.1,0C272.6,126.4,272.1,126.4,271.6,126.4z"
					/>
				<path d="M270.2,100.3c0.6,0,1.2,0,1.8,0.1c1.1,0.1,2.2,0.3,3.2,0.5l0,0c3,0.8,5.1,3.5,5,6.6h0c0,1.1-0.1,2.2-0.1,3.3
					c-0.1,1.1-0.1,2.2-0.2,3.2c-0.1,1.1-0.2,2.2-0.3,3.2c-0.1,1.1-0.3,2.1-0.4,3.2l0,0c-0.5,3-2.9,5.3-5.9,5.6l-0.2,0
					c-0.5,0-1,0-1.4,0c-0.6,0-1.2,0-1.8-0.1c-1.1-0.1-2.2-0.3-3.2-0.5c-3-0.8-5.1-3.5-5-6.6h0c0.1-2.2,0.2-4.4,0.4-6.5
					c0.2-2,0.4-4.1,0.7-6.2l0,0l0,0c0,0,0.1-2.2,1.6-4c0.9-1.1,2.3-1.8,4-1.8v0l0.5,0C269.3,100.3,269.8,100.3,270.2,100.3
					 M270.2,99.8c-0.5,0-1,0-1.5,0.1v0c0,0-0.1,0-0.1,0c0,0-0.1,0-0.1,0c-0.7,0-3,0.1-4.7,2c-1.7,2-1.7,4.3-1.7,4.3
					c-0.3,2.1-0.6,4.1-0.7,6.2c-0.2,2.2-0.3,4.4-0.4,6.6v0c-0.1,3.3,2.2,6.3,5.4,7.1c1.1,0.3,2.2,0.5,3.3,0.6
					c0.6,0.1,1.3,0.1,1.9,0.1c0.5,0,1,0,1.5-0.1l0,0c3.3-0.2,6.1-2.7,6.6-6l0,0c0.2-1.1,0.3-2.2,0.4-3.3c0.1-1.1,0.2-2.2,0.3-3.3
					c0.1-1.1,0.2-2.2,0.2-3.3c0.1-1.1,0.1-2.2,0.1-3.3v0c0.1-3.3-2.2-6.3-5.4-7.1h0c-1.1-0.3-2.2-0.5-3.3-0.6
					C271.5,99.8,270.9,99.8,270.2,99.8L270.2,99.8z"/>
			</g>
			<path class="st3" d="M282.3,249.7c-0.1,0-0.3-0.1-0.3-0.3V229c0-0.1,0.1-0.3,0.3-0.3h34.9c0.1,0,0.3,0.1,0.3,0.3v20.4
				c0,0.1-0.1,0.3-0.3,0.3H282.3z"/>
		</g>
		<g>
			<g>
				<path class="st0" d="M1.2,245.6c-0.3,0-0.5-0.2-0.5-0.5c-0.7-10.7,0.5-23.5,0.6-23.7c0.9-8.8,1.8-16.7,2.8-23.9
					c1-7.9,2.2-15.9,3.4-23.7l0.4-2.6c0.4-2.6,0.8-5.2,1.2-7.7c0-0.1,2.5-13.8,5.3-27c4-18.9,8.1-34.1,11-40.7
					c2.8-6.4,9.3-14.5,9.3-14.6c11.9-12.6,25.2-18.1,25.3-18.2c0.1,0,0.5-0.1,0.7-0.2c0.1,0,6.3-2.4,6.6-2.4h1.1
					c0.3,0,0.5,0.2,0.5,0.5v71.9c0,0.7-0.2,1.3-0.5,1.9c-0.2,1.7-1.4,3.1-3.1,3.5c0,1,0,2.9,0,6l0,1.2c0,3.1-0.1,8.4,0.2,14.2
					c0.6,10.1,2,22.5,2.6,28.5c0.3,2.6,0.4,3.8,0.4,4v32.1c0,0.8-0.6,1.4-1.3,1.4H52.8V245c0,0.2-0.2,0.4-0.4,0.5l-0.5,0.1
					c0,0-0.1,0-0.1,0H1.2z"/>
				<path d="M68.3,61v71.9c0,0.7-0.2,1.3-0.5,1.8c-0.2,1.7-1.4,3-3.1,3.2c0,0.8,0,2.8,0,6.4c0,2.7-0.2,8.8,0.2,15.5
					c0.9,13.8,3.1,31.6,3.1,32.5c0,9.9,0,32.1,0,32.1c0,0.5-0.3,0.9-0.8,0.9H52.3V245l-0.5,0.1H1.2c-0.7-10.8,0.6-23.6,0.6-23.6
					c0.8-8,1.8-15.9,2.8-23.9c1-7.9,2.1-15.8,3.4-23.6c0.5-3.4,1-6.9,1.6-10.3c0-0.1,2.5-13.7,5.3-26.9c4.5-21.4,8.5-35,10.9-40.6
					c2.8-6.4,9.3-14.5,9.3-14.5c11.9-12.6,25.1-18,25.1-18s0.5-0.1,0.7-0.2c0.2-0.1,6.3-2.4,6.4-2.4C67.4,61,68.3,61,68.3,61
					 M68.3,60h-1.1c-0.5,0-6.8,2.4-6.9,2.5c-0.1,0-0.3,0.1-0.5,0.2c0,0-0.1,0-0.1,0c-0.5,0.2-13.5,5.6-25.5,18.3c0,0,0,0-0.1,0.1
					c-0.3,0.3-6.6,8.2-9.4,14.7c-2.9,6.6-7,21.9-11,40.8c-2.8,13.1-5.3,26.9-5.3,27c-0.4,2.5-0.8,5.2-1.2,7.7
					c-0.1,0.9-0.3,1.7-0.4,2.6c-1.2,7.8-2.3,15.7-3.4,23.7c-0.9,7.3-1.8,15.1-2.8,23.9c0,0.1-1.2,13-0.6,23.8c0,0.5,0.5,0.9,1,0.9
					h50.6c0.1,0,0.1,0,0.2,0l0.5-0.1c0.5-0.1,0.8-0.5,0.8-1v-18.8h13.9c1,0,1.8-0.8,1.8-1.9v-32.1c0-0.3-0.1-1.3-0.4-4.1
					c-0.7-6-2-18.4-2.6-28.4c-0.4-5.8-0.3-11-0.2-14.2l0-1.2c0-2.8,0-4.6,0-5.6c1.6-0.6,2.8-2,3.1-3.7c0.3-0.7,0.5-1.4,0.5-2.1V61
					C69.3,60.5,68.9,60,68.3,60L68.3,60z"/>
			</g>
			<path class="st7" d="M9.8,220.4l-7.9,0c0,0.4-0.4,0.8-0.5,1.1c0,0-1.2,13.2-0.6,24h8.9V220.4z"/>
			<path class="st3" d="M28.5,131.5c0,0-0.6,0-1-0.3c-0.4-0.3-0.5-0.9-0.5-0.9l-1.4-16.2c-0.1-0.8-0.1-1-0.1-1.4
				c0-0.2,0-0.5-0.1-0.8c0,0,0-0.7,0.3-1.1c0.3-0.4,0.9-0.5,0.9-0.5h0l7.1-0.6l2.4-0.2c0,0,0.6,0,1,0.3c0.4,0.3,0.5,0.9,0.5,0.9
				l1.2,13.7c0.2,2.4,0.4,4.8,0.4,4.9c0,0,0,0.6-0.3,1c-0.3,0.4-0.9,0.5-0.9,0.5h0L28.5,131.5z"/>
			<circle class="st4" cx="53.4" cy="78.8" r="6.2"/>
			<polyline class="st6" points="24.3,160.8 21.8,132.2 39.1,130.7 41.6,159.2 24.3,160.8 			"/>
			<g>
				<path class="st0" d="M56.2,126.8c-0.6,0-1.1,0-1.7-0.1c-3.2-0.3-5.8-2.7-6.3-5.9h0c-0.2-1.1-0.3-2.2-0.4-3.3
					c-0.1-1.1-0.2-2.2-0.3-3.3c-0.1-1.1-0.2-2.2-0.2-3.3c0-1.1-0.1-2.2-0.1-3.3c0-3.2,2.1-6,5.3-6.8c1.1-0.3,2.2-0.4,3.3-0.5
					c0.5,0,1.1-0.1,1.6-0.1c0.6,0,1.1,0,1.7,0.1c0.1,0,0.2,0,0.5,0c0.8,0,2.4,0.2,4,1.7c1.8,1.7,1.8,4.5,1.8,4.5
					c0.3,2.1,0.5,4.1,0.7,6.2c0.2,2.2,0.3,4.4,0.3,6.5l0,0c0,3.2-2.1,6-5.3,6.8c-1.1,0.3-2.2,0.4-3.3,0.5
					C57.3,126.8,56.7,126.8,56.2,126.8z"/>
				<path d="M57.4,100.7c0.5,0,1.1,0,1.6,0.1l0.1,0l0.1,0c0,0,0.1,0,0.4,0c0.8,0,2.3,0.2,3.8,1.6c1.7,1.6,1.8,4.3,1.8,4.4l0,0l0,0
					c0.3,2,0.5,4.1,0.7,6.2c0.2,2.2,0.3,4.4,0.3,6.5l0,0c0,3.1-2.1,5.8-5.1,6.5c-1.1,0.3-2.2,0.4-3.2,0.5c-0.5,0-1.1,0.1-1.6,0.1
					c-0.5,0-1.1,0-1.6-0.1c-3.1-0.2-5.6-2.6-6-5.7l0,0c-0.2-1.1-0.3-2.2-0.4-3.2c-0.1-1.1-0.2-2.2-0.3-3.2c-0.1-1.1-0.2-2.2-0.2-3.3
					c-0.1-1.1-0.1-2.2-0.1-3.3c0-3.1,2-5.8,5-6.5h0l0.1,0c1.1-0.3,2.2-0.4,3.2-0.5C56.3,100.7,56.9,100.7,57.4,100.7 M57.4,100.2
					c-0.6,0-1.1,0-1.7,0.1c-1.1,0.1-2.2,0.3-3.3,0.5h0c-3.2,0.8-5.5,3.7-5.5,7v0c0,1.1,0,2.2,0.1,3.3v0c0,1.1,0.1,2.2,0.2,3.3
					c0.1,1.1,0.2,2.2,0.3,3.3c0.1,1.1,0.3,2.2,0.4,3.3l0,0c0.5,3.3,3.2,5.8,6.5,6.1h0c0.6,0,1.1,0.1,1.7,0.1c0.6,0,1.1,0,1.7-0.1
					c1.1-0.1,2.2-0.3,3.3-0.5c3.2-0.8,5.5-3.7,5.5-7v0c0-2.2-0.1-4.4-0.3-6.6c-0.2-2.1-0.4-4.1-0.7-6.2c0,0,0-2.9-1.9-4.7
					c-1.6-1.5-3.3-1.7-4.1-1.7c-0.3,0-0.5,0-0.5,0C58.6,100.2,58,100.2,57.4,100.2L57.4,100.2z"/>
			</g>
			<path class="st8" d="M23.9,216.6c-0.7,0-1.3-0.5-1.3-1.2l0-49.6c0-0.7,0.2-1,0.9-1l14.6-1.3c0.7,0,0.8,0.3,0.8,1
				c0.1,0.9,2.6,16.7,3.8,25.2c2.2,15.6,2.7,25.9,2.7,25.9c0,0.5-0.1,1-0.8,1H23.9z"/>
			<path class="st5" d="M6.2,215.4c0,0.1,0,0.2,0,0.3c0,1,0.8,1.8,1.8,1.8h9.9c1,0,1.8-0.8,1.8-1.8v-42.8c0-1-0.8-1.8-1.8-1.8H14
				c-0.9,0-1.7,0.7-1.8,1.6v0L6.2,215.4L6.2,215.4z"/>
			<rect x="9.8" y="220.4" class="st9" width="23.8" height="25.1"/>
			<rect x="33.5" y="220.4" class="st8" width="15" height="20.8"/>
			<path class="st8" d="M44,140.6l1.2,13.2c0,0,1.5,14.8,2,18c0.5,3.2,2.6,17.6,2.6,17.6s1.9,13,2.1,15.1c0.5,6.2,0.8,11.3,0.8,11.3
				s0,8.6,0,9.1c0,0.4-0.1,1.5,1,1.5h13.8c0.5,0,0.8-0.4,0.8-0.9c0,0,0-22.2,0-32.1c0-0.8-2.2-18.7-3.1-32.5
				c-0.4-6.7-0.3-12.7-0.2-15.5c0-4.9,0-6.8,0-6.8c0-0.5-0.4-0.9-0.9-0.9l-19.3,1.7c-0.5,0-0.9,0.4-0.9,0.9L44,140.6z"/>
			
				<rect x="26.9" y="99.7" transform="matrix(-9.100042e-002 -0.9959 0.9959 -9.100042e-002 -71.5515 146.1627)" class="st3" width="8.1" height="12"/>
		</g>
		<g>
			<g>
				<path class="st0" d="M164.9,203c0,0-1,0-1.8-0.2c-0.8-0.2-1.3-0.5-1.3-0.5c-0.1,0-0.2-0.1-0.2-0.3c-1.1-0.2-1.9-0.4-1.9-0.4
					c-0.1,0-0.2-0.1-0.2-0.2v-0.1h-9.7c0,0-2.3,0-3.8,0l-0.6,0c-5.6,0-9.6-1.9-11.7-5.4c-3-5-2.5-13.1-2.5-13.5l0-81.7
					c0-0.1-0.3-2.7,1.8-6.7c2.1-4,2.5-4.8,2.7-8.5l0-26c0-0.1,0.1-0.3,0.3-0.3h56.4c0.1,0,0.3,0.1,0.3,0.3v26
					c0.2,3.7,0.5,4.5,2.7,8.5c2.2,4,1.9,6.7,1.8,6.8l0,81.6c0,0.3,0.5,8.4-2.5,13.4c-2.1,3.5-6.1,5.4-11.7,5.4l-0.6,0
					c-1.4,0-3.3,0-3.7,0c0,0,0,0-0.1,0h-8.1v0.1c0,0.1-0.1,0.2-0.2,0.2c0,0-1.4,0.3-1.9,0.3c-0.1,0.1-0.1,0.2-0.2,0.3
					c0,0-0.6,0.3-1.4,0.5C165.9,203,164.9,203,164.9,203C164.9,203,164.9,203,164.9,203C164.9,203,164.9,203,164.9,203z"/>
				<path d="M192.3,59.6v26c0.2,3.7,0.6,4.6,2.7,8.6c2.1,4,1.8,6.6,1.8,6.6v1.4v80.2c0,0,0.5,8.3-2.4,13.3c-3,5-9.2,5.3-11.5,5.3
					c-0.3,0-0.5,0-0.6,0c-1.5,0-3.8,0-3.8,0v0h-8.3v0.4c0,0-2.1,0.4-2.1,0.4c0,0,0,0,0,0c0,0.2-0.1,0.3-0.1,0.3s-0.5,0.3-1.3,0.5
					c-0.8,0.2-1.7,0.2-1.7,0.2s-1,0-1.7-0.2c-0.8-0.2-1.3-0.5-1.3-0.5s-0.1-0.1-0.1-0.3c-1.2-0.2-2.1-0.4-2.1-0.4v-0.4h-9.9
					c0,0-2.3,0-3.8,0c-0.2,0-0.4,0-0.6,0c-2.3,0-8.5-0.3-11.5-5.3c-3-5-2.5-13.3-2.5-13.3v-80.2v-1.4c0,0-0.3-2.6,1.8-6.6
					c2.1-4,2.5-4.9,2.7-8.6v-26H192.3 M192.3,59.1h-56.4c-0.3,0-0.5,0.2-0.5,0.5v26c-0.2,3.6-0.6,4.4-2.7,8.4
					c-2.1,3.9-1.9,6.5-1.9,6.9v1.4v80.2c0,0.3-0.4,8.5,2.6,13.6c2.1,3.6,6.3,5.5,11.9,5.5l0.4,0l0.2,0c1.5,0,3.8,0,3.8,0h9.4
					c0,0.2,0.2,0.3,0.4,0.4c0,0,0.7,0.2,1.8,0.3c0.1,0.1,0.2,0.2,0.3,0.3c0,0,0.6,0.3,1.4,0.5c0.8,0.2,1.8,0.2,1.9,0.2
					c0.1,0,1.1,0,1.9-0.2c0.8-0.2,1.4-0.5,1.4-0.5c0.1-0.1,0.2-0.2,0.3-0.3c0.6-0.1,1.8-0.3,1.8-0.3c0.2,0,0.3-0.2,0.4-0.4h7.9
					c0,0,0.1,0,0.1,0c0.4,0,2.3,0,3.7,0l0.2,0l0.4,0c5.7,0,9.8-1.9,11.9-5.5c3-5.1,2.5-13.3,2.5-13.6l0-80.2v-1.4
					c0-0.3,0.2-3-1.9-6.9c-2.1-4-2.4-4.8-2.6-8.4l0-25.9C192.8,59.3,192.5,59.1,192.3,59.1L192.3,59.1z"/>
			</g>
			<rect x="131.3" y="102.2" class="st8" width="65.5" height="80.2"/>
			<rect x="149.7" y="182.5" class="st8" width="28.8" height="18.6"/>
			<polygon class="st5" points="165.4,182.5 165.1,182.5 149.7,182.5 149.7,182.5 149.7,201.1 165.4,201.1 			"/>
			<path class="st5" d="M196.8,182.5h-18.3v18.6c0,0,2.3,0,3.8,0c1.5,0,8.8,0.3,12.1-5.3C197.3,190.8,196.8,182.5,196.8,182.5z"/>
			<path class="st5" d="M131.3,182.5h18.4v18.6c0,0-2.3,0-3.8,0c-1.5,0-8.8,0.3-12.1-5.3C130.9,190.8,131.3,182.5,131.3,182.5z"/>
			<path class="st5" d="M196.8,182.5h-18.3v18.6c0,0,2.3,0,3.8,0c1.5,0,8.8,0.3,12.1-5.3C197.3,190.8,196.8,182.5,196.8,182.5z"/>
			<path class="st3" d="M160.8,142.7v-32.7l0,0V142.7c0,0.4-0.5,0.7-0.9,0.7h-6.4v2.8h21.3v-2.8h-13.1
				C161.3,143.4,160.8,143.1,160.8,142.7z"/>
			<rect x="174.8" y="167.9" class="st3" width="22" height="14.6"/>
			<rect x="153.5" y="167.9" class="st3" width="21.3" height="14.6"/>
			<rect x="131.3" y="167.9" class="st3" width="22.2" height="11.5"/>
			<rect x="174.8" y="152.5" class="st3" width="22" height="15.4"/>
			<rect x="174.8" y="141.6" class="st3" width="22" height="10.9"/>
			<rect x="167.9" y="146.2" class="st8" width="6.8" height="21.7"/>
			<rect x="153.5" y="146.2" class="st4" width="14.4" height="21.7"/>
			<rect x="131.3" y="141.6" class="st3" width="22.2" height="10.9"/>
			<rect x="131.3" y="179.4" class="st3" width="22.2" height="3.1"/>
			<path class="st8" d="M131.3,102.2v-1.4c0,0-0.3-2.6,1.8-6.6c2.1-4,2.5-4.9,2.7-8.6v-26h56.4v26c0.2,3.7,0.6,4.6,2.7,8.6
				c2.1,4,1.8,6.6,1.8,6.6v1.4H131.3z"/>
			<rect x="174.8" y="119.9" class="st3" width="22" height="21.7"/>
			<rect x="131.3" y="119.9" class="st3" width="22.2" height="21.7"/>
			<rect x="153.5" y="102.2" class="st3" width="21.3" height="7.8"/>
			<rect x="174.8" y="102.2" class="st3" width="22" height="17.7"/>
			<rect x="131.3" y="102.2" class="st3" width="22.2" height="17.7"/>
			<path class="st5" d="M188.4,98.3c0,0.3-0.2,0.5-0.5,0.5h-47.7c-0.3,0-0.5-0.2-0.5-0.5V60c0-0.2,0.2-0.5,0.5-0.5h47.7
				c0.3,0,0.5,0.2,0.5,0.5V98.3z"/>
			<rect x="140.8" y="60.6" class="st5" width="46.6" height="37.2"/>
			<rect x="131.3" y="152.5" class="st3" width="22.2" height="15.4"/>
		</g>
		<g>
			<g>
				<path class="st0" d="M192.3,61.6c-0.3,0-0.5-0.2-0.5-0.5v-1h-55.4v1c0,0.3-0.2,0.5-0.5,0.5H73.7c-0.3,0-0.5-0.2-0.5-0.5V18.8
					c0-0.2,0.1-0.4,0.3-0.4l10.6-5.2c0.1,0,0.1-0.1,0.2-0.1h159.5c0.1,0,0.2,0,0.2,0.1l10.6,5.2c0.2,0.1,0.3,0.3,0.3,0.4v42.3
					c0,0.3-0.2,0.5-0.5,0.5H192.3z"/>
				<path d="M243.8,13.5l10.6,5.2v42.3h-62.1v-1.5c0,0,0,0-0.4,0c-2.4,0-2,0-55.4,0h-0.1c0,0,0.1,0,0.1,0c0,0-0.1,0-0.6,0
					c0,0.5,0,1.5,0,1.5H73.7V18.8l10.6-5.2H243.8 M243.8,12.5H84.3c-0.2,0-0.3,0-0.4,0.1l-10.6,5.2c-0.3,0.2-0.6,0.5-0.6,0.9v42.3
					c0,0.6,0.4,1,1,1h62.2c0.6,0,1-0.4,1-1v-0.5h54.4v0.5c0,0.6,0.4,1,1,1h62.1c0.6,0,1-0.4,1-1V18.7c0-0.4-0.2-0.7-0.6-0.9
					l-10.6-5.2C244.2,12.6,244,12.5,243.8,12.5L243.8,12.5z"/>
			</g>
			<rect x="127" y="30.1" class="st3" width="12.3" height="12.9"/>
			<path class="st4" d="M139.3,57c0,0.2-0.2,0.4-0.4,0.4h-11.5c-0.2,0-0.4-0.2-0.4-0.4V43.3c0-0.2,0.2-0.4,0.4-0.4h11.5
				c0.2,0,0.4,0.2,0.4,0.4V57z"/>
			<rect x="188.4" y="18.2" class="st3" width="13.2" height="32.7"/>
			<path class="st5" d="M250.2,57c0,0.3-0.2,0.5-0.5,0.5H202c-0.3,0-0.5-0.2-0.5-0.5V18.6c0-0.3,0.2-0.5,0.5-0.5h47.7
				c0.3,0,0.5,0.2,0.5,0.5V57z"/>
			<rect x="202.6" y="19.2" class="st5" width="46.6" height="37.2"/>
			<path class="st5" d="M188.4,57c0,0.3-0.2,0.5-0.5,0.5h-47.7c-0.3,0-0.9-0.2-0.9-0.5V18.6c0-0.3,0.7-0.5,0.9-0.5h47.7
				c0.3,0,0.5,0.2,0.5,0.5V57z"/>
			<rect x="140.3" y="19.2" class="st5" width="47" height="37.2"/>
			<path class="st5" d="M137.8,18.2c0.1,0,0.2,0.1,0.2,0.2v0.3c0,0.3,0.2,0.5,0.5,0.5h0.3c0.1,0,0.4,0.1,0.4,0.2v9.3
				c0,0.1-0.3,0.2-0.4,0.2h-0.3c-0.3,0-0.5,0.2-0.5,0.5v0.3c0,0.1-0.1,0.2-0.2,0.2h-9.3c-0.1,0-0.2-0.1-0.2-0.2v-0.3
				c0-0.3-0.2-0.5-0.5-0.5h-0.3c-0.1,0-0.4-0.1-0.4-0.2v-9.3c0-0.1,0.3-0.2,0.4-0.2h0.3c0.3,0,0.5-0.2,0.5-0.5v-0.3
				c0-0.1,0.1-0.2,0.2-0.2H137.8z"/>
			<path class="st5" d="M127,57c0,0.3-0.7,0.5-0.9,0.5H78.4c-0.2,0-0.5-0.2-0.5-0.5V18.6c0-0.3,0.2-0.5,0.5-0.5h47.7
				c0.3,0,0.9,0.2,0.9,0.5V57z"/>
			<rect x="79" y="19.2" class="st5" width="47" height="37.2"/>
		</g>
		<g>
			<rect x="142.2" y="0.5" class="st3" width="43.7" height="12.3"/>
			<path class="st3" d="M212.4,12.8l4.2,0c0,0,0.2,0,0.6,0c1.2,0,4.4-0.1,8.3-0.6c5-0.7,8.1-2.7,8.7-3.1c0.7-0.5,1.6-1.2,2-1.7
				c0.3-0.3,0.6-0.7,1-1.1l0,0c0.1-0.1,0.1-0.3,0.1-0.4c0-0.1-0.1-0.2-0.3-0.3c-0.4-0.1-7.3-2.1-11-2.9c-3.9-0.9-7.3-1.6-8.4-1.8
				c-1.2-0.2-3.2-0.4-3.9-0.5l-1.2-0.1V12.8L212.4,12.8z"/>
			<path class="st3" d="M115.8,12.8l-4.2,0c0,0-0.2,0-0.6,0c-1.2,0-4.4-0.1-8.3-0.6c-5-0.7-8.1-2.7-8.7-3.1c-0.7-0.5-1.6-1.2-2-1.7
				c-0.3-0.3-0.6-0.7-1-1.1l0,0c-0.1-0.1-0.1-0.3-0.1-0.4c0-0.1,0.1-0.2,0.3-0.3c0.4-0.1,7.3-2.1,11-2.9c3.9-0.9,7.3-1.6,8.4-1.8
				c1.2-0.2,3.2-0.4,3.9-0.5l1.3-0.1V12.8L115.8,12.8z"/>
			<rect x="185.9" y="0.5" class="st3" width="26.5" height="12.3"/>
			<rect x="115.8" y="0.5" class="st3" width="26.4" height="12.3"/>
		</g>
		<path class="st10" d="M237.2,6c0-0.1-0.1-0.2-0.3-0.3c-0.4-0.1-7.3-2.1-11-2.9c-3.9-0.9-7.3-1.6-8.4-1.8c-1.2-0.2-3.2-0.4-3.9-0.5
			l-1.2-0.1h-26.5h-43.7h-26.4l-1.3,0.1c-0.7,0-2.7,0.3-3.9,0.5c-1.1,0.2-4.6,0.9-8.4,1.8c-3.7,0.8-10.6,2.7-11,2.9
			c-0.2,0-0.3,0.2-0.3,0.3c0,0.1,0,0.3,0.1,0.4l0,0c0.3,0.4,0.7,0.8,1,1.1c0.4,0.4,1.3,1.2,2,1.7c0.6,0.4,3.7,2.4,8.7,3.1
			c3.9,0.5,7.1,0.6,8.3,0.6c0.4,0,0.6,0,0.6,0l4.2,0h26.4h43.7h26.5l4.2,0c0,0,0.2,0,0.6,0c1.2,0,4.4-0.1,8.3-0.6
			c5-0.7,8.1-2.7,8.7-3.1c0.7-0.5,1.6-1.2,2-1.7c0.3-0.3,0.6-0.7,1-1.1l0,0C237.2,6.3,237.2,6.1,237.2,6z"/>
	</g>
	<path class="st2" d="M45.3,215.3c0,0-0.2-4.2-0.9-11l-6.3,0c-1,0-1.8,0.8-1.8,1.8l0.9,10.3h7.5C45.5,216.2,45.3,215.3,45.3,215.3z"
		/>
	<path class="st2" d="M281.6,216.1c0,0,0.2-4.2,0.9-11l6.3,0c1,0,1.8,0.8,1.8,1.8l-0.9,10.3h-7.5
		C281.5,217.1,281.6,216.1,281.6,216.1z"/>
</g>
</svg>
