<?xml version="1.0" standalone="no"?><!-- Generator: Gravit.io --><svg xmlns="http://www.w3.org/2000/svg" xmlns:xlink="http://www.w3.org/1999/xlink" style="isolation:isolate" viewBox="0 0 14.116 14.116" width="14.116" height="14.116"><defs><clipPath id="_clipPath_kmBYIUywIu7LBpG7W5VnIMicSkyrjfoE"><rect width="14.116" height="14.116"/></clipPath></defs><g clip-path="url(#_clipPath_kmBYIUywIu7LBpG7W5VnIMicSkyrjfoE)"><path d=" M 7.842 0 L 6.274 0 L 6.274 7.842 L 7.842 7.842 L 7.842 0 Z  M 11.63 1.702 L 10.516 2.815 C 11.803 3.847 12.551 5.409 12.548 7.058 C 12.548 10.093 10.093 12.548 7.058 12.548 C 4.736 12.549 2.665 11.089 1.887 8.901 C 1.108 6.714 1.791 4.273 3.592 2.808 L 2.486 1.702 C 0.908 3.034 -0.001 4.994 0 7.058 C 0 10.956 3.16 14.116 7.058 14.116 C 10.956 14.116 14.116 10.956 14.116 7.058 C 14.116 4.909 13.151 2.996 11.63 1.702 Z " fill="rgb(255,255,255)"/></g></svg>