<?xml version="1.0" encoding="utf-8"?>
<!-- Generator: Adobe Illustrator 18.1.1, SVG Export Plug-In . SVG Version: 6.00 Build 0)  -->
<!DOCTYPE svg PUBLIC "-//W3C//DTD SVG 1.1//EN" "http://www.w3.org/Graphics/SVG/1.1/DTD/svg11.dtd">
<svg version="1.1" id="Layer_1" xmlns="http://www.w3.org/2000/svg" xmlns:xlink="http://www.w3.org/1999/xlink" x="0px" y="0px"
	 width="48.5px" height="61.2px" viewBox="0 0 48.5 61.2" style="enable-background:new 0 0 48.5 61.2;" xml:space="preserve">
<style type="text/css">
	.st0{fill-rule:evenodd;clip-rule:evenodd;fill:#0D0D0D;}
	.st1{fill:url(#SVGID_1_);}
	.st2{fill:url(#SVGID_2_);}
	.st3{fill:#0D0D0D;}
	.st4{fill:url(#SVGID_3_);}
	.st5{fill:url(#SVGID_4_);}
	.st6{fill:url(#SVGID_5_);}
	.st7{fill:#FFFFFF;}
</style>
<g>
	<polygon points="47.8,42.5 47,42.9 46.9,45.5 46.3,46.4 45,46.9 45.2,49.3 44.6,50.2 43.6,50.3 42.6,50.8 42.6,53 42.1,53.6 
		40.9,53.5 39.7,54.1 39.6,55.8 38.6,56.4 37.8,56 36.4,56.5 36,58.3 35.2,58.6 34.3,58.2 33,58.3 32.1,59.8 31.1,60.1 30.2,59.6 
		29.2,59.5 28.3,60.1 27.8,60.9 26.8,61 26.2,60.3 25.1,59.9 24.2,60.3 23.6,61.2 22.5,61.1 21.1,59.7 20,60.1 19.4,60.6 18.1,60.3 
		17.2,58.9 16,58.9 15.1,59.5 14.2,59.1 13.4,57.5 12.4,57.2 11,57.6 10.3,57.1 10,55.2 8.9,54.9 7.8,54.9 7,54.2 7,52.5 5.9,51.8 
		5,51.9 4.1,51.2 4,48.7 2.6,48.5 2.1,47.8 2.1,44.9 1.1,44.6 0.7,43.7 0.8,40.6 0.2,40.3 0,26.3 0.8,25.6 1.1,21.8 2.4,21.2 
		2.3,18.7 2.8,18 4.1,17.4 4.3,15.2 38.5,16.6 45,17 45,19.3 46.5,19.8 47,23.4 47.8,23.8 47.8,27.4 48.3,28.1 48.4,33.4 48.5,38.4 
		48.1,38.7 48.1,41.6 	"/>
	<g>
		<polygon class="st0" points="0.7,34.8 0.7,43.7 1.1,44.7 1.1,35.5 		"/>
		<polygon class="st0" points="2,38.7 2,47.8 2.5,48.4 2.5,39.4 		"/>
		<polygon class="st0" points="4.2,42.1 4.2,51.1 4.7,51.9 4.9,42.6 		"/>
		<polygon class="st0" points="7.1,45.4 7.1,54.5 7.6,55 7.9,46.1 		"/>
		<polygon class="st0" points="10.3,47.9 10.4,57.1 11.1,57.5 11.3,48.4 		"/>
		<polygon class="st0" points="14,49.9 14,59.2 15.1,59.5 15.1,50.4 		"/>
		<polygon class="st0" points="18.3,51.3 18.2,60.5 19.2,60.7 19.2,51.4 		"/>
		<polygon class="st0" points="22.5,52 22.5,61.1 23.6,61.2 23.6,52 		"/>
		<polygon class="st0" points="27,52 27,61.1 27.9,60.9 27.9,51.9 		"/>
		<polygon class="st0" points="31.1,51.1 31.1,60.2 32.1,59.9 32.1,50.8 		"/>
		<polygon class="st0" points="35,49.5 35,58.7 36,58.2 36,49.1 		"/>
		<polygon class="st0" points="38.7,47.3 38.7,56.4 39.5,55.8 39.5,46.8 		"/>
		<polygon class="st0" points="42,44.4 42,53.6 42.7,53 42.6,43.6 		"/>
		<polygon class="st0" points="44.5,41 44.5,50.1 45.1,49.5 45.1,40.4 		"/>
		<polygon class="st0" points="46.5,37.3 46.5,46.7 46.9,45.6 46.9,36.6 		"/>
		<polygon class="st0" points="47.7,33.7 47.7,42.6 48,41.7 47.9,32.5 		"/>
	</g>
	<radialGradient id="SVGID_1_" cx="22.7024" cy="21.4688" r="29.5" gradientUnits="userSpaceOnUse">
		<stop  offset="0.8077" style="stop-color:#212121"/>
		<stop  offset="0.9" style="stop-color:#2E2E2E"/>
		<stop  offset="1" style="stop-color:#0D0D0D"/>
	</radialGradient>
	<polygon class="st1" points="42,12.9 42.7,13.8 42.2,15.6 44.7,16.4 45,17.1 44.1,19.1 46.4,19.9 46.7,20.8 45.5,22.5 47.7,24 
		47.8,25 46.2,26.3 48.2,28.1 48.1,29 46.3,30.3 47.8,32.2 47.7,33.3 45.6,34.1 46.9,36.4 46.5,37.2 44.3,37.6 45,39.9 44.4,40.8 
		42.1,40.9 42.5,43.5 41.9,44.3 39.6,43.8 39.5,46.6 38.7,47.2 36.3,46.2 35.9,48.8 34.9,49.2 32.9,48 32.2,50.7 31.2,50.9 29,49.3 
		27.8,51.6 26.9,51.7 25.1,49.7 23.6,51.8 22.5,51.8 21.1,49.8 19.2,51.2 18.3,51 17.2,48.7 14.9,50 14,49.6 13.5,47.1 11.1,48.1 
		10.3,47.6 10.1,45.2 8,45.8 7.2,45.1 7.5,42.5 4.9,42.5 4.3,41.9 5,39.2 2.7,39.1 2.1,38.4 3.2,35.8 1.1,35.3 0.6,34.5 2,32.1 
		0.1,31.1 0,30.4 1.9,28.3 0.1,27.2 0,26.4 2.3,24.5 0.8,23.2 1.1,21.8 3.3,20.5 2.4,18.9 2.8,18 5,17.3 4.3,15.2 5.1,14.5 
		6.8,14.2 6.7,12.4 	"/>
	<radialGradient id="SVGID_2_" cx="24.1084" cy="27.4375" r="13.5313" gradientUnits="userSpaceOnUse">
		<stop  offset="0.8077" style="stop-color:#212121"/>
		<stop  offset="0.9" style="stop-color:#2E2E2E"/>
		<stop  offset="1" style="stop-color:#0D0D0D"/>
	</radialGradient>
	<ellipse class="st2" cx="24.1" cy="27.4" rx="21.5" ry="21.2"/>
	<polygon points="41.9,30.8 41.8,31.5 40.9,31.6 41,33.7 40.5,34.4 39.3,34.5 39.5,36.4 39,37.2 37.1,37 37.5,39.1 37,39.5 35,39.1 
		35,40.9 34.4,41.5 32.7,40.8 32.3,42.6 31.7,43 30,41.9 29.3,44 28.6,44.2 27.1,42.8 26,44.5 25.4,44.6 24.1,43.1 22.8,44.7 
		22.2,44.6 21.1,42.7 19.6,44.1 18.9,43.9 18.2,41.9 16.6,43.1 15.9,42.8 15.6,40.7 13.8,41.5 13.2,41.2 13.2,39.1 11.4,39.5 
		10.8,39 11.1,37 9.3,37 8.8,36.6 9,34.7 7.7,34.4 7.3,33.8 7.5,31.6 6.6,31.5 6.3,30.8 6.3,28.5 5.8,28.1 6,18.2 6.1,17.8 6.1,15 
		6.8,14.5 6.8,12.6 7,11.9 7.8,11.5 7.9,9.6 40.3,9.6 40.3,11.6 41.3,11.9 41.5,12.6 41.5,14.6 42,15 42.1,17.8 42.3,18.2 42.4,28 
		42,28.4 	"/>
	<g>
		<polygon class="st3" points="6.2,21.6 6.2,30.6 6.4,31.2 6.4,22.1 		"/>
		<polygon class="st3" points="7.2,24.5 7.2,33.7 7.5,34.1 7.5,25 		"/>
		<polygon class="st3" points="8.6,27.2 8.6,36.6 9.1,36.9 9.1,27.7 		"/>
		<polygon class="st3" points="10.7,29.6 10.7,38.8 11.2,39.4 11.2,30.2 		"/>
		<polygon class="st3" points="13.1,31.8 13.1,41 13.7,41.4 13.7,32.2 		"/>
		<polygon class="st3" points="15.9,33.5 15.9,42.6 16.5,43 16.5,33.7 		"/>
		<polygon class="st3" points="18.9,34.7 19,43.8 19.6,44 19.6,34.9 		"/>
		<polygon class="st3" points="22.1,35.3 22.1,44.5 22.8,44.5 22.8,35.4 		"/>
		<polygon class="st3" points="25.5,35.4 25.5,44.6 26.1,44.5 26.1,35.4 		"/>
		<polygon class="st3" points="28.6,34.8 28.6,44.1 29.3,43.9 29.3,34.6 		"/>
		<polygon class="st3" points="31.7,33.7 31.7,42.9 32.4,42.6 32.4,33.3 		"/>
		<polygon class="st3" points="34.5,32.3 34.5,41.4 35.2,40.9 35.2,31.6 		"/>
		<polygon class="st3" points="37,30.3 37,39.3 37.5,38.8 37.5,29.7 		"/>
		<polygon class="st3" points="39,27.9 39,36.9 39.6,36.4 39.6,27.1 		"/>
		<polygon class="st3" points="40.5,25.2 40.5,34.1 41,33.4 41,24.5 		"/>
		<polygon class="st3" points="41.8,22.4 41.8,31.2 42,30.6 42,21.8 		"/>
	</g>
	<radialGradient id="SVGID_3_" cx="23.4522" cy="13.8437" r="19.875" gradientUnits="userSpaceOnUse">
		<stop  offset="0.8077" style="stop-color:#212121"/>
		<stop  offset="0.9" style="stop-color:#2E2E2E"/>
		<stop  offset="1" style="stop-color:#0D0D0D"/>
	</radialGradient>
	<polygon class="st4" points="10,8.6 9.6,6.9 10.1,6.4 11.9,6.1 11.8,4.7 12.4,4.1 14,4.2 14.4,2.7 15.1,2.3 16.7,2.7 17.4,1.3 
		18,1.1 19.6,1.6 20.5,0.3 21.1,0.3 22.5,1.1 23.7,0 24.5,0 25.5,1.1 27,0.2 27.7,0.3 28.6,1.6 30.2,1.1 30.8,1.4 31.5,2.7 
		33.1,2.3 33.8,2.8 34,4.2 35.8,4.1 36.4,4.8 36.4,6.2 38.1,6.4 38.5,7 38.6,8.5 40,9 40.3,9.6 39.5,11.2 41.3,11.9 41.5,12.6 
		40.3,13.8 42,15 42,15.8 40.8,16.8 42.3,18.2 42.2,18.9 40.5,19.5 41.9,21.3 41.8,22 39.9,22.5 41,24.2 40.5,24.9 38.9,25.1 
		39.5,26.9 39,27.7 37.1,27.5 37.5,29.6 37,30 35,29.6 35,31.4 34.4,32 32.7,31.3 32.3,33.1 31.7,33.5 30,32.4 29.3,34.5 28.6,34.7 
		27.1,33.3 26,35 25.4,35.1 24.1,33.6 22.8,35.2 22.2,35.1 21.1,33.2 19.6,34.6 18.9,34.4 18.2,32.4 16.6,33.6 15.9,33.3 15.6,31.2 
		13.8,32 13.2,31.7 13.2,29.6 11.4,30 10.8,29.5 11.1,27.5 9.3,27.5 8.8,27.1 9.4,25.1 7.7,24.9 7.3,24.3 8.2,22.3 6.6,22 6.3,21.3 
		7.5,19.6 6,18.8 6,18.2 7.5,16.5 6.2,15.7 6.2,15 8,13.9 6.8,12.6 7,11.9 8.9,10.9 7.9,9.6 8.3,9.1 	"/>
	
		<radialGradient id="SVGID_4_" cx="23.9932" cy="16.2613" r="15.9165" gradientTransform="matrix(1 0 0 1 -1.000000e-003 -2.000000e-003)" gradientUnits="userSpaceOnUse">
		<stop  offset="0.8077" style="stop-color:#212121"/>
		<stop  offset="0.9" style="stop-color:#2E2E2E"/>
		<stop  offset="1" style="stop-color:#0D0D0D"/>
	</radialGradient>
	<ellipse class="st5" cx="24" cy="16.8" rx="16" ry="15.6"/>
	
		<radialGradient id="SVGID_5_" cx="24.1622" cy="15.687" r="13.9563" gradientTransform="matrix(1 0 0 1 -0.2315 0.499)" gradientUnits="userSpaceOnUse">
		<stop  offset="0.8077" style="stop-color:#212121"/>
		<stop  offset="0.9" style="stop-color:#2E2E2E"/>
		<stop  offset="1" style="stop-color:#0D0D0D"/>
	</radialGradient>
	<ellipse class="st6" cx="23.9" cy="16.2" rx="14.3" ry="13.7"/>
	<g id="Push_Enter_2_">
		<g>
			<path class="st7" d="M18.7,11.2l-3.4-4.3L16,6.3c0.3-0.2,0.5-0.3,0.7-0.4c0.2-0.1,0.4-0.1,0.5-0.1c0.2,0,0.4,0.1,0.6,0.2
				C18,6,18.2,6.2,18.3,6.4c0.3,0.4,0.4,0.8,0.4,1.2c-0.1,0.4-0.3,0.8-0.8,1.1c0,0-0.1,0.1-0.1,0.1c0,0,0,0-0.1,0l1.5,1.9L18.7,11.2
				z M17.3,8.3l0.2-0.2c0.3-0.2,0.4-0.4,0.4-0.6c0-0.2-0.1-0.4-0.3-0.7c-0.2-0.2-0.4-0.4-0.6-0.4c-0.2,0-0.4,0.1-0.7,0.3l-0.2,0.1
				L17.3,8.3z"/>
			<path class="st7" d="M20.7,8L19.9,4l0.7-0.2l0.9,4c0.1,0.3,0.2,0.4,0.3,0.5c0.1,0.1,0.3,0.1,0.6,0.1c0.2-0.1,0.4-0.2,0.5-0.3
				c0.1-0.1,0.1-0.4,0-0.6l-0.9-4l0.7-0.2l0.9,3.9c0.1,0.5,0.1,0.9-0.1,1.2c-0.2,0.3-0.5,0.5-1,0.6C22,9.3,21.6,9.2,21.3,9
				C21,8.8,20.8,8.5,20.7,8z"/>
			<path class="st7" d="M24.6,7.9C24.8,8,24.9,8.2,25,8.2c0.1,0.1,0.3,0.1,0.4,0.2c0.2,0,0.4,0,0.6-0.1c0.2-0.1,0.3-0.3,0.3-0.5
				c0.1-0.3-0.1-0.7-0.5-1.3c0-0.1-0.1-0.1-0.1-0.1c-0.3-0.3-0.4-0.6-0.5-0.9c-0.1-0.3-0.1-0.5,0-0.8c0.1-0.4,0.3-0.7,0.6-0.9
				c0.3-0.2,0.7-0.3,1-0.2c0.2,0,0.3,0.1,0.5,0.2c0.1,0.1,0.3,0.2,0.4,0.3l-0.2,0.7c-0.1-0.1-0.2-0.2-0.4-0.3
				c-0.1-0.1-0.2-0.1-0.4-0.2c-0.2-0.1-0.4,0-0.6,0.1c-0.2,0.1-0.3,0.3-0.3,0.5c-0.1,0.3,0.1,0.7,0.6,1.3c0,0.1,0.1,0.1,0.1,0.1
				c0.3,0.3,0.4,0.6,0.5,0.9c0.1,0.3,0.1,0.5,0,0.8c-0.1,0.4-0.3,0.7-0.6,0.9c-0.3,0.2-0.7,0.3-1.1,0.2C25.2,9.1,25,9,24.9,9
				c-0.1-0.1-0.3-0.2-0.4-0.3L24.6,7.9z"/>
			<path class="st7" d="M27.1,9.5l3.3-4.4L31,5.6l-1.3,1.7L30.8,8l1.3-1.7l0.6,0.4l-3.3,4.4l-0.6-0.4l1.6-2.2l-1.1-0.8L27.7,10
				L27.1,9.5z"/>
		</g>
		<g>
			<g>
				<path class="st7" d="M14.7,24.2l3.2-4.7l1.9,1.3l-0.4,0.6l-1.2-0.9l-1,1.4l1.1,0.8L18,23.3l-1.1-0.8l-1.1,1.6l1.2,0.9l-0.4,0.6
					L14.7,24.2z"/>
				<path class="st7" d="M18.6,26.5l1.5-5.5l0.7,0.2l0.4,4.2l1-3.8l0.7,0.2l-1.5,5.5L20.7,27l-0.4-4.2l-1,3.9L18.6,26.5z"/>
				<path class="st7" d="M24.3,27.4l-0.3-5L23,22.4l0-0.7l2.9-0.2l0,0.7l-1.1,0.1l0.3,5L24.3,27.4z"/>
				<path class="st7" d="M27.9,26.9l-1.9-5.4l2.1-0.8l0.2,0.6l-1.4,0.5l0.6,1.6l1.3-0.5l0.2,0.6l-1.3,0.5l0.6,1.8l1.4-0.5l0.2,0.7
					L27.9,26.9z"/>
				<path class="st7" d="M30.8,22.4l1.7,2.2l-0.6,0.5l-3.5-4.5l0.7-0.6c0.5-0.4,0.9-0.6,1.3-0.5c0.3,0,0.7,0.2,1,0.7
					c0.3,0.3,0.4,0.6,0.4,0.9c0,0.3-0.1,0.6-0.4,0.8l2.8,1.4l-0.7,0.5L30.8,22.4L30.8,22.4z M30.5,22.1l0.2-0.1
					c0.2-0.2,0.4-0.4,0.4-0.6c0-0.2-0.1-0.4-0.3-0.7c-0.2-0.2-0.4-0.4-0.5-0.4c-0.2,0-0.4,0.1-0.7,0.3l-0.2,0.1L30.5,22.1z"/>
			</g>
		</g>
	</g>
</g>
</svg>
