<?xml version="1.0" encoding="utf-8"?>
<!-- Generator: Adobe Illustrator 18.1.1, SVG Export Plug-In . SVG Version: 6.00 Build 0)  -->
<!DOCTYPE svg PUBLIC "-//W3C//DTD SVG 1.1//EN" "http://www.w3.org/Graphics/SVG/1.1/DTD/svg11.dtd">
<svg version="1.1" id="Layer_1" xmlns="http://www.w3.org/2000/svg" xmlns:xlink="http://www.w3.org/1999/xlink" x="0px" y="0px"
	 width="97px" height="127px" viewBox="0 0 97 127" style="enable-background:new 0 0 97 127;" xml:space="preserve">
<style type="text/css">
	.st0{fill:none;stroke:#FFFFFF;stroke-width:1.26;stroke-miterlimit:2.4142001;}
	.st1{fill:url(#SVGID_1_);stroke:#000000;stroke-width:0.576;stroke-linecap:round;stroke-linejoin:round;}
	.st2{fill:url(#SVGID_2_);}
	.st3{fill:none;stroke:#000000;stroke-width:0.599826;stroke-miterlimit:2.4142001;}
	.st4{fill:#262626;stroke:#000000;stroke-width:0.629576;stroke-miterlimit:10;}
	.st5{fill:#2E2E2E;stroke:#000000;stroke-width:0.629576;stroke-miterlimit:10;}
	.st6{fill:none;stroke:#4C4C4C;stroke-width:1.79612;stroke-miterlimit:1;}
	.st7{fill:none;stroke:#666666;stroke-width:1.79612;stroke-miterlimit:1;}
	.st8{fill:none;stroke:#454545;stroke-width:1.79612;stroke-miterlimit:1;}
	.st9{fill:none;stroke:#525252;stroke-width:1.79612;stroke-miterlimit:1;}
	.st10{fill:none;stroke:#000000;stroke-width:0.576;stroke-miterlimit:2.4142001;}
	.st11{fill:url(#SVGID_3_);}
	.st12{fill:#FFFFFF;}
	.st13{font-family:'Futura Md BT', sans-serif;}
	.st14{font-size:12px;}
	.st15{fill:url(#SVGID_4_);stroke:#000000;stroke-width:0.576;stroke-linecap:round;stroke-linejoin:round;}
	.st16{fill:url(#SVGID_5_);}
	.st17{fill:url(#SVGID_6_);}
	.st18{fill:url(#SVGID_7_);stroke:#000000;stroke-width:0.576;stroke-linecap:round;stroke-linejoin:round;}
	.st19{fill:url(#SVGID_8_);}
	.st20{fill:url(#SVGID_9_);}
</style>
<g id="Maintenance_1_">
	<g>
		<circle class="st0" cx="43.0424194" cy="81.9309235" r="39.5"/>
		<line class="st0" x1="43.2712097" y1="36.0559158" x2="43.2712097" y2="42.4309158"/>
		<line class="st0" x1="10.6049376" y1="49.4919128" x2="15.1127377" y2="53.9997253"/>
		<line class="st0" x1="75.4809341" y1="49.4934273" x2="70.9731369" y2="54.0012245"/>
	</g>
	<g>
		<text transform="matrix(1 0 0 1 8.859848 10.3234186)" class="st12 st13 st14">DATA UPLOAD</text>
		<text transform="matrix(1 0 0 1 30.8759613 32.8234253)" class="st12 st13 st14">OFF</text>
		<text transform="matrix(1 0 0 1 76.7436371 47.8234177)" class="st12 st13 st14">B</text>
		<text transform="matrix(1 0 0 1 0.2280273 49.8234177)" class="st12 st13 st14">A</text>
	</g>
	<g id="Off_1_">
		
			<linearGradient id="SVGID_1_" gradientUnits="userSpaceOnUse" x1="-8895.5390625" y1="-269.2284851" x2="-8844.578125" y2="-218.2676697" gradientTransform="matrix(-0.7071075 0.7071063 0.7071061 0.707107 -6056.2719727 6526.2661133)">
			<stop  offset="0" style="stop-color:#404040"/>
			<stop  offset="1" style="stop-color:#191919"/>
		</linearGradient>
		<circle class="st1" cx="43.456543" cy="82.2502289" r="35.882473"/>
		
			<linearGradient id="SVGID_2_" gradientUnits="userSpaceOnUse" x1="-8869.7666016" y1="-279.3363037" x2="-8869.7666016" y2="-198.7667542" gradientTransform="matrix(-0.7071075 0.7071063 0.7071061 0.707107 -6056.2719727 6526.2661133)">
			<stop  offset="0" style="stop-color:#2B2B2B"/>
			<stop  offset="0.0694208" style="stop-color:#393939"/>
			<stop  offset="0.1615544" style="stop-color:#444444"/>
			<stop  offset="0.265" style="stop-color:#474747"/>
			<stop  offset="0.531792" style="stop-color:#2E2E2E"/>
		</linearGradient>
		<path class="st2" d="M25.1217899,51.4184456c-2.5126801,1.4826622-4.8780098,3.3019066-7.0356731,5.459568
			c-2.1548376,2.1548347-3.974081,4.520153-5.4560986,7.0299568l-0.0040522,0.0040512
			c1.1465464-1.8130188,3.0294561,0.1444817,3.593854,1.5484962c0,0,11.6537628,28.3806992,13.1180439,30.3990479
			l26.0279694,26.0279999c1.7234573,1.723465,4.6830215,1.723465,7.7073097,0.5241776
			c3.3483658-1.3317795,7.588562-4.4226074,11.8563004-8.6903305c4.2694473-4.2694473,7.359169-8.508522,8.6908951-11.8568268
			c1.1981735-3.0231705,1.1987-5.9832611-0.5247574-7.7067184L57.0676155,68.1298599
			c-2.0177612-1.4648666-30.3989754-13.118145-30.3989754-13.118145c-1.4046021-0.5638123-3.3621006-2.4467239-1.5479622-3.5943832
			L25.1217899,51.4184456z"/>
		<path class="st3" d="M25.1217899,51.4184456"/>
		<path class="st4" d="M53.3205338,119.9443436c-0.8046761,0.1554565-2.0589867,0.2948227-2.7908325-0.4370193
			L30.7636681,99.7412643c-0.7909279-0.7909317-1.0512791-2.5356445-1.0529823-3.3827209"/>
		<path class="st5" d="M81.0697861,92.195137c0.1548691-0.8040848,0.2936554-2.0578079-0.4381943-2.7896576L60.8655624,69.6394196
			c-0.7909279-0.7909241-2.5355949-1.0513306-3.3838387-1.0518723"/>
		<path class="st6" d="M25.1906204,54.9239731c-0.8087234-0.5608826-1.4459496-1.286438-1.41259-2.1972389"/>
		<path class="st7" d="M56.9298897,68.8123703c-1.9631996-1.4263992-29.5379753-12.7699814-29.5379753-12.7699814
			c-0.6406956-0.257534-1.4872417-0.6234283-2.2012939-1.1184158"/>
		<line class="st6" x1="82.274231" y1="94.1567459" x2="56.9298897" y2="68.8123703"/>
		<path class="st8" d="M82.7904129,101.6436996c1.1614609-2.9347763,1.1597061-5.8110657-0.5161819-7.4869537"/>
		<path class="st8" d="M62.8517303,121.5823517c3.2519913-1.2903748,7.363739-4.2895279,11.5064392-8.4322128
			c4.1427078-4.1427078,7.1418076-8.2543945,8.4322433-11.5064392"/>
		<path class="st8" d="M55.3664207,121.0645142c1.6758842,1.6758881,4.5505257,1.6792908,7.4853096,0.5178375"/>
		<line class="st8" x1="30.0220776" y1="95.7201385" x2="55.3664207" y2="121.0645142"/>
		<path class="st9" d="M13.835001,62.6295776c1.5755701-0.5661125,2.8682957,2.1880798,3.4171944,3.5525131
			c0,0,11.3417816,27.5765533,12.7698822,29.5380478"/>
		<path class="st10" d="M12.6300182,63.9079704l-0.0040522,0.0040512c1.1465464-1.8130188,3.0294561,0.1444817,3.593854,1.5484962
			c0,0,11.6537628,28.3806992,13.1180439,30.3990479l26.0279694,26.0279999
			c1.7234573,1.723465,4.6830215,1.723465,7.7073097,0.5241776c3.3483658-1.3317795,7.588562-4.4226074,11.8563004-8.6903305
			c4.2694473-4.2694473,7.359169-8.508522,8.6908951-11.8568268c1.1981735-3.0231705,1.1987-5.9832611-0.5247574-7.7067184
			L57.0676155,68.1298599c-2.0177612-1.4648666-30.3989754-13.118145-30.3989754-13.118145
			c-1.4046021-0.5638123-3.3621006-2.4467239-1.5479622-3.5943832"/>
		<g>
			<path d="M41.1999245,84.2934113L16.0362968,59.1297455c0.6486835-0.7724838,1.3254395-1.5273514,2.0498199-2.2517319
				c0.7260971-0.7260971,1.4809017-1.4027863,2.2523384-2.0504189l25.1636276,25.163662L41.1999245,84.2934113z"/>
		</g>
		<g>
			
				<linearGradient id="SVGID_3_" gradientUnits="userSpaceOnUse" x1="-8869.7675781" y1="-243.6067505" x2="-8869.7675781" y2="-279.3363037" gradientTransform="matrix(-0.7071075 0.7071063 0.7071061 0.707107 -6056.2719727 6526.2661133)">
				<stop  offset="0.05" style="stop-color:#D9D9D9"/>
				<stop  offset="0.5" style="stop-color:#FFFFFF"/>
				<stop  offset="1" style="stop-color:#F2F2F2"/>
			</linearGradient>
			<path class="st11" d="M42.0711403,83.4221954l-25.1636295-25.163662
				c-0.2018642,0.0780602,0.4650917-0.6670074,1.178606-1.3805199c0.7146454-0.7146454,1.4619961-1.3838806,1.3816528-1.1797333
				l25.1636276,25.1636581L42.0711403,83.4221954z"/>
		</g>
		<path class="st10" d="M78.9913025,87.2535248c1.506691-10.7705383-1.8800735-22.0940857-10.1619949-30.3760223
			c-14.0128212-14.0128365-36.729805-14.0128479-50.7431908,0.0005112
			C4.0721011,70.8920059,4.0709624,93.6100998,18.0837822,107.6229401
			c8.2590179,8.2590256,19.5394554,11.6486282,30.2836761,10.1740265"/>
	</g>
</g>
</svg>
