<?xml version="1.0" encoding="utf-8"?>
<!-- Generator: Adobe Illustrator 18.1.1, SVG Export Plug-In . SVG Version: 6.00 Build 0)  -->
<!DOCTYPE svg PUBLIC "-//W3C//DTD SVG 1.1//EN" "http://www.w3.org/Graphics/SVG/1.1/DTD/svg11.dtd">
<svg version="1.1" id="Layer_1" xmlns="http://www.w3.org/2000/svg" xmlns:xlink="http://www.w3.org/1999/xlink" x="0px" y="0px"
	 width="97px" height="127px" viewBox="0 0 97 127" style="enable-background:new 0 0 97 127;" xml:space="preserve">
<style type="text/css">
	.st0{fill:none;stroke:#FFFFFF;stroke-width:1.26;stroke-miterlimit:2.4142001;}
	.st1{fill:#FFFFFF;}
	.st2{font-family:'Futura Md BT', sans-serif;}
	.st3{font-size:12px;}
	.st4{fill:url(#SVGID_1_);stroke:#000000;stroke-width:0.576;stroke-linecap:round;stroke-linejoin:round;}
	.st5{fill:url(#SVGID_2_);}
	.st6{fill:none;stroke:#000000;stroke-width:0.599826;stroke-miterlimit:2.4142001;}
	.st7{fill:#262626;stroke:#000000;stroke-width:0.629576;stroke-miterlimit:10;}
	.st8{fill:#2E2E2E;stroke:#000000;stroke-width:0.629576;stroke-miterlimit:10;}
	.st9{fill:none;stroke:#4C4C4C;stroke-width:1.79612;stroke-miterlimit:1;}
	.st10{fill:none;stroke:#666666;stroke-width:1.79612;stroke-miterlimit:1;}
	.st11{fill:none;stroke:#454545;stroke-width:1.79612;stroke-miterlimit:1;}
	.st12{fill:none;stroke:#525252;stroke-width:1.79612;stroke-miterlimit:1;}
	.st13{fill:none;stroke:#000000;stroke-width:0.576;stroke-miterlimit:2.4142001;}
	.st14{fill:url(#SVGID_3_);}
	.st15{fill:url(#SVGID_4_);stroke:#000000;stroke-width:0.576;stroke-linecap:round;stroke-linejoin:round;}
	.st16{fill:url(#SVGID_5_);}
	.st17{fill:url(#SVGID_6_);}
	.st18{fill:url(#SVGID_7_);stroke:#000000;stroke-width:0.576;stroke-linecap:round;stroke-linejoin:round;}
	.st19{fill:url(#SVGID_8_);}
	.st20{fill:url(#SVGID_9_);}
</style>
<g id="Maintenance_2_">
	<g>
		<circle class="st0" cx="43.04245" cy="81.9309235" r="39.5"/>
		<line class="st0" x1="43.2712097" y1="36.0559158" x2="43.2712097" y2="42.4309158"/>
		<line class="st0" x1="10.6049376" y1="49.4919128" x2="15.1127377" y2="53.9997253"/>
		<line class="st0" x1="75.4809341" y1="49.4934273" x2="70.9731369" y2="54.0012245"/>
	</g>
	<g>
		<text transform="matrix(1 0 0 1 8.859848 10.3234186)" class="st1 st2 st3">DATA UPLOAD</text>
		<text transform="matrix(1 0 0 1 30.8759613 32.8234253)" class="st1 st2 st3">OFF</text>
		<text transform="matrix(1 0 0 1 76.7436371 47.8234177)" class="st1 st2 st3">B</text>
		<text transform="matrix(1 0 0 1 0.2280273 49.8234177)" class="st1 st2 st3">A</text>
	</g>
	<g id="Off_4_">
		
			<linearGradient id="SVGID_1_" gradientUnits="userSpaceOnUse" x1="-8661.7304688" y1="-269.2284851" x2="-8610.7695313" y2="-218.2676697" gradientTransform="matrix(-1 0 0 1 -8592.4580078 325.6260071)">
			<stop  offset="0" style="stop-color:#404040"/>
			<stop  offset="1" style="stop-color:#191919"/>
		</linearGradient>
		<circle class="st4" cx="43.4990234" cy="82.1701813" r="35.8824654"/>
		
			<linearGradient id="SVGID_2_" gradientUnits="userSpaceOnUse" x1="-8635.9580078" y1="-279.3363037" x2="-8635.9580078" y2="-198.7667542" gradientTransform="matrix(-1 0 0 1 -8592.4580078 325.6260071)">
			<stop  offset="0" style="stop-color:#2B2B2B"/>
			<stop  offset="0.0694208" style="stop-color:#393939"/>
			<stop  offset="0.1615544" style="stop-color:#444444"/>
			<stop  offset="0.265" style="stop-color:#474747"/>
			<stop  offset="0.531792" style="stop-color:#2E2E2E"/>
		</linearGradient>
		<path class="st5" d="M52.3357353,47.404171c-2.8251343-0.7283325-5.7840767-1.1144676-8.8354683-1.1144676
			c-3.0473976,0-6.0063324,0.3861351-8.8289757,1.112896h-0.0057297c2.0927315-0.4712715,2.0399895,2.2443085,1.4462891,3.6361885
			c0,0-11.8277073,28.3086624-12.219492,30.7712479v36.8091507c0,2.4373322,2.0927296,4.5300598,5.0792446,5.8205338
			c3.3093643,1.4259415,8.4931793,2.2386627,14.5286636,2.2386627c6.0379105,0,11.2201462-0.8127213,14.5294266-2.2386627
			c2.9849396-1.2904739,5.0784149-3.3832016,5.0784149-5.8205338V81.8100357
			c-0.3909531-2.4625854-12.2194099-30.7712479-12.2194099-30.7712479c-0.5945282-1.39188-0.6472702-4.10746,1.4470367-3.6361885
			V47.404171z"/>
		<path class="st6" d="M52.3357353,47.404171"/>
		<path class="st7" d="M23.8201809,115.7988663c-0.678915-0.4590683-1.6643982-1.2474518-1.6643982-2.2824326V85.5630112
			c0-1.1185379,1.0496025-2.5363388,1.6473713-3.1365204"/>
		<path class="st8" d="M63.0635071,115.7988663c0.6780853-0.4590683,1.662735-1.2474518,1.662735-2.2824326V85.5630112
			c0-1.1185379-1.0495262-2.5363388-1.6489487-3.1365204"/>
		<path class="st9" d="M49.9056244,49.9316254c-0.175251-0.9684563-0.112793-1.9320908,0.5548286-2.5525322"/>
		<path class="st10" d="M62.5281143,82.1952591c-0.3795738-2.3968048-11.8567772-29.9162445-11.8567772-29.9162445
			c-0.2709351-0.6351433-0.6108093-1.492466-0.7657127-2.3473892"/>
		<line class="st9" x1="62.5281143" y1="118.0376129" x2="62.5281143" y2="82.1952591"/>
		<path class="st11" d="M57.5990372,123.6966858c2.8964844-1.2539291,4.9290771-3.2890167,4.9290771-5.6590729"/>
		<path class="st11" d="M29.4015121,123.6966858c3.211937,1.3870697,8.2401009,2.17379,14.0987549,2.17379
			c5.8586693,0,10.8867531-0.7867203,14.0987701-2.17379"/>
		<path class="st11" d="M24.474762,118.0376129c0,2.3700562,2.0302696,4.4051437,4.9267502,5.6590729"/>
		<line class="st11" x1="24.474762" y1="82.1952591" x2="24.474762" y2="118.0376129"/>
		<path class="st12" d="M36.4273071,47.3506851c1.5143929,0.7137947,0.4809875,3.5753975-0.0956841,4.9283295
			c0,0-11.4796963,27.5194397-11.8568611,29.9162445"/>
		<path class="st13" d="M34.6712914,47.4025993h-0.0057297c2.0927315-0.4712715,2.0399895,2.2443085,1.4462891,3.6361885
			c0,0-11.8277073,28.3086624-12.219492,30.7712479v36.8091507c0,2.4373322,2.0927296,4.5300598,5.0792446,5.8205338
			c3.3093643,1.4259415,8.4931793,2.2386627,14.5286636,2.2386627c6.0379105,0,11.2201462-0.8127213,14.5294266-2.2386627
			c2.9849396-1.2904739,5.0784149-3.3832016,5.0784149-5.8205338V81.8100357
			c-0.3909531-2.4625854-12.2194099-30.7712479-12.2194099-30.7712479c-0.5945282-1.39188-0.6472702-4.10746,1.4470367-3.6361885"/>
		<g>
			<path d="M40.4586067,82.0192642V46.4324799c1.004921-0.0875435,2.017231-0.1427765,3.0416603-0.1427765
				c1.0268555,0,2.0390739,0.055233,3.0425072,0.1427765v35.5867844H40.4586067z"/>
		</g>
		<g>
			
				<linearGradient id="SVGID_3_" gradientUnits="userSpaceOnUse" x1="-8635.9589844" y1="-243.6067505" x2="-8635.9589844" y2="-279.3363037" gradientTransform="matrix(-1 0 0 1 -8592.4580078 325.6260071)">
				<stop  offset="0.05" style="stop-color:#D9D9D9"/>
				<stop  offset="0.5" style="stop-color:#FFFFFF"/>
				<stop  offset="1" style="stop-color:#F2F2F2"/>
			</linearGradient>
			<path class="st14" d="M41.6906891,82.0192642V46.4324799c-0.1979332-0.0875435,0.8005142-0.1427765,1.8095779-0.1427765
				c1.0106583,0,2.0123367,0.055233,1.8111725,0.1427765v35.5867844H41.6906891z"/>
		</g>
		<path class="st13" d="M65.0880432,110.8349075c8.6813049-6.5505371,14.293457-16.9523087,14.293457-28.6647339
			c0-19.8171349-16.0633392-35.8804703-35.8812332-35.8804703c-19.8187923,0-35.8837051,16.0633354-35.8837051,35.8804703
			c0,11.6800308,5.5796704,22.0533142,14.2196865,28.6079178"/>
	</g>
</g>
</svg>
