<svg xmlns="http://www.w3.org/2000/svg" xmlns:xlink="http://www.w3.org/1999/xlink" viewBox="0 0 14.167 14.167"><defs><clipPath id="_clipPath_rUORA1mY0E2fnZI1ZIhwdayCgatnTddi"><rect width="14.167" height="14.167"/></clipPath></defs><g clip-path="url(#_clipPath_rUORA1mY0E2fnZI1ZIhwdayCgatnTddi)"><path d=" M 6.375 10.625 L 7.792 10.625 L 7.792 6.375 L 6.375 6.375 L 6.375 10.625 Z  M 7.083 0 C 3.173 0 0 3.173 0 7.083 C 0 10.993 3.173 14.167 7.083 14.167 C 10.993 14.167 14.167 10.993 14.167 7.083 C 14.167 3.173 10.993 0 7.083 0 Z  M 7.083 12.75 C 3.96 12.75 1.417 10.207 1.417 7.083 C 1.417 3.96 3.96 1.417 7.083 1.417 C 10.207 1.417 12.75 3.96 12.75 7.083 C 12.75 10.207 10.207 12.75 7.083 12.75 Z  M 6.375 4.958 L 7.792 4.958 L 7.792 3.542 L 6.375 3.542 L 6.375 4.958 Z " fill="rgb(255,255,255)"/></g></svg>
