<?xml version="1.0" encoding="utf-8"?>
<!-- Generator: Adobe Illustrator 18.1.1, SVG Export Plug-In . SVG Version: 6.00 Build 0)  -->
<!DOCTYPE svg PUBLIC "-//W3C//DTD SVG 1.1//EN" "http://www.w3.org/Graphics/SVG/1.1/DTD/svg11.dtd">
<svg version="1.1" id="Layer_1" xmlns="http://www.w3.org/2000/svg" xmlns:xlink="http://www.w3.org/1999/xlink" x="0px" y="0px"
	 width="296.6px" height="414.6px" viewBox="0 0 296.6 414.6" style="enable-background:new 0 0 296.6 414.6;" xml:space="preserve"
	>
<style type="text/css">
	.st0{fill-rule:evenodd;clip-rule:evenodd;fill:#7E7D79;stroke:#000000;stroke-width:0.576;stroke-miterlimit:2.4142;}
	.st1{fill-rule:evenodd;clip-rule:evenodd;fill:#73716D;stroke:#000000;stroke-width:0.576;stroke-miterlimit:2.4142;}
	.st2{fill:#5E5C57;stroke:#000000;stroke-width:0.5744;stroke-linecap:round;}
	.st3{fill:#7E7D79;stroke:#000000;stroke-width:0.576;stroke-miterlimit:2.4142;}
	.st4{display:none;}
	.st5{display:inline;opacity:0.3;}
	.st6{display:inline;}
	.st7{fill:#7E7D79;stroke:#000000;stroke-width:0.576;stroke-linecap:round;stroke-linejoin:round;}
	.st8{fill:none;stroke:#AEADAB;stroke-width:0.9843;stroke-linecap:round;stroke-linejoin:round;}
	.st9{fill:none;stroke:#5E5C57;stroke-linecap:round;stroke-linejoin:round;}
	.st10{fill:none;stroke:#8E8D89;stroke-linecap:round;stroke-linejoin:round;}
	.st11{opacity:0.3;}
	.st12{fill:url(#SVGID_1_);stroke:#000000;stroke-width:0.576;stroke-linecap:round;stroke-linejoin:round;}
	.st13{fill:#7E7D79;}
	.st14{fill:url(#SVGID_2_);stroke:#000000;stroke-width:0.576;stroke-linecap:round;stroke-linejoin:round;}
	.st15{fill:url(#SVGID_3_);stroke:#000000;stroke-width:0.576;stroke-linecap:round;stroke-linejoin:round;}
	.st16{fill:url(#SVGID_4_);}
	.st17{fill:none;stroke:#000000;stroke-width:0.576;stroke-linecap:round;stroke-linejoin:round;}
	.st18{fill:url(#SVGID_5_);stroke:#000000;stroke-width:0.576;stroke-linecap:round;stroke-linejoin:round;}
	.st19{fill:url(#SVGID_6_);stroke:#000000;stroke-width:0.576;stroke-linecap:round;stroke-linejoin:round;}
	.st20{fill:none;stroke:#2879B2;stroke-width:0.576;stroke-miterlimit:2.4142;}
	.st21{fill:none;stroke:#2779B3;stroke-width:0.576;stroke-miterlimit:2.4142;}
	.st22{fill:none;stroke:#267AB3;stroke-width:0.576;stroke-miterlimit:2.4142;}
	.st23{fill:none;stroke:#257AB4;stroke-width:0.576;stroke-miterlimit:2.4142;}
	.st24{fill:none;stroke:#247AB4;stroke-width:0.576;stroke-miterlimit:2.4142;}
	.st25{fill:none;stroke:#237AB5;stroke-width:0.576;stroke-miterlimit:2.4142;}
	.st26{fill:none;stroke:#227BB5;stroke-width:0.576;stroke-miterlimit:2.4142;}
	.st27{fill:none;stroke:#217BB6;stroke-width:0.576;stroke-miterlimit:2.4142;}
	.st28{fill:none;stroke:#207BB7;stroke-width:0.576;stroke-miterlimit:2.4142;}
	.st29{fill:none;stroke:#1F7BB7;stroke-width:0.576;stroke-miterlimit:2.4142;}
	.st30{fill:none;stroke:#1E7CB8;stroke-width:0.576;stroke-miterlimit:2.4142;}
	.st31{fill:none;stroke:#1D7CB8;stroke-width:0.576;stroke-miterlimit:2.4142;}
	.st32{fill:none;stroke:#1C7CB9;stroke-width:0.576;stroke-miterlimit:2.4142;}
	.st33{fill:none;stroke:#1B7CBA;stroke-width:0.576;stroke-miterlimit:2.4142;}
	.st34{fill:none;stroke:#1A7DBA;stroke-width:0.576;stroke-miterlimit:2.4142;}
	.st35{fill:none;stroke:#197DBB;stroke-width:0.576;stroke-miterlimit:2.4142;}
	.st36{fill:none;stroke:#187DBC;stroke-width:0.576;stroke-miterlimit:2.4142;}
	.st37{fill:none;stroke:#177EBC;stroke-width:0.576;stroke-miterlimit:2.4142;}
	.st38{fill:none;stroke:#167EBD;stroke-width:0.576;stroke-miterlimit:2.4142;}
	.st39{fill:none;stroke:#157EBE;stroke-width:0.576;stroke-miterlimit:2.4142;}
	.st40{fill:none;stroke:#147EBE;stroke-width:0.576;stroke-miterlimit:2.4142;}
	.st41{fill:none;stroke:#137FBF;stroke-width:0.576;stroke-miterlimit:2.4142;}
	.st42{fill:none;stroke:#127FBF;stroke-width:0.576;stroke-miterlimit:2.4142;}
	.st43{fill:none;stroke:#117FC0;stroke-width:0.576;stroke-miterlimit:2.4142;}
	.st44{fill:none;stroke:#107FC1;stroke-width:0.576;stroke-miterlimit:2.4142;}
	.st45{fill:none;stroke:#0F80C1;stroke-width:0.576;stroke-miterlimit:2.4142;}
	.st46{fill:none;stroke:#0E80C2;stroke-width:0.576;stroke-miterlimit:2.4142;}
	.st47{fill:none;stroke:#0D80C2;stroke-width:0.576;stroke-miterlimit:2.4142;}
	.st48{fill:none;stroke:#0C80C3;stroke-width:0.576;stroke-miterlimit:2.4142;}
	.st49{fill:none;stroke:#0B81C3;stroke-width:0.576;stroke-miterlimit:2.4142;}
	.st50{fill:none;stroke:#0A81C4;stroke-width:0.576;stroke-miterlimit:2.4142;}
	.st51{fill:none;stroke:#107FC0;stroke-width:0.576;stroke-miterlimit:2.4142;}
	.st52{fill:none;stroke:#1A7DBB;stroke-width:0.576;stroke-miterlimit:2.4142;}
	.st53{fill:none;stroke:#1B7DBA;stroke-width:0.576;stroke-miterlimit:2.4142;}
	.st54{fill:none;stroke:#1D7CB9;stroke-width:0.576;stroke-miterlimit:2.4142;}
	.st55{fill:none;stroke:#207BB6;stroke-width:0.576;stroke-miterlimit:2.4142;}
	.st56{fill:none;stroke:#257AB3;stroke-width:0.576;stroke-miterlimit:2.4142;}
	.st57{fill:none;stroke:#2779B2;stroke-width:0.576;stroke-miterlimit:2.4142;}
	.st58{fill:none;stroke:#2979B1;stroke-width:0.576;stroke-miterlimit:2.4142;}
	.st59{fill:none;stroke:#2A79B1;stroke-width:0.576;stroke-miterlimit:2.4142;}
	.st60{fill:none;stroke:#2B78B0;stroke-width:0.576;stroke-miterlimit:2.4142;}
	.st61{fill:none;stroke:#2C78AF;stroke-width:0.576;stroke-miterlimit:2.4142;}
	.st62{fill:none;stroke:#2D78AF;stroke-width:0.576;stroke-miterlimit:2.4142;}
	.st63{fill:none;stroke:#2E78AE;stroke-width:0.576;stroke-miterlimit:2.4142;}
	.st64{fill:none;stroke:#2F77AE;stroke-width:0.576;stroke-miterlimit:2.4142;}
	.st65{fill:none;stroke:#3077AD;stroke-width:0.576;stroke-miterlimit:2.4142;}
	.st66{fill:none;stroke:#3177AC;stroke-width:0.576;stroke-miterlimit:2.4142;}
	.st67{fill:none;stroke:#3277AC;stroke-width:0.576;stroke-miterlimit:2.4142;}
	.st68{fill:none;stroke:#3376AB;stroke-width:0.576;stroke-miterlimit:2.4142;}
	.st69{fill:none;stroke:#000000;stroke-width:0.576;stroke-miterlimit:2.4142;}
	.st70{fill:#999999;stroke:#000000;stroke-width:0.576;stroke-miterlimit:2.4142;}
	.st71{fill:url(#SVGID_7_);stroke:#000000;stroke-width:0.4741;}
	.st72{fill-rule:evenodd;clip-rule:evenodd;fill:#CCCCCC;}
	.st73{fill:url(#SVGID_8_);stroke:#000000;stroke-width:0.576;stroke-linecap:round;stroke-linejoin:round;}
	.st74{fill:url(#SVGID_9_);stroke:#000000;stroke-width:0.576;stroke-linecap:round;stroke-linejoin:round;}
	.st75{fill:url(#SVGID_10_);}
	.st76{fill:url(#SVGID_11_);stroke:#000000;stroke-width:0.576;stroke-linecap:round;stroke-linejoin:round;}
	.st77{fill:url(#SVGID_12_);stroke:#000000;stroke-width:0.576;stroke-linecap:round;stroke-linejoin:round;}
	.st78{stroke:#191919;stroke-width:0.576;stroke-miterlimit:2.4142;}
	.st79{fill:none;stroke:#4C4C4C;stroke-width:0.576;stroke-miterlimit:2.4142;}
	.st80{fill:none;stroke:#808080;stroke-width:0.576;stroke-miterlimit:2.4142;}
	.st81{fill:none;stroke:#595959;stroke-width:0.576;stroke-miterlimit:2.4142;}
	.st82{fill:none;stroke:#737373;stroke-width:0.576;stroke-miterlimit:2.4142;}
	.st83{fill:#6E6C68;stroke:#000000;stroke-width:0.576;stroke-linecap:round;stroke-linejoin:round;}
	.st84{fill:url(#SVGID_13_);stroke:#000000;stroke-width:0.5038;stroke-linecap:round;stroke-linejoin:round;}
	.st85{fill:#191919;stroke:#000000;stroke-width:0.5038;stroke-linecap:round;stroke-linejoin:round;}
	.st86{opacity:0.3;fill:#191919;}
	.st87{fill:none;stroke:#AEADAB;stroke-linecap:round;stroke-linejoin:round;}
	.st88{fill:#969592;stroke:#000000;stroke-width:0.576;stroke-miterlimit:2.4142;}
	.st89{fill-rule:evenodd;clip-rule:evenodd;fill:#868581;stroke:#000000;stroke-width:0.576;stroke-miterlimit:2.4142;}
	.st90{fill-rule:evenodd;clip-rule:evenodd;fill:none;stroke:#000000;stroke-width:0.576;stroke-miterlimit:2.4142;}
	.st91{fill:url(#SVGID_14_);stroke:#000000;stroke-width:0.576;stroke-miterlimit:2.4142;}
	.st92{fill:#B2B2B2;stroke:#000000;stroke-width:0.576;stroke-miterlimit:2.4142;}
	.st93{opacity:0.3;fill-rule:evenodd;clip-rule:evenodd;fill:#175F2E;}
	.st94{filter:url(#Adobe_OpacityMaskFilter);}
	
		.st95{mask:url(#SVGID_15_);fill-rule:evenodd;clip-rule:evenodd;fill:url(#SVGID_16_);stroke:#000000;stroke-width:0.3232;stroke-miterlimit:2.4142;}
	.st96{filter:url(#Adobe_OpacityMaskFilter_1_);}
	.st97{fill-rule:evenodd;clip-rule:evenodd;fill:url(#SVGID_18_);}
	.st98{mask:url(#SVGID_17_);fill-rule:evenodd;clip-rule:evenodd;fill:#FFFFFF;}
	.st99{fill-rule:evenodd;clip-rule:evenodd;fill:#CCCCCC;stroke:#000000;stroke-width:0.4741;}
	.st100{fill-rule:evenodd;clip-rule:evenodd;fill:#191919;stroke:#000000;stroke-width:0.576;}
	.st101{fill-rule:evenodd;clip-rule:evenodd;fill:#B2B2B2;stroke:#000000;stroke-width:0.576;}
	.st102{fill-rule:evenodd;clip-rule:evenodd;fill:#333333;stroke:#000000;stroke-width:0.576;}
	.st103{fill-rule:evenodd;clip-rule:evenodd;fill:url(#SVGID_19_);stroke:#000000;stroke-width:0.4266;}
	.st104{fill-rule:evenodd;clip-rule:evenodd;fill:url(#SVGID_20_);stroke:#000000;stroke-width:0.4266;}
	.st105{fill-rule:evenodd;clip-rule:evenodd;fill:#191919;stroke:#000000;stroke-width:0.5184;}
	.st106{fill:#4C4C4C;}
	.st107{fill:url(#SVGID_21_);}
	.st108{fill:url(#SVGID_22_);}
	.st109{fill:url(#SVGID_23_);}
	.st110{fill:url(#SVGID_24_);}
	.st111{fill:url(#SVGID_25_);}
	.st112{fill:url(#SVGID_26_);}
	.st113{fill:url(#SVGID_27_);}
	.st114{fill:url(#SVGID_28_);}
	.st115{fill:url(#SVGID_29_);}
	.st116{fill:#FF0000;stroke:#000000;stroke-width:0.576;stroke-miterlimit:2.4142;}
</style>
<symbol  id="screw__x28_flathead_x29_" viewBox="-13.8 -13.8 27.6 27.6">
	<path class="st0" d="M13.5,0c0,7.5-6,13.5-13.5,13.5c-7.5,0-13.5-6-13.5-13.5s6-13.5,13.5-13.5C7.5-13.5,13.5-7.5,13.5,0z"/>
	<path class="st1" d="M10.1,0c0,5.6-4.5,10.1-10.1,10.1c-5.6,0-10.1-4.5-10.1-10.1S-5.6-10.1,0-10.1C5.6-10.1,10.1-5.6,10.1,0z"/>
	<path class="st0" d="M-1.7,8.8V-8.8C-5.9-7.9-9-4.3-9,0C-8.9,4.2-6,7.9-1.7,8.8L-1.7,8.8z"/>
	<path class="st0" d="M1.7-8.8C6-7.9,8.9-4.2,8.9,0c0,4.3-3.1,7.9-7.2,8.8V-8.8L1.7-8.8z"/>
</symbol>
<g>
	<rect x="0.3" y="0.3" class="st2" width="296" height="414"/>
	<path class="st3" d="M54.6,14.3c0,8.2-6.7,14.9-14.9,14.9c-8.2,0-14.9-6.7-14.9-14.9V1.7H1.8v411.1h23.1v-12.3
		c0-8.2,6.7-14.9,14.9-14.9c8.2,0,14.9,6.7,14.9,14.9v12.3h186.3v-12.3c0-8.2,6.7-14.9,14.9-14.9c8.2,0,14.9,6.7,14.9,14.9v12.3
		h24.2V1.7h-24.2v12.5c0,8.2-6.7,14.9-14.9,14.9c-8.2,0-14.9-6.7-14.9-14.9V1.7H54.6V14.3z"/>
	
		<use xlink:href="#screw__x28_flathead_x29_"  width="27.6" height="27.6" id="XMLID_48_" x="-13.8" y="-13.8" transform="matrix(4.489700e-011 -1 -1 -4.489700e-011 39.667 14.4689)" style="overflow:visible;"/>
	
		<use xlink:href="#screw__x28_flathead_x29_"  width="27.6" height="27.6" x="-13.8" y="-13.8" transform="matrix(4.489700e-011 -1 -1 -4.489700e-011 255.7588 14.2579)" style="overflow:visible;"/>
	
		<use xlink:href="#screw__x28_flathead_x29_"  width="27.6" height="27.6" id="XMLID_47_" x="-13.8" y="-13.8" transform="matrix(4.489700e-011 -1 -1 -4.489700e-011 39.7315 400.5342)" style="overflow:visible;"/>
	
		<use xlink:href="#screw__x28_flathead_x29_"  width="27.6" height="27.6" id="XMLID_46_" x="-13.8" y="-13.8" transform="matrix(4.489700e-011 -1 -1 -4.489700e-011 255.7666 400.5342)" style="overflow:visible;"/>
	<g id="Door_closed_1_" class="st4">
		<path id="shadow_door_closed_1_" class="st5" d="M123.1,179.6c0,0,4,9.9,8.1,9.9h0.8c-0.7,0.8-1.2,1.9-1.2,3.1v86.4
			c0,3.4,4.9,6.3,4.9,6.3l46.7,34.7c1.3,0.9,2.8,1.4,4.4,1.4h42.1c6.2,0,8.3-3.1,8.3-3.1l35-26.8c0,0,3.4-1.9,3.4-6.7v-92.3
			c0-1.9-1.7-1.5-2.1-2.8c-0.4-1.3,0.2-1.2,2.9-3.8c2.8-2.8,4.1-6.4,4.1-14.2c0-10.3-3.5-15.9-5.9-15.9c-22.9,0-121.7,0-146.3,0
			c-2.8,0-5.1,1.2-5.1,4.1V179.6z"/>
		<g class="st6">
			<path class="st7" d="M150.6,191.5h-27.9l-3.1,1.3l-1.4,3.1v88.3c0,0-0.2,3.4,1.8,4.9c0.1,0.1,44.3,33.8,44.3,33.8
				s2.5,1.9,5.4,1.9c2.1,0,46.8,0,48.6,0c2.9,0,5.4-1.9,5.4-1.9s44.7-33,45.1-33.7c1-1.4,1-3.9,1-3.9V196l-1.4-3.1l-3.1-1.4h-27.9
				l0,0H150.6z"/>
			<path class="st7" d="M118.3,196v88.3c0,0-0.2,3.4,1.8,4.9c0.1,0.1,44.3,33.8,44.3,33.8s2.5,1.9,5.4,1.9"/>
			<path class="st8" d="M119.1,197v86.9c0,0,0,0.1,0,0.3c0,0.8,0.1,3.1,1.6,4.2c0.1,0.1,41.9,31.9,43.6,33.3c0,0,2.4,1.8,5.1,1.8"/>
			<path class="st7" d="M169.8,325c2.1,0,46.8,0,48.6,0c2.9,0,5.4-1.9,5.4-1.9s44.7-33,45.1-33.7c1-1.4,1-3.9,1-3.9V196l-1.4-3.1"/>
			<path class="st9" d="M170.2,324.1h48.2c2.7,0,5.2-1.8,5.2-1.9c15.1-11.2,43.9-32.5,44.7-33.3c0.9-1.3,0.9-3.6,0.9-3.7v-88.7
				l-1.3-3"/>
			<g>
				<polyline class="st10" points="265.4,193 265.4,193 123.1,193 				"/>
			</g>
			<g class="st11">
				<path d="M144.4,196.1c0.5,0.2,1,0.2,1.5,0.2h86.8l0.2-0.2c0.5,0.2,1,0.2,1.5,0.2h28c0.8,0,1.4-0.3,1.9-0.8
					c0.2-0.3,1.7-1.7,3.1-3c-0.6-0.3-1.4-0.5-2.1-0.5H123.1c-2.5,0-4.5,1.9-4.6,4.4h25.7L144.4,196.1z"/>
			</g>
			<g>
				<path class="st11" d="M202,286c-4.4,0-8.3,1.7-11.2,4.6l-7.5,6.2c-2.9,2.8-4.7,6.8-4.7,11.1c0,7.6,5.3,14,12.5,15.6
					c1,0.2,2.1,0.3,3.2,0.3c4.4,0,8.3-1.7,11.2-4.6l7.5-6.2c2.9-2.8,4.7-6.8,4.7-11.1c0-7.6-5.3-14-12.5-15.6
					C204.2,286.1,203.1,286,202,286z"/>
				<g>
					
						<linearGradient id="SVGID_1_" gradientUnits="userSpaceOnUse" x1="-7463.2437" y1="6230.8574" x2="-7440.8931" y2="6253.2075" gradientTransform="matrix(-0.7067 0.7074 -0.7068 -0.7068 -660.1935 9991.4609)">
						<stop  offset="0" style="stop-color:#5E5C57"/>
						<stop  offset="1" style="stop-color:#AEADAB"/>
					</linearGradient>
					<path class="st12" d="M183.1,319.2c-6.2-6.2-6.2-16.2,0-22.4c6.2-6.2,16.2-6.2,22.3,0c6.2,6.2,6.2,16.2,0,22.3
						C199.3,325.3,189.3,325.3,183.1,319.2z"/>
					<circle class="st13" cx="194.3" cy="308" r="14.8"/>
					<g id="XMLID_45_">
						<circle class="st0" cx="194.3" cy="308" r="13.5"/>
						<circle class="st1" cx="194.3" cy="308" r="10.1"/>
					</g>
				</g>
			</g>
		</g>
		<g id="Hinge_door_closed_1_" class="st6">
			
				<linearGradient id="SVGID_2_" gradientUnits="userSpaceOnUse" x1="-6791.6724" y1="-1405.3353" x2="-6822.27" y2="-1405.3353" gradientTransform="matrix(-4.489700e-011 1 -1 -4.489700e-011 -1271.4818 6982.9751)">
				<stop  offset="0" style="stop-color:#7E7D79"/>
				<stop  offset="0.1" style="stop-color:#8E8D89"/>
				<stop  offset="1" style="stop-color:#5E5C57"/>
			</linearGradient>
			<path class="st14" d="M121.2,191.3c-1.5,0-2.7-1.2-2.7-2.7v-25.2c0-1.5,1.2-2.7,2.7-2.7h28v30.6H121.2z"/>
			
				<linearGradient id="SVGID_3_" gradientUnits="userSpaceOnUse" x1="-6791.6724" y1="-1526.2958" x2="-6822.27" y2="-1526.2958" gradientTransform="matrix(-4.489700e-011 1 -1 -4.489700e-011 -1271.4818 6982.9751)">
				<stop  offset="0" style="stop-color:#7E7D79"/>
				<stop  offset="0.1" style="stop-color:#8E8D89"/>
				<stop  offset="1" style="stop-color:#5E5C57"/>
			</linearGradient>
			<path class="st15" d="M239.5,191.3v-30.6h28c1.5,0,2.7,1.2,2.7,2.7v25.2c0,1.5-1.2,2.7-2.7,2.7H239.5z"/>
			
				<linearGradient id="SVGID_4_" gradientUnits="userSpaceOnUse" x1="7181.3716" y1="1995.1323" x2="7220.8208" y2="1995.1323" gradientTransform="matrix(4.489700e-011 -1 1 4.489700e-011 -1800.7993 7381.5264)">
				<stop  offset="5.000000e-002" style="stop-color:#7E7D79"/>
				<stop  offset="0.1244" style="stop-color:#868480"/>
				<stop  offset="0.25" style="stop-color:#8E8D89"/>
				<stop  offset="0.92" style="stop-color:#5E5C57"/>
				<stop  offset="1" style="stop-color:#7E7D79"/>
			</linearGradient>
			<rect x="150.9" y="160.7" class="st16" width="86.8" height="39.4"/>
			<polyline class="st17" points="150.9,200.2 150.9,160.7 237.7,160.7 237.7,200.2 			"/>
			
				<linearGradient id="SVGID_5_" gradientUnits="userSpaceOnUse" x1="-6818.1411" y1="-1510.0951" x2="-6795.7964" y2="-1510.0951" gradientTransform="matrix(-4.489700e-011 1 -1 -4.489700e-011 -1271.4818 6982.9751)">
				<stop  offset="0" style="stop-color:#6E6C68"/>
				<stop  offset="0.1" style="stop-color:#7E7D79"/>
				<stop  offset="1" style="stop-color:#191919"/>
			</linearGradient>
			<rect x="237.7" y="164.8" class="st18" width="1.7" height="22.3"/>
			
				<linearGradient id="SVGID_6_" gradientUnits="userSpaceOnUse" x1="-6818.1411" y1="-1421.5365" x2="-6795.7964" y2="-1421.5365" gradientTransform="matrix(-4.489700e-011 1 -1 -4.489700e-011 -1271.4818 6982.9751)">
				<stop  offset="0" style="stop-color:#6E6C68"/>
				<stop  offset="0.1" style="stop-color:#7E7D79"/>
				<stop  offset="1" style="stop-color:#191919"/>
			</linearGradient>
			<rect x="149.2" y="164.8" class="st19" width="1.7" height="22.3"/>
		</g>
	</g>
	<g id="Door_Opened_3_">
		<g>
			<path class="st11" d="M267,278.2c0,7.2-5.8,13-13,13H136.6c-7.2,0-13-5.8-13-13v-37.3c0-6.3,3.4-12.2,8.8-15.5l34.1-20.4l0,0
				c2.7-1.5,5.8-2.4,8.9-2.4h39.9c3.1,0,6.2,0.8,8.9,2.4l0.3,0.2l33.8,20.2c5.4,3.2,8.8,9.2,8.8,15.5V278.2z"/>
			<g>
				<path class="st20" d="M266,277.2c0,7.2-5.8,13-13,13H135.6c-7.2,0-13-5.8-13-13v-37.3c0-6.3,3.4-12.2,8.8-15.5l34.1-20.4l0,0
					c2.7-1.5,5.8-2.4,8.9-2.4h39.9c3.1,0,6.2,0.8,8.9,2.4l0.3,0.2l33.8,20.2c5.4,3.2,8.8,9.2,8.8,15.5V277.2z"/>
				<path class="st21" d="M122.7,277.2c0,5.9,4,10.9,9.4,12.4c1.1,0.3,2.4,0.5,3.7,0.5h117.2c1.2,0,2.5-0.2,3.6-0.5
					c5.4-1.5,9.4-6.5,9.4-12.4v-37.3c0-6.3-3.3-12.2-8.7-15.4l0,0l-33.8-20.2l-0.3-0.2c-2.4-1.4-5.1-2.2-7.9-2.3c-0.3,0-0.7,0-1.1,0
					h-39.9c-2.8,0-5.6,0.7-8,1.9c0,0,0,0,0,0c-0.3,0.1-0.6,0.3-0.9,0.5l0,0c0,0-34,20.3-34,20.3c-5.4,3.2-8.7,9.1-8.7,15.4V277.2"/>
				<path class="st22" d="M122.8,277.2c0,5.9,4,10.8,9.4,12.3c1.1,0.3,2.5,0.5,3.7,0.5h117c1.2,0,2.6-0.2,3.6-0.5
					c5.4-1.5,9.4-6.4,9.4-12.3v-37.3c0-6.2-3.3-12.1-8.7-15.3l0,0l-33.8-20.2l-0.3-0.2c-2.4-1.4-5.1-2.2-7.8-2.3c-0.3,0-0.7,0-1.1,0
					h-39.8c-2.8,0-5.5,0.7-8,1.9c0,0,0,0,0,0c-0.3,0.1-0.6,0.3-0.9,0.5l0,0c0,0-34,20.3-34,20.3c-5.3,3.2-8.7,9-8.7,15.3V277.2"/>
				<path class="st23" d="M122.9,277.2c0,5.9,4,10.8,9.4,12.2c1.1,0.3,2.5,0.5,3.6,0.5h116.8c1.1,0,2.6-0.2,3.6-0.5
					c5.4-1.4,9.4-6.4,9.4-12.2v-37.3c0-6.2-3.3-12-8.6-15.2l0,0l-33.8-20.2l-0.3-0.2c-2.4-1.4-5.1-2.2-7.8-2.3c-0.3,0-0.7,0-1.1,0
					h-39.8c-2.8,0-5.5,0.7-8,1.9c0,0,0,0,0,0c-0.3,0.1-0.6,0.3-0.9,0.5l0,0c0,0-34,20.3-34,20.3c-5.3,3.2-8.6,9-8.6,15.2V277.2"/>
				<path class="st24" d="M123,277.2c0,5.8,4,10.8,9.4,12.2c1,0.3,2.5,0.5,3.6,0.5h116.6c1.1,0,2.6-0.2,3.6-0.5
					c5.4-1.4,9.4-6.3,9.4-12.2v-37.3c0-6.2-3.3-12-8.6-15.1l0,0l-33.8-20.2l-0.3-0.2c-2.4-1.4-5.1-2.2-7.8-2.3c-0.3,0-0.7,0-1.1,0
					h-39.8c-2.8,0-5.5,0.7-8,1.9c0,0,0,0,0,0c-0.3,0.1-0.6,0.3-0.9,0.5l0,0c0,0-33.9,20.3-33.9,20.3c-5.3,3.2-8.6,8.9-8.6,15.1
					V277.2"/>
				<path class="st25" d="M123.1,277.2c0,5.8,4,10.7,9.4,12.1c1,0.3,2.6,0.4,3.6,0.4h116.3c1.1,0,2.6-0.2,3.6-0.4
					c5.4-1.3,9.5-6.2,9.5-12.1v-37.3c0-6.2-3.3-11.9-8.5-15l0,0l-33.8-20.2l-0.3-0.1c-2.4-1.4-5.1-2.2-7.8-2.3c-0.3,0-0.8,0-1.1,0
					h-39.7c-2.8,0-5.5,0.7-8,1.9c0,0,0,0,0,0c-0.2,0.1-0.6,0.3-0.9,0.5l0,0c0,0-33.9,20.3-33.9,20.3c-5.2,3.1-8.5,8.9-8.5,15V277.2"
					/>
				<path class="st26" d="M123.2,277.2c0,5.8,4,10.7,9.5,12c0.9,0.3,2.6,0.4,3.6,0.4h116.1c1,0,2.7-0.1,3.6-0.4
					c5.4-1.3,9.5-6.2,9.5-12v-37.3c0-6.1-3.3-11.8-8.5-15l0,0l-33.8-20.2l-0.2-0.1c-2.4-1.4-5.1-2.2-7.8-2.3c-0.3,0-0.8,0-1.1,0
					h-39.7c-2.8,0-5.5,0.7-8,1.9c0,0,0,0,0,0c-0.2,0.1-0.6,0.3-0.9,0.5l0,0c0,0-33.8,20.2-33.8,20.2c-5.2,3.1-8.5,8.8-8.5,15V277.2"
					/>
				<path class="st27" d="M123.3,277.2c0,5.8,4.1,10.7,9.5,11.9c0.9,0.3,2.6,0.4,3.6,0.4h115.9c1,0,2.7-0.1,3.6-0.4
					c5.4-1.2,9.5-6.1,9.5-11.9v-37.3c0-6.1-3.3-11.8-8.4-14.9l0,0l-33.8-20.2l-0.2-0.1c-2.4-1.4-5-2.2-7.8-2.3c-0.3,0-0.8,0-1,0
					h-39.7c-2.8,0-5.5,0.7-8,1.9c0,0,0,0,0,0c-0.2,0.1-0.6,0.3-0.9,0.5l0,0c0,0-33.8,20.2-33.8,20.2c-5.2,3.1-8.4,8.8-8.4,14.9
					V277.2"/>
				<path class="st28" d="M123.4,277.2c0,5.8,4.1,10.7,9.5,11.8c0.9,0.3,2.7,0.4,3.6,0.4h115.7c0.9,0,2.7-0.1,3.6-0.4
					c5.4-1.2,9.5-6,9.5-11.8v-37.3c0-6.1-3.3-11.7-8.4-14.8l0,0l-33.8-20.2l-0.2-0.1c-2.4-1.4-5-2.2-7.8-2.3c-0.3,0-0.8,0-1,0h-39.7
					c-2.8,0-5.5,0.7-7.9,2c0,0,0,0,0,0c-0.2,0.1-0.6,0.3-0.9,0.5l0,0c0,0-33.8,20.2-33.8,20.2c-5.1,3.1-8.4,8.7-8.4,14.8V277.2"/>
				<path class="st29" d="M123.4,277.2c0,5.8,4.1,10.6,9.5,11.8c0.8,0.2,2.7,0.4,3.6,0.4H252c0.9,0,2.8-0.1,3.6-0.4
					c5.4-1.1,9.5-6,9.5-11.8v-37.3c0-6.1-3.2-11.7-8.4-14.7l0,0L223,205l-0.2-0.1c-2.4-1.4-5-2.2-7.8-2.3c-0.3,0-0.8,0-1,0h-39.6
					c-2.8,0-5.5,0.7-7.9,2c0,0,0,0,0,0c-0.2,0.1-0.6,0.4-0.9,0.5l0,0c0,0-33.7,20.2-33.7,20.2c-5.1,3.1-8.4,8.7-8.4,14.7V277.2"/>
				<path class="st30" d="M123.5,277.2c0,5.8,4.1,10.6,9.5,11.7c0.8,0.2,2.7,0.4,3.6,0.4h115.2c0.9,0,2.8-0.1,3.6-0.4
					c5.4-1.1,9.6-5.9,9.6-11.7v-37.3c0-6-3.2-11.6-8.3-14.6l0,0L223,205.1l-0.2-0.1c-2.4-1.4-5-2.2-7.8-2.3c-0.2,0-0.8,0-1,0h-39.6
					c-2.8,0-5.5,0.7-7.9,2c0,0,0,0,0,0c-0.2,0.1-0.7,0.4-0.8,0.5l0,0c0,0-33.7,20.1-33.7,20.1c-5.1,3-8.3,8.6-8.3,14.6V277.2"/>
				<path class="st31" d="M123.6,277.2c0,5.8,4.1,10.6,9.6,11.6c0.8,0.2,2.8,0.3,3.6,0.3h115c0.8,0,2.8-0.1,3.6-0.3
					c5.4-1,9.6-5.8,9.6-11.6v-37.3c0-6-3.2-11.5-8.3-14.5l0,0l-33.8-20.2l-0.2-0.1c-2.3-1.4-5-2.1-7.8-2.3c-0.2,0-0.8,0-1,0h-39.6
					c-2.8,0-5.5,0.7-7.9,2c0,0,0,0,0,0c-0.2,0.1-0.7,0.4-0.8,0.5l0,0c0,0-33.7,20.1-33.7,20.1c-5,3-8.3,8.5-8.3,14.5V277.2"/>
				<path class="st32" d="M123.7,277.2c0,5.8,4.2,10.5,9.6,11.5c0.7,0.2,2.8,0.3,3.6,0.3h114.8c0.8,0,2.9-0.1,3.6-0.3
					c5.4-1,9.6-5.8,9.6-11.5v-37.3c0-6-3.2-11.5-8.2-14.5l0,0l-33.8-20.2l-0.2-0.1c-2.3-1.4-5-2.1-7.8-2.2c-0.2,0-0.8,0-1,0h-39.5
					c-2.8,0-5.5,0.7-7.9,2c0,0,0,0,0,0c-0.2,0.1-0.7,0.4-0.8,0.5l0,0c0,0-33.6,20.1-33.6,20.1c-5,3-8.2,8.5-8.2,14.5V277.2"/>
				<path class="st33" d="M123.8,277.2c0,5.7,4.2,10.5,9.6,11.4c0.7,0.2,2.8,0.3,3.6,0.3h114.5c0.7,0,2.9-0.1,3.6-0.3
					c5.5-0.9,9.6-5.7,9.6-11.4v-37.3c0-6-3.2-11.4-8.2-14.4l0,0l-33.8-20.2l-0.2-0.1c-2.3-1.4-5-2.1-7.8-2.2c-0.2,0-0.8,0-1,0h-39.5
					c-2.8,0-5.5,0.7-7.9,2c0,0,0,0,0,0c-0.2,0.1-0.7,0.4-0.8,0.5l0,0c0,0-33.6,20.1-33.6,20.1c-5,3-8.2,8.4-8.2,14.4V277.2"/>
				<path class="st34" d="M123.9,277.2c0,5.7,4.2,10.5,9.6,11.4c0.6,0.2,2.9,0.3,3.6,0.3h114.3c0.7,0,2.9-0.1,3.6-0.3
					c5.5-0.9,9.6-5.6,9.6-11.4v-37.3c0-5.9-3.2-11.3-8.1-14.3l0,0l-33.8-20.2l-0.2-0.1c-2.3-1.4-5-2.1-7.8-2.2c-0.2,0-0.8,0-1,0
					h-39.5c-2.8,0-5.5,0.7-7.9,2c0,0,0,0,0,0c-0.2,0.1-0.7,0.4-0.8,0.5l0,0c0,0-33.6,20.1-33.6,20.1c-4.9,3-8.1,8.4-8.1,14.3V277.2"
					/>
				<path class="st35" d="M124,277.2c0,5.7,4.2,10.5,9.7,11.3c0.6,0.2,2.9,0.3,3.6,0.3h114.1c0.7,0,3-0.1,3.6-0.3
					c5.5-0.8,9.7-5.6,9.7-11.3v-37.3c0-5.9-3.2-11.3-8.1-14.2l0,0l-33.8-20.2l-0.2-0.1c-2.3-1.4-5-2.1-7.8-2.2c-0.2,0-0.9,0-1,0
					h-39.4c-2.8,0-5.5,0.7-7.9,2c0,0,0,0,0,0c-0.2,0.1-0.7,0.4-0.8,0.5l0,0c0,0-33.5,20-33.5,20c-4.9,2.9-8.1,8.3-8.1,14.2V277.2"/>
				<path class="st35" d="M124.1,277.2c0,5.7,4.2,10.4,9.7,11.2c0.6,0.2,2.9,0.3,3.6,0.3h113.9c0.6,0,3-0.1,3.6-0.3
					c5.5-0.8,9.7-5.5,9.7-11.2v-37.3c0-5.9-3.1-11.2-8-14.1l0,0l-33.8-20.2l-0.1-0.1c-2.3-1.4-5-2.1-7.8-2.2c-0.2,0-0.9,0-1,0h-39.4
					c-2.8,0-5.5,0.7-7.9,2c0,0,0,0,0,0c-0.1,0.1-0.7,0.4-0.8,0.5l0,0c0,0-33.5,20-33.5,20c-4.9,2.9-8,8.3-8,14.1V277.2"/>
				<path class="st36" d="M124.2,277.2c0,5.7,4.2,10.4,9.7,11.1c0.5,0.2,3,0.2,3.6,0.2h113.6c0.6,0,3-0.1,3.6-0.2
					c5.5-0.7,9.7-5.4,9.7-11.1v-37.3c0-5.8-3.1-11.2-8-14l0,0l-33.8-20.2l-0.1-0.1c-2.3-1.4-5-2.1-7.8-2.2c-0.2,0-0.9,0-1,0h-39.4
					c-2.8,0-5.5,0.7-7.8,2c0,0,0,0,0,0c-0.1,0.1-0.7,0.4-0.8,0.5l0,0c0,0-33.5,20-33.5,20c-4.8,2.9-8,8.2-8,14V277.2"/>
				<path class="st37" d="M124.3,277.2c0,5.7,4.3,10.4,9.7,11c0.5,0.1,3,0.2,3.5,0.2H251c0.5,0,3.1-0.1,3.5-0.2
					c5.5-0.7,9.7-5.4,9.7-11v-37.3c0-5.8-3.1-11.1-7.9-14l0,0l-33.8-20.2l-0.1-0.1c-2.3-1.4-5-2.1-7.8-2.2c-0.1,0-0.9,0-1,0h-39.3
					c-2.8,0-5.5,0.7-7.8,2c0,0,0,0,0,0c-0.1,0.1-0.7,0.4-0.8,0.5l0,0c0,0-33.4,20-33.4,20c-4.8,2.9-7.9,8.1-7.9,14V277.2"/>
				<path class="st38" d="M124.4,277.2c0,5.7,4.3,10.3,9.7,11c0.5,0.1,3.1,0.2,3.5,0.2h113.2c0.5,0,3.1-0.1,3.5-0.2
					c5.5-0.6,9.7-5.3,9.7-11v-37.3c0-5.8-3.1-11-7.9-13.9l0,0l-33.8-20.2l-0.1-0.1c-2.3-1.4-5-2.1-7.8-2.2c-0.1,0-0.9,0-1,0h-39.3
					c-2.8,0-5.5,0.7-7.8,2c0,0,0,0,0,0c-0.1,0.1-0.7,0.4-0.8,0.5l0,0c0,0-33.4,20-33.4,20c-4.8,2.9-7.9,8.1-7.9,13.9V277.2"/>
				<path class="st39" d="M124.5,277.2c0,5.7,4.3,10.3,9.8,10.9c0.4,0.1,3.1,0.2,3.5,0.2h113c0.4,0,3.1-0.1,3.5-0.2
					c5.5-0.6,9.8-5.2,9.8-10.9v-37.3c0-5.8-3.1-11-7.8-13.8l0,0l-33.8-20.2l-0.1-0.1c-2.3-1.4-5-2.1-7.7-2.2c-0.1,0-0.9,0-1,0h-39.3
					c-2.8,0-5.5,0.7-7.8,2c0,0,0,0,0,0c-0.1,0.1-0.7,0.4-0.8,0.5l0,0c0,0-33.4,19.9-33.4,19.9c-4.7,2.8-7.8,8-7.8,13.8V277.2"/>
				<path class="st40" d="M124.6,277.2c0,5.6,4.3,10.3,9.8,10.8c0.4,0.1,3.1,0.2,3.5,0.2h112.8c0.4,0,3.2-0.1,3.5-0.2
					c5.5-0.5,9.8-5.2,9.8-10.8v-37.3c0-5.7-3.1-10.9-7.8-13.7l0,0L222.4,206l-0.1-0.1c-2.3-1.4-4.9-2.1-7.7-2.2c-0.1,0-0.9,0-1,0
					h-39.2c-2.8,0-5.5,0.7-7.8,2c0,0,0,0,0,0c-0.1,0-0.7,0.4-0.8,0.5l0,0c0,0-33.3,19.9-33.3,19.9c-4.7,2.8-7.8,8-7.8,13.7V277.2"/>
				<path class="st41" d="M124.7,277.2c0,5.6,4.3,10.3,9.8,10.7c0.3,0.1,3.2,0.2,3.5,0.2h112.5c0.4,0,3.2-0.1,3.5-0.2
					c5.5-0.5,9.8-5.1,9.8-10.7v-37.3c0-5.7-3.1-10.8-7.7-13.6l0,0l-33.8-20.2l-0.1-0.1c-2.3-1.4-4.9-2.1-7.7-2.2c-0.1,0-0.9,0-1,0
					h-39.2c-2.8,0-5.5,0.7-7.8,2c0,0,0,0,0,0c-0.1,0-0.7,0.4-0.8,0.5l0,0c0,0-33.3,19.9-33.3,19.9c-4.7,2.8-7.7,7.9-7.7,13.6V277.2"
					/>
				<path class="st42" d="M124.8,277.2c0,5.6,4.3,10.2,9.8,10.6c0.3,0.1,3.2,0.1,3.5,0.1h112.3c0.3,0,3.2,0,3.5-0.1
					c5.5-0.4,9.8-5,9.8-10.6v-37.3c0-5.7-3-10.8-7.7-13.6l0,0l-33.8-20.2l-0.1,0c-2.3-1.3-4.9-2.1-7.7-2.2c-0.1,0-0.9,0-1,0h-39.2
					c-2.8,0-5.5,0.7-7.8,2.1c0,0,0,0,0,0c-0.1,0-0.7,0.4-0.8,0.5l0,0c0,0-33.3,19.9-33.3,19.9c-4.6,2.8-7.7,7.9-7.7,13.6V277.2"/>
				<path class="st43" d="M124.9,277.2c0,5.6,4.4,10.2,9.8,10.6c0.3,0.1,3.2,0.1,3.5,0.1h112.1c0.3,0,3.2,0,3.5-0.1
					c5.5-0.4,9.9-5,9.9-10.6v-37.3c0-5.7-3-10.7-7.6-13.5l0,0l-33.8-20.2l-0.1,0c-2.3-1.3-4.9-2.1-7.7-2.2c-0.1,0-0.9,0-1,0h-39.1
					c-2.8,0-5.5,0.7-7.8,2.1c0,0,0,0,0,0c-0.1,0-0.7,0.4-0.8,0.5l0,0c0,0-33.2,19.9-33.2,19.9c-4.6,2.8-7.6,7.8-7.6,13.5V277.2"/>
				<path class="st44" d="M125,277.2c0,5.6,4.4,10.2,9.9,10.5c0.2,0.1,3.3,0.1,3.5,0.1h111.9c0.2,0,3.3,0,3.5-0.1
					c5.5-0.3,9.9-4.9,9.9-10.5v-37.3c0-5.6-3-10.6-7.6-13.4l0,0l-33.8-20.2l-0.1,0c-2.3-1.3-4.9-2.1-7.7-2.2c-0.1,0-0.9,0-1,0h-39.1
					c-2.8,0-5.5,0.7-7.8,2.1c0,0,0,0,0,0c-0.1,0-0.8,0.4-0.8,0.5l0,0c0,0-33.2,19.8-33.2,19.8c-4.6,2.7-7.6,7.7-7.6,13.4V277.2"/>
				<path class="st45" d="M125.1,277.2c0,5.6,4.4,10.1,9.9,10.4c0.2,0.1,3.3,0.1,3.5,0.1h111.6c0.2,0,3.3,0,3.5-0.1
					c5.5-0.3,9.9-4.8,9.9-10.4v-37.3c0-5.6-3-10.6-7.6-13.3l0,0l-33.8-20.2l-0.1,0c-2.3-1.3-4.9-2.1-7.7-2.1c-0.1,0-1,0-1,0h-39.1
					c-2.8,0-5.5,0.8-7.7,2.1c0,0,0,0,0,0c0,0-0.8,0.4-0.8,0.5l0,0c0,0-33.1,19.8-33.1,19.8c-4.5,2.7-7.6,7.7-7.6,13.3V277.2"/>
				<path class="st46" d="M125.2,277.2c0,5.6,4.4,10.1,9.9,10.3c0.2,0,3.3,0.1,3.5,0.1H250c0.2,0,3.3,0,3.5-0.1
					c5.5-0.2,9.9-4.7,9.9-10.3v-37.3c0-5.6-3-10.5-7.5-13.2l0,0l-33.8-20.2l0,0c-2.3-1.3-4.9-2.1-7.7-2.1c0,0-1,0-1,0h-39
					c-2.8,0-5.5,0.8-7.7,2.1c0,0,0,0,0,0c0,0-0.8,0.5-0.8,0.5l0,0c0,0-33.1,19.8-33.1,19.8c-4.5,2.7-7.5,7.6-7.5,13.2V277.2"/>
				<path class="st47" d="M125.3,277.2c0,5.6,4.4,10.1,9.9,10.2c0.1,0,3.4,0.1,3.5,0.1h111.2c0.1,0,3.4,0,3.5-0.1
					c5.5-0.2,9.9-4.7,9.9-10.2v-37.3c0-5.6-3-10.5-7.5-13.1l0,0l-33.8-20.2l0,0c-2.3-1.3-4.9-2.1-7.7-2.1c0,0-1,0-1,0h-39
					c-2.8,0-5.4,0.8-7.7,2.1c0,0,0,0,0,0c0,0-0.8,0.5-0.8,0.5l0,0c0,0-33.1,19.8-33.1,19.8c-4.5,2.7-7.5,7.6-7.5,13.1V277.2"/>
				<path class="st48" d="M125.4,277.2c0,5.5,4.4,10.1,10,10.2c0.1,0,3.4,0,3.5,0h111c0.1,0,3.4,0,3.5,0c5.5-0.1,10-4.6,10-10.2
					v-37.3c0-5.5-3-10.4-7.4-13.1l0,0L222,206.7l0,0c-2.3-1.3-4.9-2.1-7.7-2.1c0,0-1,0-1,0h-39c-2.8,0-5.4,0.8-7.7,2.1c0,0,0,0,0,0
					c0,0-0.8,0.5-0.8,0.5l0,0c0,0-33,19.7-33,19.7c-4.4,2.7-7.4,7.5-7.4,13.1V277.2"/>
				<path class="st49" d="M125.5,277.2c0,5.5,4.5,10,10,10.1c0,0,3.4,0,3.5,0h110.7c0,0,3.4,0,3.5,0c5.5-0.1,10-4.5,10-10.1v-37.3
					c0-5.5-2.9-10.3-7.4-13l0,0L222,206.8l0,0c-2.3-1.3-4.9-2.1-7.7-2.1c0,0-1,0-1,0h-38.9c-2.8,0-5.4,0.8-7.7,2.1c0,0,0,0,0,0
					c0,0-0.8,0.5-0.8,0.5l0,0c0,0-33,19.7-33,19.7c-4.4,2.6-7.4,7.5-7.4,13V277.2"/>
				<path class="st50" d="M125.6,277.2c0,5.5,4.5,10,10,10H253c5.5,0,10-4.5,10-10v-37.3c0-5.5-2.9-10.3-7.3-12.9l0,0l-33.8-20.2
					l0,0c-2.2-1.3-4.9-2.1-7.7-2.1h-39.9c-2.8,0-5.4,0.8-7.7,2.1l0,0L132.9,227l0,0c-4.4,2.6-7.3,7.4-7.3,12.9V277.2"/>
				<path class="st49" d="M125.6,277.2c0,4.1,2.5,7.7,6.2,9.2c1.2,0.5,2.5,0.8,3.9,0.8h117.3c1.3,0,2.7-0.3,3.8-0.7
					c3.6-1.5,6.2-5,6.2-9.2v-37.3c0-5.4-2.9-10.2-7.3-12.8l0,0l-33.8-20.2c0,0,0,0,0,0c-1.9-1.1-4-1.8-6.2-2c-0.5,0-1-0.1-1.4-0.1
					h-39.9c-2.3,0-4.5,0.5-6.5,1.5c-0.4,0.2-0.8,0.4-1.2,0.6l0,0c0,0-33.7,20.2-33.7,20.2c0,0,0,0,0,0c-4.4,2.6-7.3,7.4-7.3,12.8
					V277.2"/>
				<path class="st48" d="M125.7,277.2c0,4.1,2.6,7.7,6.2,9.1c1.1,0.5,2.6,0.7,3.9,0.7h117.1c1.3,0,2.7-0.3,3.8-0.7
					c3.6-1.4,6.2-5,6.2-9.1v-37.3c0-5.4-2.9-10.2-7.2-12.8l0,0L221.9,207c0,0,0,0,0,0c-1.9-1.1-4-1.8-6.2-2c-0.5,0-1-0.1-1.4-0.1
					h-39.8c-2.3,0-4.5,0.5-6.5,1.5c-0.4,0.2-0.8,0.4-1.2,0.6l0,0c0,0-33.7,20.2-33.7,20.2c0,0,0,0,0,0c-4.3,2.6-7.2,7.3-7.2,12.8
					V277.2"/>
				<path class="st47" d="M125.8,277.2c0,4.1,2.6,7.7,6.2,9.1c1.1,0.5,2.6,0.7,3.9,0.7h116.9c1.3,0,2.7-0.3,3.8-0.7
					c3.6-1.4,6.2-4.9,6.2-9.1v-37.3c0-5.4-2.9-10.1-7.2-12.7l0,0L221.8,207c0,0,0,0,0,0c-1.9-1.1-4-1.8-6.2-2c-0.4,0-1-0.1-1.4-0.1
					h-39.8c-2.3,0-4.5,0.5-6.5,1.5c-0.4,0.2-0.8,0.4-1.2,0.6l0,0c0,0-33.7,20.1-33.7,20.1c0,0,0,0,0,0c-4.3,2.6-7.2,7.3-7.2,12.7
					V277.2"/>
				<path class="st46" d="M125.9,277.2c0,4.1,2.6,7.6,6.2,9c1.1,0.5,2.6,0.7,3.9,0.7h116.8c1.2,0,2.8-0.2,3.8-0.7
					c3.6-1.4,6.2-4.9,6.2-9v-37.3c0-5.4-2.9-10.1-7.2-12.6l0,0l-33.8-20.2c0,0,0,0,0,0c-1.9-1.1-4-1.8-6.2-2c-0.4,0-1-0.1-1.4-0.1
					h-39.8c-2.3,0-4.5,0.5-6.5,1.5c-0.4,0.2-0.8,0.4-1.2,0.6l0,0c0,0-33.7,20.1-33.7,20.1c0,0,0,0,0,0c-4.3,2.6-7.2,7.3-7.2,12.6
					V277.2"/>
				<path class="st45" d="M125.9,277.2c0,4.1,2.6,7.6,6.2,9c1,0.4,2.6,0.7,3.8,0.7h116.6c1.2,0,2.8-0.2,3.8-0.7
					c3.6-1.3,6.3-4.8,6.3-9v-37.3c0-5.3-2.8-10-7.1-12.6l0,0l-33.8-20.2c0,0,0,0,0,0c-1.9-1.1-4-1.8-6.2-2c-0.4,0-1-0.1-1.4-0.1
					h-39.7c-2.3,0-4.5,0.5-6.4,1.5c-0.4,0.2-0.8,0.4-1.2,0.6l0,0c0,0-33.6,20.1-33.6,20.1c0,0,0,0,0,0c-4.3,2.6-7.1,7.2-7.1,12.6
					V277.2"/>
				<path class="st51" d="M126,277.2c0,4.1,2.6,7.6,6.3,8.9c1,0.4,2.7,0.7,3.8,0.7h116.4c1.2,0,2.8-0.2,3.8-0.7
					c3.7-1.3,6.3-4.8,6.3-8.9v-37.3c0-5.3-2.8-10-7.1-12.5l0,0l-33.8-20.2c0,0,0,0,0,0c-1.9-1.1-4-1.8-6.2-2c-0.4,0-1-0.1-1.4-0.1
					h-39.7c-2.3,0-4.5,0.5-6.4,1.5c-0.3,0.2-0.8,0.4-1.2,0.6l0,0c0,0-33.6,20.1-33.6,20.1c0,0,0,0,0,0c-4.3,2.6-7.1,7.2-7.1,12.5
					V277.2"/>
				<path class="st43" d="M126.1,277.2c0,4.1,2.6,7.6,6.3,8.9c1,0.4,2.7,0.6,3.8,0.6h116.2c1.1,0,2.8-0.2,3.8-0.6
					c3.7-1.3,6.3-4.8,6.3-8.9v-37.3c0-5.3-2.8-9.9-7.1-12.5l0,0l-33.8-20.2c0,0,0,0,0,0c-1.9-1.1-4-1.8-6.2-2c-0.4,0-1-0.1-1.4-0.1
					h-39.7c-2.3,0-4.5,0.5-6.4,1.5c-0.3,0.2-0.9,0.5-1.2,0.6l0,0c0,0-33.6,20.1-33.6,20.1c0,0,0,0,0,0c-4.3,2.5-7.1,7.2-7.1,12.5
					V277.2"/>
				<path class="st42" d="M126.1,277.2c0,4.1,2.6,7.6,6.3,8.8c1,0.4,2.7,0.6,3.8,0.6h116c1.1,0,2.9-0.2,3.8-0.6
					c3.7-1.2,6.3-4.7,6.3-8.8v-37.3c0-5.2-2.8-9.9-7-12.4l0,0l-33.8-20.2c0,0,0,0,0,0c-1.9-1.1-4-1.8-6.2-2c-0.4,0-1-0.1-1.4-0.1
					h-39.7c-2.3,0-4.5,0.5-6.4,1.5c-0.3,0.2-0.9,0.5-1.2,0.6l0,0c0,0-33.6,20.1-33.6,20.1c0,0,0,0,0,0c-4.2,2.5-7,7.1-7,12.4V277.2"
					/>
				<path class="st41" d="M126.2,277.2c0,4.1,2.7,7.6,6.3,8.7c0.9,0.4,2.8,0.6,3.8,0.6h115.9c1.1,0,2.9-0.2,3.8-0.6
					c3.7-1.2,6.3-4.7,6.3-8.8v-37.3c0-5.2-2.8-9.8-7-12.3l0,0l-33.8-20.2c0,0,0,0,0,0c-1.9-1.1-4-1.8-6.2-2c-0.4,0-1-0.1-1.4-0.1
					h-39.6c-2.3,0-4.5,0.5-6.4,1.5c-0.3,0.2-0.9,0.5-1.2,0.6l0,0c0,0-33.5,20-33.5,20c0,0,0,0,0,0c-4.2,2.5-7,7.1-7,12.3V277.2"/>
				<path class="st40" d="M126.3,277.2c0,4.1,2.7,7.5,6.3,8.7c0.9,0.4,2.8,0.6,3.8,0.6h115.7c1,0,2.9-0.2,3.8-0.6
					c3.7-1.1,6.4-4.6,6.4-8.7v-37.3c0-5.2-2.8-9.8-7-12.3l0,0l-33.8-20.2c0,0,0,0,0,0c-1.9-1.1-4-1.8-6.2-2c-0.4,0-1.1-0.1-1.4-0.1
					h-39.6c-2.3,0-4.5,0.5-6.4,1.5c-0.3,0.1-0.9,0.5-1.2,0.6l0,0c0,0-33.5,20-33.5,20c0,0,0,0,0,0c-4.2,2.5-7,7.1-7,12.3V277.2"/>
				<path class="st39" d="M126.4,277.2c0,4.1,2.7,7.5,6.4,8.6c0.9,0.4,2.8,0.6,3.8,0.6h115.5c1,0,2.9-0.2,3.8-0.6
					c3.7-1.1,6.4-4.6,6.4-8.7v-37.3c0-5.2-2.7-9.7-6.9-12.2l0,0l-33.8-20.2c0,0,0,0,0,0c-1.9-1.1-4-1.8-6.2-2
					c-0.3,0-1.1-0.1-1.4-0.1h-39.6c-2.3,0-4.5,0.5-6.4,1.5c-0.3,0.1-0.9,0.5-1.2,0.6l0,0c0,0-33.5,20-33.5,20c0,0,0,0,0,0
					c-4.2,2.5-6.9,7.1-6.9,12.2V277.2"/>
				<path class="st38" d="M126.4,277.2c0,4.1,2.7,7.5,6.4,8.6c0.9,0.4,2.8,0.6,3.8,0.6H252c1,0,2.9-0.2,3.8-0.5
					c3.7-1.1,6.4-4.5,6.4-8.6v-37.3c0-5.1-2.7-9.7-6.9-12.2l0,0l-33.8-20.2c0,0,0,0,0,0c-1.9-1.1-4-1.8-6.2-1.9c-0.3,0-1.1,0-1.4,0
					h-39.5c-2.3,0-4.5,0.5-6.4,1.5c-0.3,0.1-0.9,0.5-1.2,0.6l0,0c0,0-33.5,20-33.5,20c0,0,0,0,0,0c-4.2,2.5-6.9,7-6.9,12.2V277.2"/>
				<path class="st37" d="M126.5,277.2c0,4.1,2.7,7.5,6.4,8.5c0.8,0.3,2.9,0.5,3.8,0.5h115.2c0.9,0,3-0.2,3.8-0.5
					c3.7-1,6.4-4.5,6.4-8.5v-37.3c0-5.1-2.7-9.6-6.9-12.1l0,0l-33.8-20.2c0,0,0,0,0,0c-1.9-1.1-4-1.8-6.2-1.9c-0.3,0-1.1,0-1.4,0
					h-39.5c-2.3,0-4.5,0.5-6.4,1.5c-0.3,0.1-0.9,0.5-1.2,0.6l0,0c0,0-33.4,20-33.4,20c0,0,0,0,0,0c-4.2,2.5-6.9,7-6.9,12.1V277.2"/>
				<path class="st36" d="M126.6,277.2c0,4.1,2.7,7.5,6.4,8.5c0.8,0.3,2.9,0.5,3.8,0.5h115c0.9,0,3-0.2,3.8-0.5
					c3.7-1,6.4-4.4,6.4-8.5v-37.3c0-5.1-2.7-9.6-6.8-12l0,0l-33.8-20.2c0,0,0,0,0,0c-1.9-1.1-4-1.8-6.2-1.9c-0.3,0-1.1,0-1.4,0
					h-39.5c-2.3,0-4.4,0.5-6.4,1.5c-0.3,0.1-0.9,0.5-1.2,0.6l0,0c0,0-33.4,20-33.4,20c0,0,0,0,0,0c-4.1,2.5-6.8,7-6.8,12V277.2"/>
				<path class="st35" d="M126.6,277.2c0,4,2.7,7.5,6.4,8.4c0.8,0.3,2.9,0.5,3.8,0.5h114.8c0.9,0,3-0.2,3.8-0.5
					c3.7-1,6.5-4.4,6.5-8.4v-37.3c0-5-2.7-9.5-6.8-12l0,0l-33.8-20.2c0,0,0,0,0,0c-1.9-1.1-4-1.8-6.2-1.9c-0.3,0-1.1,0-1.4,0h-39.4
					c-2.3,0-4.4,0.5-6.4,1.5c-0.3,0.1-0.9,0.5-1.2,0.6l0,0c0,0-33.4,19.9-33.4,19.9c0,0,0,0,0,0c-4.1,2.5-6.8,6.9-6.8,12V277.2"/>
				<path class="st52" d="M126.7,277.2c0,4,2.8,7.4,6.5,8.4c0.7,0.3,3,0.5,3.8,0.5h114.6c0.8,0,3-0.2,3.8-0.5
					c3.7-0.9,6.5-4.3,6.5-8.4v-37.3c0-5-2.7-9.5-6.8-11.9l0,0l-33.8-20.2c0,0,0,0,0,0c-1.9-1.1-4-1.8-6.2-1.9c-0.3,0-1.1,0-1.4,0
					h-39.4c-2.3,0-4.4,0.5-6.4,1.6c-0.3,0.1-0.9,0.5-1.2,0.6l0,0c0,0-33.4,19.9-33.4,19.9c0,0,0,0,0,0c-4.1,2.5-6.8,6.9-6.8,11.9
					V277.2"/>
				<path class="st53" d="M126.8,277.2c0,4,2.8,7.4,6.5,8.3c0.7,0.3,3,0.5,3.8,0.5h114.5c0.8,0,3.1-0.2,3.8-0.5
					c3.7-0.9,6.5-4.3,6.5-8.3v-37.3c0-5-2.6-9.4-6.7-11.8l0,0l-33.8-20.2c0,0,0,0,0,0c-1.9-1.1-4-1.8-6.2-1.9c-0.3,0-1.1,0-1.4,0
					h-39.4c-2.3,0-4.4,0.6-6.3,1.6c-0.2,0.1-0.9,0.5-1.2,0.6l0,0c0,0-33.3,19.9-33.3,19.9c0,0,0,0,0,0c-4.1,2.4-6.7,6.9-6.7,11.8
					V277.2"/>
				<path class="st32" d="M126.9,277.2c0,4,2.8,7.4,6.5,8.3c0.7,0.3,3,0.4,3.8,0.4h114.3c0.8,0,3.1-0.2,3.8-0.4
					c3.7-0.9,6.5-4.2,6.5-8.3v-37.3c0-5-2.6-9.3-6.7-11.8l0,0l-33.8-20.2c0,0,0,0,0,0c-1.9-1.1-4-1.8-6.2-1.9c-0.3,0-1.1,0-1.4,0
					h-39.3c-2.3,0-4.4,0.6-6.3,1.6c-0.2,0.1-0.9,0.5-1.2,0.6l0,0c0,0-33.3,19.9-33.3,19.9c0,0,0,0,0,0c-4.1,2.4-6.7,6.8-6.7,11.8
					V277.2"/>
				<path class="st54" d="M126.9,277.2c0,4,2.8,7.4,6.5,8.2c0.7,0.3,3,0.4,3.8,0.4h114.1c0.7,0,3.1-0.1,3.8-0.4
					c3.7-0.8,6.5-4.2,6.5-8.2v-37.3c0-4.9-2.6-9.3-6.7-11.7l0,0L221.2,208c0,0,0,0,0,0c-1.9-1.1-4-1.8-6.2-1.9c-0.3,0-1.1,0-1.4,0
					h-39.3c-2.3,0-4.4,0.6-6.3,1.6c-0.2,0.1-0.9,0.5-1.1,0.6l0,0c0,0-33.3,19.9-33.3,19.9c0,0,0,0,0,0c-4.1,2.4-6.7,6.8-6.7,11.7
					V277.2"/>
				<path class="st30" d="M127,277.2c0,4,2.8,7.4,6.5,8.2c0.6,0.3,3.1,0.4,3.8,0.4h113.9c0.7,0,3.1-0.1,3.8-0.4
					c3.7-0.8,6.6-4.2,6.6-8.2v-37.3c0-4.9-2.6-9.2-6.6-11.7l0,0l-33.8-20.2c0,0,0,0,0,0c-1.9-1.1-4-1.8-6.2-1.9c-0.2,0-1.1,0-1.4,0
					h-39.3c-2.3,0-4.4,0.6-6.3,1.6c-0.2,0.1-0.9,0.5-1.1,0.6l0,0c0,0-33.3,19.9-33.2,19.9c0,0,0,0,0,0c-4,2.4-6.6,6.8-6.6,11.7
					V277.2"/>
				<path class="st30" d="M127.1,277.2c0,4,2.8,7.4,6.6,8.1c0.6,0.3,3.1,0.4,3.8,0.4h113.8c0.7,0,3.2-0.1,3.8-0.4
					c3.7-0.8,6.6-4.1,6.6-8.1v-37.3c0-4.9-2.6-9.2-6.6-11.6l0,0l-33.8-20.2c0,0,0,0,0,0c-1.9-1.1-4-1.8-6.2-1.9c-0.2,0-1.2,0-1.4,0
					h-39.2c-2.2,0-4.4,0.6-6.3,1.6c-0.2,0.1-1,0.5-1.1,0.6l0,0c0,0-33.2,19.9-33.2,19.9c0,0,0,0,0,0c-4,2.4-6.6,6.7-6.6,11.6V277.2"
					/>
				<path class="st29" d="M127.1,277.2c0,4,2.8,7.3,6.6,8.1c0.6,0.2,3.1,0.4,3.8,0.4h113.6c0.6,0,3.2-0.1,3.8-0.4
					c3.7-0.7,6.6-4.1,6.6-8.1v-37.3c0-4.8-2.5-9.1-6.6-11.5l0,0l-33.8-20.2c0,0,0,0,0,0c-1.9-1.1-4-1.8-6.2-1.9c-0.2,0-1.2,0-1.4,0
					h-39.2c-2.2,0-4.4,0.6-6.3,1.6c-0.2,0.1-1,0.5-1.1,0.6l0,0c0,0-33.2,19.8-33.2,19.8c0,0,0,0,0,0c-4,2.4-6.6,6.7-6.6,11.5V277.2"
					/>
				<path class="st55" d="M127.2,277.2c0,4,2.9,7.3,6.6,8c0.5,0.2,3.2,0.4,3.8,0.4H251c0.6,0,3.2-0.1,3.8-0.3c3.8-0.7,6.6-4,6.6-8
					v-37.3c0-4.8-2.5-9.1-6.5-11.5l0,0l-33.8-20.2c0,0,0,0,0,0c-1.9-1.1-4-1.8-6.2-1.8c-0.2,0-1.2,0-1.4,0h-39.2
					c-2.2,0-4.4,0.6-6.3,1.6c-0.2,0.1-1,0.5-1.1,0.6l0,0c0,0-33.2,19.8-33.2,19.8c0,0,0,0,0,0c-4,2.4-6.5,6.7-6.5,11.5V277.2"/>
				<path class="st27" d="M127.3,277.2c0,4,2.9,7.3,6.6,8c0.5,0.2,3.2,0.3,3.8,0.3h113.2c0.6,0,3.2-0.1,3.7-0.3c3.8-0.6,6.6-4,6.6-8
					v-37.3c0-4.8-2.5-9-6.5-11.4l0,0l-33.8-20.2c0,0,0,0,0,0c-1.9-1.1-4-1.7-6.2-1.8c-0.2,0-1.2,0-1.4,0h-39.1
					c-2.2,0-4.4,0.6-6.3,1.6c-0.2,0.1-1,0.5-1.1,0.6l0,0c0,0-33.1,19.8-33.1,19.8c0,0,0,0,0,0c-4,2.4-6.5,6.6-6.5,11.4V277.2"/>
				<path class="st26" d="M127.4,277.2c0,4,2.9,7.3,6.6,7.9c0.5,0.2,3.2,0.3,3.8,0.3h113.1c0.6,0,3.3-0.1,3.7-0.3
					c3.8-0.6,6.7-3.9,6.7-7.9v-37.3c0-4.8-2.5-9-6.4-11.4l0,0L221,208.4c0,0,0,0,0,0c-1.9-1.1-4-1.7-6.2-1.8c-0.2,0-1.2,0-1.4,0
					h-39.1c-2.2,0-4.4,0.6-6.3,1.6c-0.2,0.1-1,0.6-1.1,0.6l0,0c0,0-33.1,19.8-33.1,19.8c0,0,0,0,0,0c-4,2.4-6.4,6.6-6.4,11.4V277.2"
					/>
				<path class="st25" d="M127.4,277.2c0,4,2.9,7.3,6.7,7.8c0.5,0.2,3.2,0.3,3.8,0.3h112.9c0.5,0,3.3-0.1,3.7-0.3
					c3.8-0.6,6.7-3.9,6.7-7.9v-37.3c0-4.7-2.5-8.9-6.4-11.3l0,0L221,208.4c0,0,0,0,0,0c-1.9-1.1-4-1.7-6.2-1.8c-0.2,0-1.2,0-1.4,0
					h-39.1c-2.2,0-4.4,0.6-6.3,1.6c-0.2,0.1-1,0.6-1.1,0.6l0,0c0,0-33.1,19.8-33.1,19.8c0,0,0,0,0,0c-3.9,2.4-6.4,6.6-6.4,11.3
					V277.2"/>
				<path class="st24" d="M127.5,277.2c0,4,2.9,7.3,6.7,7.8c0.4,0.2,3.3,0.3,3.8,0.3h112.7c0.5,0,3.3-0.1,3.7-0.3
					c3.8-0.5,6.7-3.8,6.7-7.8v-37.3c0-4.7-2.5-8.9-6.4-11.2l0,0L221,208.5c0,0,0,0,0,0c-1.9-1.1-4-1.7-6.2-1.8c-0.2,0-1.2,0-1.4,0
					h-39c-2.2,0-4.4,0.6-6.3,1.6c-0.1,0.1-1,0.6-1.1,0.6l0,0c0,0-33.1,19.8-33.1,19.8c0,0,0,0,0,0c-3.9,2.3-6.4,6.5-6.4,11.2V277.2"
					/>
				<path class="st56" d="M127.6,277.2c0,4,2.9,7.2,6.7,7.7c0.4,0.2,3.3,0.3,3.8,0.3h112.5c0.5,0,3.3-0.1,3.7-0.3
					c3.8-0.5,6.7-3.8,6.7-7.7v-37.3c0-4.7-2.4-8.8-6.3-11.2l0,0l-33.8-20.2c0,0,0,0,0,0c-1.9-1.1-4-1.7-6.2-1.8c-0.2,0-1.2,0-1.4,0
					h-39c-2.2,0-4.4,0.6-6.3,1.6c-0.1,0.1-1,0.6-1.1,0.7l0,0c0,0-33,19.7-33,19.7c0,0,0,0,0,0c-3.9,2.3-6.3,6.5-6.3,11.2V277.2"/>
				<path class="st22" d="M127.6,277.2c0,3.9,3,7.2,6.7,7.7c0.4,0.2,3.3,0.2,3.8,0.2h112.4c0.4,0,3.4-0.1,3.7-0.2
					c3.8-0.5,6.7-3.7,6.7-7.7v-37.3c0-4.6-2.4-8.8-6.3-11.1l0,0l-33.8-20.2c0,0,0,0,0,0c-1.9-1.1-4-1.7-6.2-1.8c-0.1,0-1.2,0-1.4,0
					h-39c-2.2,0-4.4,0.6-6.2,1.6c-0.1,0.1-1,0.6-1.1,0.7l0,0c0,0-33,19.7-33,19.7c0,0,0,0,0,0c-3.9,2.3-6.3,6.5-6.3,11.1V277.2"/>
				<path class="st57" d="M127.7,277.2c0,3.9,3,7.2,6.8,7.6c0.3,0.1,3.4,0.2,3.7,0.2h112.2c0.4,0,3.4-0.1,3.7-0.2
					c3.8-0.4,6.8-3.7,6.8-7.6v-37.3c0-4.6-2.4-8.7-6.3-11l0,0l-33.8-20.2c0,0,0,0,0,0c-1.9-1.1-4-1.7-6.2-1.8c-0.1,0-1.2,0-1.4,0
					h-38.9c-2.2,0-4.4,0.6-6.2,1.6c-0.1,0.1-1,0.6-1.1,0.7l0,0c0,0-33,19.7-33,19.7c0,0,0,0,0,0c-3.9,2.3-6.3,6.4-6.3,11V277.2"/>
				<path class="st20" d="M127.8,277.2c0,3.9,3,7.2,6.8,7.6c0.3,0.1,3.4,0.2,3.7,0.2h112c0.4,0,3.4-0.1,3.7-0.2
					c3.8-0.4,6.8-3.6,6.8-7.6v-37.3c0-4.6-2.4-8.7-6.2-11l0,0l-33.8-20.2c0,0,0,0,0,0c-1.9-1.1-4-1.7-6.2-1.8c-0.1,0-1.3,0-1.4,0
					h-38.9c-2.2,0-4.4,0.6-6.2,1.6c-0.1,0.1-1,0.6-1.1,0.7l0,0c0,0-33,19.7-33,19.7c0,0,0,0,0,0c-3.9,2.3-6.2,6.4-6.2,11V277.2"/>
				<path class="st58" d="M127.9,277.2c0,3.9,3,7.2,6.8,7.5c0.3,0.1,3.4,0.2,3.7,0.2h111.8c0.3,0,3.4-0.1,3.7-0.2
					c3.8-0.4,6.8-3.6,6.8-7.5v-37.3c0-4.6-2.4-8.6-6.2-10.9l0,0l-33.8-20.2c0,0,0,0,0,0c-1.9-1.1-4-1.7-6.2-1.8c-0.1,0-1.3,0-1.4,0
					h-38.9c-2.2,0-4.3,0.6-6.2,1.6c-0.1,0-1,0.6-1.1,0.7l0,0c0,0-32.9,19.7-32.9,19.7c0,0,0,0,0,0c-3.8,2.3-6.2,6.4-6.2,10.9V277.2"
					/>
				<path class="st59" d="M127.9,277.2c0,3.9,3,7.2,6.8,7.5c0.3,0.1,3.4,0.2,3.7,0.2h111.7c0.3,0,3.5-0.1,3.7-0.2
					c3.8-0.3,6.8-3.6,6.8-7.5v-37.3c0-4.5-2.3-8.6-6.2-10.9l0,0l-33.8-20.2c0,0,0,0,0,0c-1.9-1.1-4-1.7-6.2-1.8c-0.1,0-1.3,0-1.4,0
					h-38.8c-2.2,0-4.3,0.6-6.2,1.6c-0.1,0-1,0.6-1.1,0.7l0,0c0,0-32.9,19.7-32.9,19.7c0,0,0,0,0,0c-3.8,2.3-6.2,6.3-6.2,10.9V277.2"
					/>
				<path class="st60" d="M128,277.2c0,3.9,3,7.1,6.8,7.4c0.2,0.1,3.5,0.1,3.7,0.1h111.5c0.3,0,3.5-0.1,3.7-0.1
					c3.8-0.3,6.8-3.5,6.8-7.4v-37.3c0-4.5-2.3-8.5-6.1-10.8l0,0l-33.8-20.2c0,0,0,0,0,0c-1.8-1.1-4-1.7-6.2-1.8c-0.1,0-1.3,0-1.4,0
					h-38.8c-2.2,0-4.3,0.6-6.2,1.6c-0.1,0-1,0.6-1.1,0.7l0,0c0,0-32.9,19.7-32.9,19.7c0,0,0,0,0,0c-3.8,2.3-6.1,6.3-6.1,10.8V277.2"
					/>
				<path class="st61" d="M128.1,277.2c0,3.9,3,7.1,6.9,7.4c0.2,0.1,3.5,0.1,3.7,0.1H250c0.2,0,3.5,0,3.7-0.1
					c3.8-0.3,6.9-3.5,6.9-7.4v-37.3c0-4.5-2.3-8.5-6.1-10.7l0,0L220.7,209c0,0,0,0,0,0c-1.8-1.1-4-1.7-6.2-1.7c-0.1,0-1.3,0-1.4,0
					h-38.8c-2.2,0-4.3,0.6-6.2,1.7c-0.1,0-1,0.6-1.1,0.7l0,0c0,0-32.9,19.6-32.9,19.6c0,0,0,0,0,0c-3.8,2.3-6.1,6.3-6.1,10.7V277.2"
					/>
				<path class="st62" d="M128.1,277.2c0,3.9,3.1,7.1,6.9,7.3c0.2,0.1,3.5,0.1,3.7,0.1h111.1c0.2,0,3.5,0,3.7-0.1
					c3.8-0.2,6.9-3.4,6.9-7.3v-37.3c0-4.4-2.3-8.4-6.1-10.7l0,0l-33.8-20.2c0,0,0,0,0,0c-1.8-1.1-4-1.7-6.2-1.7c-0.1,0-1.3,0-1.4,0
					h-38.7c-2.2,0-4.3,0.6-6.2,1.7c-0.1,0-1.1,0.6-1.1,0.7l0,0c0,0-32.8,19.6-32.8,19.6c0,0,0,0,0,0c-3.8,2.3-6.1,6.2-6.1,10.7
					V277.2"/>
				<path class="st63" d="M128.2,277.2c0,3.9,3.1,7.1,6.9,7.3c0.1,0.1,3.6,0.1,3.7,0.1h111c0.2,0,3.6,0,3.7-0.1
					c3.8-0.2,6.9-3.4,6.9-7.3v-37.3c0-4.4-2.3-8.4-6-10.6l0,0l-33.8-20.2c0,0,0,0,0,0c-1.8-1.1-4-1.7-6.2-1.7c-0.1,0-1.3,0-1.4,0
					h-38.7c-2.2,0-4.3,0.6-6.2,1.7c0,0-1.1,0.6-1.1,0.7l0,0c0,0-32.8,19.6-32.8,19.6c0,0,0,0,0,0c-3.8,2.2-6,6.2-6,10.6V277.2"/>
				<path class="st64" d="M128.3,277.2c0,3.9,3.1,7.1,6.9,7.2c0.1,0,3.6,0.1,3.7,0.1h110.8c0.1,0,3.6,0,3.7-0.1
					c3.8-0.1,6.9-3.3,6.9-7.2v-37.3c0-4.4-2.3-8.3-6-10.6l0,0l-33.8-20.2c0,0,0,0,0,0c-1.8-1.1-4-1.7-6.1-1.7c0,0-1.3,0-1.4,0h-38.7
					c-2.2,0-4.3,0.6-6.2,1.7c0,0-1.1,0.6-1.1,0.7l0,0c0,0-32.8,19.6-32.8,19.6c0,0,0,0,0,0c-3.7,2.2-6,6.2-6,10.6V277.2"/>
				<path class="st65" d="M128.4,277.2c0,3.9,3.1,7.1,6.9,7.2c0.1,0,3.6,0.1,3.7,0.1h110.6c0.1,0,3.6,0,3.7-0.1
					c3.8-0.1,6.9-3.3,6.9-7.2v-37.3c0-4.4-2.2-8.3-6-10.5l0,0l-33.8-20.2c0,0,0,0,0,0c-1.8-1.1-4-1.7-6.1-1.7c0,0-1.3,0-1.4,0h-38.6
					c-2.2,0-4.3,0.6-6.2,1.7c0,0-1.1,0.6-1.1,0.7l0,0c0,0-32.8,19.6-32.8,19.6c0,0,0,0,0,0c-3.7,2.2-6,6.1-6,10.5V277.2"/>
				<path class="st66" d="M128.4,277.2c0,3.9,3.1,7,7,7.1c0.1,0,3.6,0,3.7,0h110.4c0.1,0,3.6,0,3.7,0c3.8-0.1,7-3.2,7-7.1v-37.3
					c0-4.3-2.2-8.2-5.9-10.4l0,0l-33.8-20.2c0,0,0,0,0,0c-1.8-1.1-4-1.7-6.1-1.7c0,0-1.3,0-1.4,0h-38.6c-2.2,0-4.3,0.6-6.2,1.7
					c0,0-1.1,0.6-1.1,0.7l0,0c0,0-32.7,19.6-32.7,19.6c0,0,0,0,0,0c-3.7,2.2-5.9,6.1-5.9,10.4V277.2"/>
				<path class="st67" d="M128.5,277.2c0,3.9,3.1,7,7,7.1c0,0,3.7,0,3.7,0h110.3c0,0,3.7,0,3.7,0c3.9,0,7-3.2,7-7.1v-37.3
					c0-4.3-2.2-8.2-5.9-10.4l0,0l-33.8-20.2c0,0,0,0,0,0c-1.8-1.1-4-1.7-6.1-1.7c0,0-1.4,0-1.4,0h-38.6c-2.2,0-4.3,0.6-6.2,1.7
					c0,0-1.1,0.6-1.1,0.7l0,0c0,0-32.7,19.5-32.7,19.5c0,0,0,0,0,0c-3.7,2.2-5.9,6.1-5.9,10.4V277.2"/>
				<path class="st68" d="M128.6,277.2c0,3.9,3.1,7,7,7H253c3.9,0,7-3.1,7-7v-37.3c0-4.3-2.2-8.1-5.9-10.3v0l-33.8-20.2
					c-1.8-1.1-4-1.7-6.1-1.7h-39.9c-2.2,0-4.3,0.6-6.1,1.7l-33.8,20.2l0,0c-3.7,2.2-5.9,6-5.9,10.3V277.2z"/>
			</g>
			<path class="st69" d="M266,277.2c0,7.2-5.8,13-13,13H135.6c-7.2,0-13-5.8-13-13v-37.3c0-6.3,3.4-12.2,8.8-15.5l34.1-20.4l0,0
				c2.7-1.5,5.8-2.4,8.9-2.4h39.9c3.1,0,6.2,0.8,8.9,2.4l0.3,0.2l33.8,20.2c5.4,3.2,8.8,9.2,8.8,15.5V277.2z"/>
			<path class="st70" d="M128.6,277.2c0,3.9,3.1,7,7,7H253c3.9,0,7-3.1,7-7v-37.3c0-4.3-2.2-8.1-5.9-10.3v0l-33.8-20.2
				c-1.8-1.1-4-1.7-6.1-1.7h-39.9c-2.2,0-4.3,0.6-6.1,1.7l-33.8,20.2l0,0c-3.7,2.2-5.9,6-5.9,10.3V277.2z"/>
		</g>
		<path class="st0" d="M255.6,238v36.7c0,1.7-1.4,3-3,3h-38.4c-1.7,0-3-1.3-3-3V238c0-1.6,1.3-3,3-3h38.4
			C254.3,235,255.6,236.4,255.6,238z"/>
		<path class="st3" d="M150,256.9c0,0.9-0.7,1.7-1.7,1.7h-7.4c-4,0-7.2,3.2-7.2,7.2c0,4,3.2,7.2,7.2,7.2h7.4c0.9,0,1.7,0.7,1.7,1.7
			l0.1,0v1.9c0,2.8,2.3,5,5,5h36c2.8,0,5-2.3,5-5v-27.9c0-2.8-2.3-5-5-5h-36c-2.8,0-5,2.3-5,5L150,256.9L150,256.9z"/>
		
			<linearGradient id="SVGID_7_" gradientUnits="userSpaceOnUse" x1="7240.3296" y1="6485.3076" x2="7214.9644" y2="6506.0688" gradientTransform="matrix(4.489700e-011 -1 1 4.489700e-011 -6317.2944 7496.3154)">
			<stop  offset="5.618000e-003" style="stop-color:#E5E5E5"/>
			<stop  offset="0.8" style="stop-color:#999999"/>
			<stop  offset="1" style="stop-color:#808080"/>
		</linearGradient>
		<path class="st71" d="M193.2,247.5v29.2c0,1.6-1.3,3-3,3h-34.3c-1.6,0-3-1.4-3-3v-29.2c0-1.6,1.4-3,3-3h34.3
			C191.8,244.5,193.2,245.9,193.2,247.5z"/>
		<rect x="155.3" y="246.7" class="st72" width="35.5" height="30.8"/>
		<path class="st11" d="M119.8,163.4c0-0.2,3.3-0.4,9-0.5l2.1-90.5c0.1-2.7,1-4.9,2.2-6.5v9.3c0,0-0.2-3.4,1.8-4.9
			c0.1-0.1,44.3-33.8,44.3-33.8s2.5-1.9,5.4-1.9c0.2,0,2,0,2,0h35.7c5.9,0,10.3,0,10.9,0c2.9,0,5.4,1.9,5.4,1.9l42.6,31
			c0,0,2.1,2,2.5,2.7c1,1.4,1.7,3.9,1.7,3.9v9.3l-0.7,18.8v45.1v2.2l-1.4,23c0,0-0.3,1.3-1.1,2.6v0c0,0-0.3,0.5-0.8,1.3
			c0.7,2.7,1.1,6.2,1.1,10.7c0,5.9-4,9.9-8.1,9.9h-28l-0.2-0.2c-0.5,0.2-1,0.2-1.5,0.2h-86.8l-0.2-0.2c-0.5,0.2-1,0.2-1.5,0.2h-28
			c-0.8,0-1.4-0.3-1.9-0.8c-0.5-0.5-5.6-5.4-5.6-5.4l0-0.2c-0.5-0.5-0.8-1.2-0.8-1.9V163.4z"/>
		<g id="Hinge_door_opened_2_">
			
				<linearGradient id="SVGID_8_" gradientUnits="userSpaceOnUse" x1="-6791.6724" y1="-1405.3353" x2="-6822.27" y2="-1405.3353" gradientTransform="matrix(-4.489700e-011 1 -1 -4.489700e-011 -1271.4818 6982.9751)">
				<stop  offset="0" style="stop-color:#7E7D79"/>
				<stop  offset="0.1" style="stop-color:#8E8D89"/>
				<stop  offset="1" style="stop-color:#5E5C57"/>
			</linearGradient>
			<path class="st73" d="M121.2,191.3c-1.5,0-2.7-1.2-2.7-2.7v-25.2c0-1.5,1.2-2.7,2.7-2.7h28v30.6H121.2z"/>
			
				<linearGradient id="SVGID_9_" gradientUnits="userSpaceOnUse" x1="-6791.6724" y1="-1526.2958" x2="-6822.27" y2="-1526.2958" gradientTransform="matrix(-4.489700e-011 1 -1 -4.489700e-011 -1271.4818 6982.9751)">
				<stop  offset="0" style="stop-color:#7E7D79"/>
				<stop  offset="0.1" style="stop-color:#8E8D89"/>
				<stop  offset="1" style="stop-color:#5E5C57"/>
			</linearGradient>
			<path class="st74" d="M239.5,191.3v-30.6h28c1.5,0,2.7,1.2,2.7,2.7v25.2c0,1.5-1.2,2.7-2.7,2.7H239.5z"/>
			
				<linearGradient id="SVGID_10_" gradientUnits="userSpaceOnUse" x1="-6782.8208" y1="-1465.8148" x2="-6822.27" y2="-1465.8148" gradientTransform="matrix(-4.489700e-011 1 -1 -4.489700e-011 -1271.4818 6982.9751)">
				<stop  offset="0" style="stop-color:#7E7D79"/>
				<stop  offset="0.5" style="stop-color:#8E8D89"/>
				<stop  offset="1" style="stop-color:#5E5C57"/>
			</linearGradient>
			<rect x="150.9" y="160.7" class="st75" width="86.8" height="30.6"/>
			<polyline class="st17" points="150.9,160.7 150.9,191.3 237.7,191.3 237.7,160.7 			"/>
			
				<linearGradient id="SVGID_11_" gradientUnits="userSpaceOnUse" x1="-6795.7964" y1="-1510.0951" x2="-6818.1411" y2="-1510.0951" gradientTransform="matrix(-4.489700e-011 1 -1 -4.489700e-011 -1271.4818 6982.9751)">
				<stop  offset="0" style="stop-color:#6E6C68"/>
				<stop  offset="0.1" style="stop-color:#7E7D79"/>
				<stop  offset="1" style="stop-color:#191919"/>
			</linearGradient>
			<rect x="237.7" y="164.8" class="st76" width="1.7" height="22.3"/>
			
				<linearGradient id="SVGID_12_" gradientUnits="userSpaceOnUse" x1="-6795.7964" y1="-1421.5365" x2="-6818.1411" y2="-1421.5365" gradientTransform="matrix(-4.489700e-011 1 -1 -4.489700e-011 -1271.4818 6982.9751)">
				<stop  offset="0" style="stop-color:#6E6C68"/>
				<stop  offset="0.1" style="stop-color:#7E7D79"/>
				<stop  offset="1" style="stop-color:#191919"/>
			</linearGradient>
			<rect x="149.2" y="164.8" class="st77" width="1.7" height="22.3"/>
		</g>
		<circle class="st78" cx="194.3" cy="300.7" r="4.4"/>
		<path class="st79" d="M194.3,295.7c2.7,0,5,2.2,5,5"/>
		<path class="st80" d="M194.3,305.7c-2.6,0-5-2.2-5-5"/>
		<path class="st81" d="M190.8,297.2c0.9-0.9,2.1-1.5,3.5-1.5"/>
		<path class="st82" d="M189.3,300.7c0-1.3,0.6-2.6,1.5-3.5"/>
		<path class="st82" d="M197.8,304.2c-0.9,0.9-2.1,1.5-3.5,1.5"/>
		<path class="st81" d="M199.3,300.7c0,1.3-0.6,2.5-1.5,3.5"/>
		<g>
			<circle class="st83" cx="194.4" cy="48.7" r="20.1"/>
			
				<linearGradient id="SVGID_13_" gradientUnits="userSpaceOnUse" x1="-6716.3643" y1="-1476.3751" x2="-6695.0327" y2="-1455.0436" gradientTransform="matrix(-4.489700e-011 1 -1 -4.489700e-011 -1271.2689 6754.4302)">
				<stop  offset="0" style="stop-color:#404040"/>
				<stop  offset="1" style="stop-color:#000000"/>
			</linearGradient>
			<circle class="st84" cx="194.4" cy="48.7" r="15.1"/>
			<circle class="st85" cx="194.4" cy="48.7" r="13.2"/>
			<path class="st86" d="M213.8,49.5c0,5.3-2.1,10.2-5.5,13.8c3.9-3.7,6.3-8.9,6.3-14.6c0-11.1-9-20.1-20.1-20.1
				c-5.8,0-10.9,2.4-14.6,6.3c3.6-3.4,8.5-5.5,13.8-5.5C204.7,29.4,213.8,38.4,213.8,49.5z"/>
		</g>
		<g>
			<g>
				<path class="st7" d="M238.5,159c0,0,24.2,0,27.9,0s4.5-4.4,4.5-4.4l0-88.3c0,0,0.2-3.4-1.8-4.9c-0.1-0.1-44.3-33.8-44.3-33.8
					s-2.5-1.9-5.4-1.9c-2.1,0-46.8,0-48.6,0c-2.9,0-5.4,1.9-5.4,1.9l-42.6,31c0,0-1.7,1.4-2.5,2.7c-0.9,1.4-1,3.9-1,3.9l0,89.5
					c0,0,0.1,4.4,4.4,4.4c4.4,0,27.9,0,27.9,0l0,0H238.5z"/>
				<path class="st87" d="M123.9,158.2L123.9,158.2c-2,0-3.6-1.6-3.6-3.6V63.5c0,0-0.6-1.7,3.1-4.3l44.5-32.3"/>
				<line class="st9" x1="151.6" y1="158.2" x2="123.9" y2="158.2"/>
				<path class="st88" d="M203.9,61.5H253c7.4,0,13.4,5.8,13.4,12.9v40.4c0,6.2-3.5,12-9.1,15.2l-33.8,19.2
					c-2.8,1.6-6.1,2.5-9.4,2.5h-39.9c-3.3,0-6.5-0.8-9.4-2.5l-0.1-0.1L131.2,130c-5.6-3.2-9.1-9-9.1-15.2V74.4
					c0-7.1,6-12.9,13.4-12.9h48.1c2.4,0.1,3.4-2,2.4-3.2c-2.1-2.3-5.2-5.3-5.2-10.3c0-7.5,6-13.5,13.5-13.5c7.5,0,13.5,6,13.5,13.5
					c0,4.8-2.8,8-4.9,10.3c-1.1,1.3,0,3.3,1.2,3.2"/>
				<path class="st88" d="M203.9,62H253c7.4,0,13.4,5.8,13.4,12.9v40.4c0,6.2-3.5,12-9.1,15.2l-33.8,19.2c-2.8,1.6-6.1,2.5-9.4,2.5
					h-39.9c-3.3,0-6.5-0.8-9.4-2.5l-0.1-0.1l-33.7-19.1c-5.6-3.2-9.1-9-9.1-15.2V74.9c0-7.1,6-12.9,13.4-12.9h48.1
					c2.4,0.1,3.4-2,2.4-3.2c-2.1-2.3-5.2-5.3-5.2-10.3c0-7.5,6-13.5,13.5-13.5c7.5,0,13.5,6,13.5,13.5c0,4.8-2.8,8-4.9,10.3
					c-1.1,1.3,0,3.3,1.2,3.2"/>
				<g>
					<g>
						<g id="XMLID_44_">
							<circle class="st89" cx="194.3" cy="48.5" r="10.1"/>
						</g>
					</g>
				</g>
				<g>
					<g>
						<g id="XMLID_43_">
							<path class="st90" d="M204.4,48c0,5.6-4.5,10.1-10.1,10.1c-5.6,0-10.1-4.5-10.1-10.1"/>
						</g>
					</g>
				</g>
				<circle class="st11" cx="195.1" cy="50" r="4.4"/>
				
					<linearGradient id="SVGID_14_" gradientUnits="userSpaceOnUse" x1="-6706.1772" y1="-1470.2474" x2="-6706.1772" y2="-1461.4467" gradientTransform="matrix(-4.489700e-011 1 -1 -4.489700e-011 -1271.5443 6754.6665)">
					<stop  offset="0" style="stop-color:#CCCCCC"/>
					<stop  offset="1" style="stop-color:#4C4C4C"/>
				</linearGradient>
				<circle class="st91" cx="194.3" cy="48.5" r="4.4"/>
				<circle class="st92" cx="194.3" cy="49.5" r="4.4"/>
				<path class="st87" d="M218.1,26.5c-2.3,0-48.8,0-48.8,0"/>
				<path class="st9" d="M269.8,154.2v-88c0-2.5-1.6-4.3-3.5-5.7c-1.3-0.9-43.7-33-43.7-33s-2.3-1-4.6-1"/>
				<path class="st3" d="M125.6,74.9c0-5.2,4.5-9.5,10-9.5H253c5.5,0,10,4.3,10,9.5v40.4c0,5.2-2.9,9.8-7.3,12.2l0,0l-33.8,19.2l0,0
					c-2.2,1.3-4.9,2-7.7,2h-39.9c-2.8,0-5.4-0.7-7.7-2l0,0l-33.8-19.2l0,0c-4.4-2.5-7.3-7-7.3-12.2V74.9"/>
				<path class="st69" d="M263,114.8c0,5.2-2.9,9.8-7.3,12.2l0,0l-33.8,19.2l0,0c-2.2,1.3-4.9,2-7.7,2h-39.9c-2.8,0-5.4-0.7-7.7-2
					l0,0l-33.8-19.2l0,0c-4.4-2.5-7.3-7-7.3-12.2"/>
			</g>
			<g>
				<circle class="st93" cx="141.9" cy="267.4" r="3.6"/>
				<defs>
					<filter id="Adobe_OpacityMaskFilter" filterUnits="userSpaceOnUse" x="137.1" y="262.6" width="7.6" height="7.6">
						<feFlood  style="flood-color:white;flood-opacity:1" result="back"/>
						<feBlend  in="SourceGraphic" in2="back" mode="normal"/>
					</filter>
				</defs>
				<mask maskUnits="userSpaceOnUse" x="137.1" y="262.6" width="7.6" height="7.6" id="SVGID_15_">
					<g class="st94">
					</g>
				</mask>
				
					<radialGradient id="SVGID_16_" cx="-3039.5947" cy="3459.1333" r="3.6257" gradientTransform="matrix(-0.7071 0.7071 -0.7071 -0.7071 437.5334 4861.6621)" gradientUnits="userSpaceOnUse">
					<stop  offset="5.618000e-003" style="stop-color:#FFFFFF"/>
					<stop  offset="0.8" style="stop-color:#6ABB8E"/>
					<stop  offset="1" style="stop-color:#2A9E5E"/>
				</radialGradient>
				<circle class="st95" cx="140.9" cy="266.4" r="3.6"/>
				<defs>
					<filter id="Adobe_OpacityMaskFilter_1_" filterUnits="userSpaceOnUse" x="140" y="265.5" width="3.7" height="3.7">
						
							<feColorMatrix  type="matrix" values="-1 0 0 0 1  0 -1 0 0 1  0 0 -1 0 1  0 0 0 1 0" color-interpolation-filters="sRGB" result="source"/>
						<feFlood  style="flood-color:white;flood-opacity:1" result="back"/>
						<feBlend  in="source" in2="back" mode="normal"/>
					</filter>
				</defs>
				<mask maskUnits="userSpaceOnUse" x="140" y="265.5" width="3.7" height="3.7" id="SVGID_17_">
					<g class="st96">
						
							<linearGradient id="SVGID_18_" gradientUnits="userSpaceOnUse" x1="-3135.1357" y1="3434.7471" x2="-3135.1357" y2="3430.9951" gradientTransform="matrix(-0.7071 0.7071 -0.7071 -0.7071 352.2756 4911.5415)">
							<stop  offset="5.618000e-003" style="stop-color:#FFFFFF"/>
							<stop  offset="1" style="stop-color:#231F20"/>
						</linearGradient>
						<polygon class="st97" points="138.6,267.8 142.2,264.2 144.9,266.8 141.3,270.4 						"/>
					</g>
				</mask>
				<path class="st98" d="M143.1,268.6c-0.6,0.6-1.7,1-2.4,0.3c-0.8-0.8-0.8-2-0.1-2.8c0.8-0.8,2-0.7,2.8,0.1
					C144.1,266.9,143.7,268,143.1,268.6z"/>
			</g>
			<rect x="213.3" y="239.9" class="st99" width="40.3" height="34"/>
			<path class="st100" d="M190.8,256.4v11.4c0,1.7-1.3,3-3,3h-29.5c-1.6,0-3-1.3-3-3v-11.4c0-1.6,1.4-3,3-3h29.5
				C189.4,253.4,190.8,254.7,190.8,256.4z"/>
			<rect x="158.3" y="269.4" class="st101" width="29.5" height="1.5"/>
			<rect x="155.3" y="256.4" class="st101" width="1.5" height="11.4"/>
			<rect x="189.3" y="256.4" class="st101" width="1.5" height="11.4"/>
			<rect x="158.3" y="253.4" class="st101" width="29.5" height="1.5"/>
			<rect x="157.3" y="257.3" class="st102" width="31.6" height="5.1"/>
		</g>
		<g>
			
				<radialGradient id="SVGID_19_" cx="7111.7788" cy="2047.481" r="2.5682" gradientTransform="matrix(4.489700e-011 -1 1 4.489700e-011 -1800.7993 7381.5264)" gradientUnits="userSpaceOnUse">
				<stop  offset="5.618000e-003" style="stop-color:#FFF380"/>
				<stop  offset="0.8" style="stop-color:#FFEE4C"/>
				<stop  offset="1" style="stop-color:#FFF000"/>
			</radialGradient>
			<rect x="243.4" y="268.2" class="st103" width="6.6" height="3.1"/>
			
				<radialGradient id="SVGID_20_" cx="7111.7788" cy="2020.9945" r="2.5682" gradientTransform="matrix(4.489700e-011 -1 1 4.489700e-011 -1800.7993 7381.5264)" gradientUnits="userSpaceOnUse">
				<stop  offset="5.618000e-003" style="stop-color:#AFD4B8"/>
				<stop  offset="0.8" style="stop-color:#6ABB8E"/>
				<stop  offset="1" style="stop-color:#2A9E5E"/>
			</radialGradient>
			<rect x="216.9" y="268.2" class="st104" width="6.6" height="3.1"/>
			<polygon class="st105" points="216.9,266.1 225.4,266.1 225.4,269 229,269 229,271.3 237.9,271.3 237.9,269 241.5,269 
				241.5,266.1 250,266.1 250,242.1 216.9,242.1 			"/>
			<g>
				<polygon class="st106" points="245.2,244.5 244.2,244.5 244.2,242.1 245.2,242.1 245.2,244.5 				"/>
			</g>
			<g>
				<polygon class="st106" points="242,244.5 241,244.5 241,242.1 242,242.1 242,244.5 				"/>
			</g>
			<g>
				<polygon class="st106" points="238.8,244.5 237.8,244.5 237.8,242.1 238.8,242.1 238.8,244.5 				"/>
			</g>
			<g>
				<polygon class="st106" points="235.5,244.5 234.5,244.5 234.5,242.1 235.5,242.1 235.5,244.5 				"/>
			</g>
			<g>
				<polygon class="st106" points="232.3,244.5 231.3,244.5 231.3,242.1 232.3,242.1 232.3,244.5 				"/>
			</g>
			<g>
				<polygon class="st106" points="229.1,244.5 228.1,244.5 228.1,242.1 229.1,242.1 229.1,244.5 				"/>
			</g>
			<g>
				<polygon class="st106" points="225.9,244.5 224.9,244.5 224.9,242.1 225.9,242.1 225.9,244.5 				"/>
			</g>
			<g>
				<polygon class="st106" points="222.7,244.5 221.7,244.5 221.7,242.1 222.7,242.1 222.7,244.5 				"/>
			</g>
			<g>
				
					<linearGradient id="SVGID_21_" gradientUnits="userSpaceOnUse" x1="7130.9673" y1="2045.4995" x2="7137.0132" y2="2045.4995" gradientTransform="matrix(4.489700e-011 -1 1 4.489700e-011 -1800.7993 7381.5264)">
					<stop  offset="5.618000e-003" style="stop-color:#262626"/>
					<stop  offset="1" style="stop-color:#333333"/>
				</linearGradient>
				<polygon class="st107" points="245.2,250.6 244.2,250.6 244.2,244.5 245.2,244.5 245.2,250.6 				"/>
			</g>
			<g>
				
					<linearGradient id="SVGID_22_" gradientUnits="userSpaceOnUse" x1="7130.9644" y1="2042.2797" x2="7137.0132" y2="2042.2797" gradientTransform="matrix(4.489700e-011 -1 1 4.489700e-011 -1800.7993 7381.5264)">
					<stop  offset="5.618000e-003" style="stop-color:#262626"/>
					<stop  offset="1" style="stop-color:#333333"/>
				</linearGradient>
				<polygon class="st108" points="242,250.6 241,250.6 241,244.5 242,244.5 242,250.6 				"/>
			</g>
			<g>
				
					<linearGradient id="SVGID_23_" gradientUnits="userSpaceOnUse" x1="7130.9653" y1="2039.061" x2="7137.0132" y2="2039.061" gradientTransform="matrix(4.489700e-011 -1 1 4.489700e-011 -1800.7993 7381.5264)">
					<stop  offset="5.618000e-003" style="stop-color:#262626"/>
					<stop  offset="1" style="stop-color:#333333"/>
				</linearGradient>
				<polygon class="st109" points="238.8,250.6 237.8,250.6 237.8,244.5 238.8,244.5 238.8,250.6 				"/>
			</g>
			<g>
				
					<linearGradient id="SVGID_24_" gradientUnits="userSpaceOnUse" x1="7130.9673" y1="2035.8427" x2="7137.0132" y2="2035.8427" gradientTransform="matrix(4.489700e-011 -1 1 4.489700e-011 -1800.7993 7381.5264)">
					<stop  offset="5.618000e-003" style="stop-color:#262626"/>
					<stop  offset="1" style="stop-color:#333333"/>
				</linearGradient>
				<polygon class="st110" points="235.5,250.6 234.5,250.6 234.5,244.5 235.5,244.5 235.5,250.6 				"/>
			</g>
			<g>
				
					<linearGradient id="SVGID_25_" gradientUnits="userSpaceOnUse" x1="7130.9683" y1="2032.624" x2="7137.0132" y2="2032.624" gradientTransform="matrix(4.489700e-011 -1 1 4.489700e-011 -1800.7993 7381.5264)">
					<stop  offset="5.618000e-003" style="stop-color:#262626"/>
					<stop  offset="1" style="stop-color:#333333"/>
				</linearGradient>
				<polygon class="st111" points="232.3,250.6 231.3,250.6 231.3,244.5 232.3,244.5 232.3,250.6 				"/>
			</g>
			<g>
				
					<linearGradient id="SVGID_26_" gradientUnits="userSpaceOnUse" x1="7130.9653" y1="2029.4052" x2="7137.0142" y2="2029.4052" gradientTransform="matrix(4.489700e-011 -1 1 4.489700e-011 -1800.7993 7381.5264)">
					<stop  offset="5.618000e-003" style="stop-color:#262626"/>
					<stop  offset="1" style="stop-color:#333333"/>
				</linearGradient>
				<polygon class="st112" points="229.1,250.6 228.1,250.6 228.1,244.5 229.1,244.5 229.1,250.6 				"/>
			</g>
			<g>
				
					<linearGradient id="SVGID_27_" gradientUnits="userSpaceOnUse" x1="7130.9653" y1="2026.1865" x2="7137.0161" y2="2026.1865" gradientTransform="matrix(4.489700e-011 -1 1 4.489700e-011 -1800.7993 7381.5264)">
					<stop  offset="5.618000e-003" style="stop-color:#262626"/>
					<stop  offset="1" style="stop-color:#333333"/>
				</linearGradient>
				<polygon class="st113" points="225.9,250.6 224.9,250.6 224.9,244.5 225.9,244.5 225.9,250.6 				"/>
			</g>
			<g>
				
					<linearGradient id="SVGID_28_" gradientUnits="userSpaceOnUse" x1="7130.9673" y1="2022.9681" x2="7137.0132" y2="2022.9681" gradientTransform="matrix(4.489700e-011 -1 1 4.489700e-011 -1800.7993 7381.5264)">
					<stop  offset="5.618000e-003" style="stop-color:#262626"/>
					<stop  offset="1" style="stop-color:#333333"/>
				</linearGradient>
				<polygon class="st114" points="222.7,250.6 221.7,250.6 221.7,244.5 222.7,244.5 222.7,250.6 				"/>
			</g>
		</g>
		<g class="st11">
			<path d="M215.3,236c-1.6,0-3,1.3-3,3v36.7c0,0.6,0.2,1.1,0.4,1.6c-0.9-0.5-1.4-1.5-1.4-2.6V238c0-1.7,1.4-3,3-3h38.4
				c1.1,0,2,0.6,2.6,1.4c-0.5-0.3-1-0.4-1.6-0.4H215.3z"/>
			<path d="M151,275.6L151,275.6l0.1,1.9c0,1.1,0.4,2.1,1,3c-1.2-0.9-2-2.4-2-4v-1.9l-0.1,0c0-0.2,0-0.4-0.1-0.6
				C150.5,274.2,151,274.8,151,275.6z"/>
			<path d="M156.1,244.6c-2.8,0-5,2.3-5,5v8.3l-0.1,0c0,0.9-0.7,1.7-1.7,1.7h-7.4c-4,0-7.2,3.2-7.2,7.2c0,1.7,0.6,3.3,1.6,4.5
				c-1.6-1.3-2.6-3.3-2.6-5.5c0-4,3.2-7.2,7.2-7.2h7.4c0.9,0,1.7-0.7,1.7-1.7l0.1,0v-8.3c0-2.8,2.3-5,5-5h36c1.6,0,3.1,0.8,4,2
				c-0.8-0.6-1.9-1-3-1H156.1z"/>
		</g>
		<g>
			
				<linearGradient id="SVGID_29_" gradientUnits="userSpaceOnUse" x1="7266.73" y1="6501.3491" x2="7282.4409" y2="6517.0601" gradientTransform="matrix(4.489700e-011 -1 1 4.489700e-011 -6317.2944 7496.3154)">
				<stop  offset="5.618000e-003" style="stop-color:#808080"/>
				<stop  offset="1" style="stop-color:#B2B2B2"/>
			</linearGradient>
			<circle class="st115" cx="191.9" cy="221.7" r="11.1"/>
			<circle class="st3" cx="191.9" cy="221.7" r="4.5"/>
			<path class="st11" d="M192.6,227l-3-3c-1.3-1.3-1.3-3.3,0-4.6s3.3-1.3,4.6,0l3,3c1.3,1.3,1.3,3.3,0,4.6S193.9,228.3,192.6,227z"
				/>
			<circle class="st116" cx="191.9" cy="221.7" r="3.3"/>
		</g>
	</g>
</g>
</svg>
